<svg width="50" height="50" viewBox="0 0 50 50" fill="none" xmlns="http://www.w3.org/2000/svg">
<mask id="path-1-outside-1_762_1444" maskUnits="userSpaceOnUse" x="4" y="2" width="41" height="47" fill="black">
<rect fill="white" x="4" y="2" width="41" height="47"/>
<path fill-rule="evenodd" clip-rule="evenodd" d="M19.5679 3.15243C19.3565 3.30045 19.3503 3.35595 19.3503 5.09833C19.3503 6.6451 19.3725 6.9104 19.5117 7.02631C19.6263 7.12156 20.1026 7.17482 21.1515 7.20957L22.6298 7.25852V8.42957V9.60071L22.2872 9.67217C22.0988 9.71153 21.46 9.83654 20.8677 9.94991C20.2754 10.0634 19.2821 10.3257 18.6602 10.533C18.0384 10.7402 17.1132 11.1048 16.6044 11.3432C16.0955 11.5816 15.3267 11.9901 14.896 12.251C14.4652 12.5119 13.7835 12.9711 13.381 13.2715C12.9786 13.5719 12.5929 13.853 12.524 13.8961C12.4413 13.948 12.2159 13.8018 11.8607 13.4659C11.5648 13.1861 11.3227 12.8851 11.3227 12.797C11.3227 12.7088 11.5871 12.3752 11.9101 12.0555C12.2479 11.7213 12.4975 11.389 12.4975 11.2736C12.4975 11.1494 12.1144 10.6912 11.4924 10.0713C10.7529 9.33433 10.4224 9.06962 10.2417 9.06962C10.051 9.06962 9.43176 9.63546 7.46794 11.6047C5.24313 13.8355 4.94778 14.1674 5.00661 14.3703C5.04342 14.497 5.50364 15.0303 6.02934 15.5553C6.71472 16.2398 7.05256 16.5098 7.22349 16.5098C7.38502 16.5098 7.64934 16.3205 8.04318 15.9224C8.36292 15.5994 8.67139 15.335 8.72876 15.335C8.78612 15.335 9.06278 15.5677 9.34365 15.852C9.62451 16.1364 9.85428 16.4162 9.85428 16.4738C9.85428 16.5313 9.62872 16.8764 9.35305 17.2406C9.07737 17.6048 8.64182 18.2412 8.38524 18.655C8.12865 19.0688 7.754 19.7342 7.55282 20.1337C7.35164 20.5332 6.99921 21.346 6.76974 21.94C6.54027 22.534 6.23718 23.4825 6.0963 24.0479C5.95553 24.6132 5.77501 25.5384 5.69532 26.1037C5.61465 26.676 5.54965 27.8637 5.54857 28.7833C5.54749 29.7812 5.60731 30.8468 5.69972 31.4755C5.78392 32.0477 5.96356 32.9565 6.09905 33.4949C6.23463 34.0334 6.50072 34.8924 6.69044 35.4039C6.88017 35.9154 7.27254 36.8089 7.56251 37.3896C7.85238 37.9701 8.33825 38.8228 8.64231 39.2844C8.94628 39.746 9.44869 40.4384 9.75883 40.8231C10.0689 41.2078 10.7349 41.9286 11.2387 42.425C11.7426 42.9213 12.4412 43.5568 12.7912 43.8371C13.1412 44.1175 13.824 44.6051 14.3086 44.9208C14.7932 45.2365 15.6743 45.7324 16.2665 46.0227C16.8588 46.313 17.8009 46.7084 18.36 46.9013C18.9191 47.0942 19.712 47.3362 20.1221 47.4391C20.5322 47.5419 21.3082 47.6921 21.8467 47.7727C22.3851 47.8534 23.2882 47.9477 23.8536 47.9822C24.4189 48.0168 25.4321 47.9994 26.1052 47.9436C26.7782 47.8877 27.7034 47.7765 28.161 47.6962C28.6187 47.616 29.4337 47.4233 29.9721 47.2681C30.5106 47.1129 31.3696 46.8205 31.8811 46.6183C32.3926 46.4163 33.1856 46.0517 33.6433 45.8083C34.1009 45.5649 34.8278 45.1362 35.2586 44.8556C35.6893 44.575 36.3281 44.1162 36.6781 43.836C37.0281 43.5559 37.7054 42.9428 38.1833 42.4736C38.6613 42.0043 39.309 41.307 39.6226 40.9241C39.9363 40.5412 40.4545 39.8363 40.774 39.3578C41.0936 38.8792 41.5974 38.0031 41.8935 37.4108C42.1897 36.8185 42.5877 35.9154 42.7779 35.4039C42.9682 34.8924 43.2346 34.0334 43.3702 33.4949C43.5057 32.9565 43.6853 32.0477 43.7695 31.4755C43.862 30.8468 43.9218 29.7812 43.9207 28.7833C43.9196 27.8622 43.855 26.682 43.7744 26.1152C43.6949 25.5561 43.5445 24.7411 43.44 24.3041C43.3356 23.8671 43.0895 23.0469 42.8933 22.4815C42.697 21.9162 42.3439 21.0449 42.1085 20.5453C41.8732 20.0457 41.4612 19.2748 41.1932 18.8321C40.925 18.3894 40.4603 17.7 40.1604 17.3002C39.8604 16.9004 39.615 16.5245 39.615 16.4648C39.615 16.405 39.8477 16.1265 40.132 15.8457C40.4164 15.5648 40.6931 15.335 40.747 15.335C40.8008 15.335 41.1063 15.5994 41.4261 15.9224C41.8199 16.3205 42.0842 16.5098 42.2458 16.5098C42.4167 16.5098 42.7545 16.2398 43.4399 15.5553C43.9656 15.0304 44.4258 14.497 44.4627 14.3703C44.5215 14.1674 44.2261 13.8355 42.0013 11.6047C40.019 9.61696 39.4194 9.06962 39.2242 9.06962C39.0387 9.06962 38.7198 9.32581 37.9734 10.0747C37.3742 10.676 36.9722 11.1579 36.9726 11.274C36.9731 11.3808 37.2375 11.7412 37.56 12.0752C37.8826 12.409 38.1465 12.744 38.1465 12.8197C38.1465 12.8952 37.9044 13.1861 37.6086 13.4659C37.2534 13.8018 37.028 13.948 36.9452 13.8961C36.8763 13.853 36.4907 13.5715 36.0882 13.2708C35.6858 12.9699 34.9723 12.4934 34.5029 12.2117C34.0334 11.93 33.1662 11.4833 32.5758 11.2189C31.9854 10.9546 31.0039 10.5875 30.3946 10.403C29.7853 10.2185 28.8904 9.99563 28.4058 9.90762C27.9212 9.81961 27.3705 9.71623 27.1821 9.67785L26.8394 9.60805V8.43329V7.25852L28.3178 7.20957C29.3666 7.17482 29.843 7.12156 29.9575 7.02631C30.0967 6.9104 30.119 6.6451 30.119 5.09833C30.119 3.35595 30.1128 3.30045 29.9013 3.15243C29.7114 3.01938 29.0556 3 24.7346 3C20.4137 3 19.7578 3.01938 19.5679 3.15243ZM28.9932 5.10479V5.98586H24.7346H20.4761L20.4472 5.2113C20.4314 4.78535 20.4412 4.37741 20.4691 4.30477C20.5107 4.1962 21.2739 4.17721 24.7565 4.19816L28.9932 4.22371V5.10479ZM25.6647 8.38434V9.51016H24.7346H23.8046L23.7765 8.48889C23.761 7.92716 23.7713 7.40782 23.7993 7.33488C23.8382 7.23346 24.0643 7.20879 24.7574 7.23033L25.6647 7.25852V8.38434ZM10.6578 10.8027C10.862 11.0021 11.029 11.2329 11.029 11.3157C11.029 11.3985 10.2035 12.2927 9.19445 13.3027C8.18543 14.3128 7.31718 15.1392 7.2651 15.1392C7.21302 15.1392 7.00332 14.9761 6.79911 14.7767C6.59489 14.5773 6.42788 14.3685 6.42788 14.3126C6.42788 14.2568 7.27547 13.3626 8.31142 12.3256C9.34747 11.2887 10.2156 10.4402 10.2408 10.4402C10.2659 10.4402 10.4536 10.6033 10.6578 10.8027ZM41.2048 12.3727C42.2149 13.3817 43.0414 14.2499 43.0414 14.302C43.0414 14.3541 42.8783 14.5638 42.6789 14.768C42.4795 14.9722 42.2706 15.1392 42.2148 15.1392C42.1589 15.1392 41.2868 14.3137 40.2768 13.3046C39.2667 12.2956 38.4402 11.4056 38.4402 11.3268C38.4402 11.2481 38.581 11.0384 38.7531 10.8609C38.9252 10.6834 39.134 10.5381 39.2172 10.5381C39.3003 10.5381 40.1948 11.3636 41.2048 12.3727ZM26.574 10.7399C27.0969 10.7971 27.9612 10.9334 28.4948 11.0427C29.0283 11.1521 29.9626 11.4133 30.571 11.623C31.1793 11.8328 32.0424 12.1783 32.4889 12.3909C32.9354 12.6034 33.6531 12.9896 34.0838 13.2489C34.5145 13.5084 35.2069 13.9765 35.6224 14.2893C36.0379 14.6021 36.7174 15.1746 37.1325 15.5615C37.5476 15.9485 38.2087 16.6509 38.6017 17.1223C38.9947 17.5939 39.5353 18.3043 39.8031 18.7011C40.0709 19.0979 40.5081 19.8355 40.7748 20.3402C41.0414 20.8449 41.4189 21.6615 41.6137 22.1548C41.8083 22.6482 42.0976 23.5513 42.2564 24.1617C42.4153 24.7722 42.6129 25.7915 42.6954 26.4269C42.778 27.0623 42.8456 28.1283 42.8456 28.7959C42.8456 29.4634 42.7795 30.5136 42.6987 31.1295C42.618 31.7456 42.4446 32.6619 42.3135 33.166C42.1823 33.67 41.935 34.4788 41.7637 34.9634C41.5925 35.448 41.276 36.1969 41.0603 36.6276C40.8448 37.0584 40.4937 37.7113 40.2802 38.0785C40.0667 38.4457 39.57 39.1726 39.1765 39.6938C38.783 40.215 38.1006 41.0047 37.6601 41.4488C37.2196 41.8927 36.5432 42.5144 36.1569 42.83C35.7705 43.1457 35.0775 43.6497 34.6169 43.95C34.1562 44.2501 33.3853 44.6945 32.9037 44.9371C32.422 45.1799 31.623 45.5349 31.128 45.7259C30.6329 45.917 29.7959 46.1834 29.268 46.318C28.7399 46.4525 27.8233 46.6342 27.231 46.7218C26.3928 46.8457 25.7203 46.8691 24.1962 46.8274C22.625 46.7846 22.0135 46.7257 21.1005 46.5297C20.4747 46.3955 19.5496 46.1481 19.0447 45.98C18.5397 45.812 17.5853 45.4138 16.9237 45.0952C16.2621 44.7766 15.337 44.2658 14.8679 43.96C14.3988 43.6542 13.7058 43.1514 13.3281 42.8427C12.9502 42.5341 12.2956 41.9345 11.8735 41.5105C11.4513 41.0863 10.8299 40.3869 10.4926 39.9561C10.1553 39.5254 9.6809 38.8646 9.43841 38.4877C9.19602 38.1108 8.7732 37.3544 8.49899 36.807C8.22478 36.2595 7.82644 35.3068 7.61381 34.6901C7.40108 34.0732 7.13842 33.1555 7.02995 32.6507C6.92158 32.1458 6.77972 31.2702 6.71482 30.7049C6.64149 30.066 6.61839 29.0841 6.65383 28.1106C6.68516 27.2491 6.77767 26.1781 6.85951 25.7306C6.94125 25.2831 7.12119 24.4924 7.25932 23.9735C7.39745 23.4545 7.66785 22.6312 7.86002 22.1439C8.05229 21.6565 8.42782 20.8449 8.69449 20.3402C8.96116 19.8355 9.39837 19.0979 9.66612 18.7011C9.93397 18.3043 10.4772 17.5939 10.8734 17.1223C11.2696 16.6509 11.8522 16.0182 12.168 15.7163C12.4839 15.4145 13.0122 14.9474 13.3422 14.678C13.6722 14.4088 14.3109 13.9437 14.7617 13.6443C15.2125 13.3451 16.0658 12.8576 16.6581 12.5611C17.2504 12.2646 18.2483 11.8455 18.8757 11.6297C19.5031 11.414 20.4723 11.1451 21.0294 11.0323C21.5866 10.9194 22.3729 10.7898 22.7767 10.7441C23.1805 10.6986 23.9862 10.6556 24.5671 10.6487C25.1481 10.6416 26.0513 10.6828 26.574 10.7399ZM22.3362 13.0251C21.9054 13.0966 21.2446 13.2329 20.8677 13.3279C20.4908 13.423 19.808 13.6316 19.3503 13.7915C18.8926 13.9514 18.0976 14.2975 17.5836 14.5606C17.0697 14.8237 16.3428 15.2432 15.9683 15.4927C15.5939 15.7424 14.9951 16.1845 14.6376 16.4751C14.2802 16.7658 13.6522 17.3548 13.2421 17.7841C12.8321 18.2133 12.2093 18.9502 11.8582 19.4216C11.5072 19.8931 10.9136 20.8956 10.5393 21.6494C10.1648 22.4032 9.74532 23.3644 9.60699 23.7852C9.46866 24.2062 9.27013 24.9596 9.16567 25.4595C9.06131 25.9595 8.92847 26.9145 8.87051 27.5817C8.79445 28.4577 8.79533 29.1349 8.87374 30.0191C8.93346 30.6924 9.08549 31.7059 9.21168 32.2712C9.33777 32.8366 9.60494 33.7397 9.80513 34.2781C10.0054 34.8165 10.3465 35.6001 10.5631 36.0194C10.7796 36.4387 11.2043 37.1516 11.5069 37.6035C11.8094 38.0554 12.3844 38.8059 12.7845 39.2713C13.1847 39.7366 13.9116 40.4526 14.3998 40.8624C14.8881 41.2721 15.6506 41.8441 16.0943 42.1334C16.538 42.4228 17.353 42.8746 17.9054 43.1375C18.4578 43.4004 19.2406 43.7258 19.645 43.8607C20.0494 43.9955 20.7944 44.1981 21.3006 44.3109C21.8068 44.4236 22.7863 44.5671 23.477 44.6297C24.4474 44.7177 25.0284 44.7164 26.031 44.624C26.7449 44.5583 27.7073 44.4207 28.1697 44.3183C28.6322 44.2159 29.3591 44.0159 29.785 43.8738C30.211 43.7317 31.0115 43.4004 31.5638 43.1375C32.1163 42.8746 32.9313 42.4228 33.3749 42.1334C33.8187 41.8441 34.5882 41.2662 35.0851 40.8493C35.5819 40.4322 36.2796 39.7523 36.6355 39.3383C36.9914 38.9243 37.516 38.2552 37.8012 37.8514C38.0865 37.4475 38.5412 36.6986 38.8115 36.1871C39.0819 35.6756 39.4663 34.8165 39.6657 34.2781C39.8651 33.7397 40.1316 32.8366 40.2579 32.2712C40.3842 31.7059 40.535 30.6926 40.5931 30.0196C40.6511 29.3465 40.6724 28.4434 40.6404 28.0127C40.6082 27.582 40.5373 26.8991 40.4825 26.4953C40.4279 26.0915 40.2751 25.3293 40.1429 24.8018C40.0109 24.2741 39.7685 23.5032 39.6044 23.0886C39.4402 22.6739 39.0625 21.8652 38.7649 21.2914C38.4674 20.7175 37.9169 19.8364 37.5413 19.3334C37.1659 18.8303 36.5427 18.0967 36.1566 17.7031C35.7704 17.3094 35.168 16.7532 34.818 16.4671C34.468 16.1811 33.8513 15.7267 33.4475 15.4576C33.0436 15.1885 32.3127 14.7675 31.8233 14.5222C31.3338 14.2768 30.4817 13.9189 29.9297 13.7268C29.3779 13.5346 28.5008 13.2854 27.9808 13.1729C27.2504 13.0149 26.5897 12.9599 25.0773 12.9317C23.7453 12.9068 22.8689 12.9367 22.3362 13.0251ZM10.9523 14.1321C11.2099 14.3858 11.4206 14.6591 11.4206 14.7393C11.4206 14.8195 11.2799 15.0305 11.1078 15.208C10.9356 15.3855 10.7499 15.5308 10.695 15.5308C10.6401 15.5308 10.3845 15.3232 10.1268 15.0695C9.86926 14.8158 9.65848 14.5426 9.65848 14.4623C9.65848 14.3821 9.79926 14.1711 9.97136 13.9936C10.1435 13.8161 10.3292 13.6708 10.3841 13.6708C10.439 13.6708 10.6946 13.8784 10.9523 14.1321ZM39.4879 13.9837C39.6655 14.1558 39.8108 14.3635 39.8108 14.4453C39.8108 14.5272 39.6031 14.8048 39.3495 15.0625C39.0957 15.3201 38.8445 15.5308 38.7912 15.5308C38.7379 15.5308 38.549 15.39 38.3715 15.2179C38.1939 15.0458 38.0486 14.8381 38.0486 14.7563C38.0486 14.6744 38.2563 14.3968 38.5099 14.1391C38.7637 13.8816 39.0149 13.6708 39.0682 13.6708C39.1215 13.6708 39.3104 13.8116 39.4879 13.9837ZM24.1472 14.9769C24.1911 15.8404 24.2202 15.9598 24.4273 16.1272C24.5544 16.2299 24.6927 16.314 24.7346 16.314C24.7765 16.314 24.9149 16.2299 25.0419 16.1272C25.2491 15.9598 25.2782 15.8404 25.322 14.9769L25.371 14.0134L26.0562 14.0415C26.4331 14.057 27.1646 14.1556 27.6817 14.2607C28.1988 14.3658 28.9698 14.5668 29.3949 14.7074C29.8201 14.848 30.5716 15.1523 31.065 15.3836C31.5584 15.6148 32.2852 16.0121 32.6803 16.2663C33.0754 16.5206 33.6959 16.9676 34.0593 17.2598C34.4227 17.5519 34.7201 17.8453 34.7201 17.9119C34.7201 17.9784 34.4338 18.3167 34.0838 18.6635C33.6071 19.136 33.4475 19.3619 33.4475 19.564C33.4475 19.7415 33.5286 19.887 33.6848 19.9893C33.8965 20.128 33.9518 20.129 34.1987 19.9992C34.3509 19.9192 34.694 19.63 34.9612 19.3564C35.2284 19.083 35.5219 18.8593 35.6135 18.8593C35.7052 18.8593 35.9986 19.1347 36.2655 19.4712C36.5325 19.8078 36.9492 20.3914 37.1916 20.7683C37.434 21.1452 37.8091 21.806 38.025 22.2368C38.2409 22.6675 38.5515 23.3997 38.7153 23.8637C38.8791 24.3279 39.1069 25.1459 39.2216 25.6815C39.3363 26.2171 39.4387 27.0048 39.4491 27.4319L39.4681 28.2085L38.4947 28.2368C37.9593 28.2523 37.4636 28.3128 37.3933 28.3711C37.323 28.4294 37.2655 28.5895 37.2655 28.7268C37.2655 28.864 37.3384 29.0568 37.4275 29.1553C37.5625 29.3045 37.7425 29.3343 38.5074 29.3343C39.2763 29.3343 39.4355 29.3609 39.4884 29.4986C39.5231 29.5888 39.4982 30.0889 39.4332 30.6096C39.3682 31.1304 39.2058 31.9706 39.0722 32.4768C38.9387 32.9829 38.6929 33.7495 38.5259 34.1802C38.3589 34.611 38.0298 35.3209 37.7948 35.7579C37.5597 36.1949 37.1199 36.8998 36.8175 37.3243C36.5151 37.7488 36.131 38.2393 35.9641 38.4143C35.7973 38.5893 35.613 38.7324 35.5547 38.7324C35.4964 38.7324 35.1649 38.4461 34.818 38.0961C34.4712 37.7461 34.1061 37.4598 34.0068 37.4598C33.9075 37.4598 33.741 37.5054 33.6368 37.5611C33.5129 37.6275 33.4475 37.7661 33.4475 37.9622C33.4475 38.1983 33.5827 38.402 34.0838 38.9211C34.4338 39.2836 34.718 39.6207 34.7153 39.6703C34.7128 39.7198 34.4723 39.9552 34.181 40.1931C33.8897 40.4312 33.3302 40.8422 32.9375 41.1064C32.545 41.3708 31.7392 41.8218 31.1469 42.1088C30.5546 42.3958 29.7163 42.7409 29.284 42.8758C28.8517 43.0106 28.1468 43.195 27.7177 43.2854C27.2885 43.3759 26.5739 43.474 26.1297 43.5034L25.322 43.557V42.6349C25.322 41.9588 25.2814 41.6549 25.1696 41.4954C25.072 41.356 24.9156 41.2778 24.7346 41.2778C24.5536 41.2778 24.3973 41.356 24.2997 41.4954C24.1879 41.6549 24.1472 41.9589 24.1472 42.6359V43.559L23.2417 43.4973C22.7436 43.4633 21.8848 43.3253 21.3333 43.1905C20.7817 43.0557 19.9417 42.7952 19.4666 42.6117C18.9914 42.4281 18.3634 42.1576 18.071 42.0106C17.7785 41.8635 17.1647 41.5003 16.7071 41.2035C16.2494 40.9067 15.6241 40.4606 15.3176 40.2121C15.0111 39.9637 14.7577 39.7198 14.7547 39.6703C14.7517 39.6207 15.0355 39.2836 15.3855 38.9211C15.8866 38.402 16.0218 38.1983 16.0218 37.9622C16.0218 37.7661 15.9564 37.6275 15.8325 37.5611C15.7283 37.5054 15.5618 37.4598 15.4625 37.4598C15.3631 37.4598 14.9981 37.7461 14.6512 38.0961C14.3044 38.4461 13.968 38.7324 13.9037 38.7324C13.8394 38.7324 13.6005 38.5231 13.3728 38.2674C13.1451 38.0116 12.6965 37.4059 12.3759 36.9213C12.0553 36.4367 11.6041 35.6438 11.3733 35.1592C11.1423 34.6746 10.8365 33.9351 10.6936 33.5159C10.5506 33.0966 10.3441 32.3257 10.2344 31.8027C10.1249 31.2796 10.0276 30.5213 10.0182 30.1175L10.0011 29.3833L10.9278 29.3549C11.613 29.3338 11.9 29.2852 12.0292 29.1684C12.1252 29.0814 12.2038 28.8903 12.2038 28.7437C12.2038 28.5971 12.1462 28.4294 12.076 28.3711C12.0057 28.3128 11.51 28.2523 10.9746 28.2368L10.0011 28.2085L10.0201 27.4319C10.0306 27.0048 10.133 26.2171 10.2476 25.6815C10.3624 25.1459 10.5902 24.3279 10.754 23.8637C10.9177 23.3997 11.2508 22.6235 11.4941 22.1389C11.7373 21.6543 12.1138 20.9935 12.3308 20.6704C12.5476 20.3474 12.942 19.8078 13.2072 19.4712C13.4723 19.1347 13.7589 18.8593 13.8442 18.8593C13.9294 18.8593 14.2959 19.1457 14.6584 19.4957C15.0209 19.8456 15.378 20.132 15.452 20.132C15.526 20.132 15.6845 20.0634 15.8042 19.9796C15.9366 19.8869 16.0218 19.7249 16.0218 19.5659C16.0218 19.3746 15.8456 19.1272 15.3624 18.6402C14.8101 18.0838 14.7201 17.948 14.8089 17.8057C14.8673 17.7121 15.2928 17.3481 15.7544 16.9966C16.2161 16.6452 16.9277 16.1667 17.3359 15.9332C17.7439 15.6997 18.4632 15.344 18.9343 15.1428C19.4054 14.9416 20.2093 14.6598 20.7209 14.5166C21.2324 14.3735 22.0474 14.1939 22.5319 14.1177C23.0165 14.0414 23.5672 13.9867 23.7557 13.9962L24.0983 14.0134L24.1472 14.9769ZM24.3862 20.8582C24.2077 20.9886 24.1933 21.1696 24.1472 23.8408L24.0983 26.6846L23.6419 26.974C23.3745 27.1435 23.0851 27.4388 22.943 27.6869C22.8098 27.92 22.6723 28.2727 22.6377 28.4709C22.603 28.6689 22.6272 29.0399 22.6915 29.2953C22.7736 29.6212 22.9421 29.8973 23.2576 30.2223C23.5459 30.5196 23.8469 30.7237 24.0983 30.7925C24.3137 30.8513 24.5915 30.8998 24.7157 30.9001C24.84 30.9004 25.1411 30.8504 25.3849 30.7891L25.8281 30.6775L28.3938 33.2365C30.4069 35.2443 31.0134 35.7955 31.2093 35.7955C31.3468 35.7955 31.5321 35.7149 31.6212 35.6165C31.7103 35.518 31.7832 35.3539 31.7832 35.2517C31.7832 35.1395 30.7581 34.0384 29.1916 32.4679L26.6 29.8697L26.7478 29.3818C26.8391 29.0801 26.8719 28.7443 26.8336 28.5022C26.7996 28.2868 26.6619 27.92 26.5277 27.6869C26.3858 27.4403 26.0931 27.1424 25.8274 26.974L25.371 26.6846L25.322 23.8408C25.276 21.1696 25.2615 20.9886 25.083 20.8582C24.9785 20.7818 24.8218 20.7194 24.7346 20.7194C24.6475 20.7194 24.4908 20.7818 24.3862 20.8582ZM25.4274 28.0541C25.6568 28.2835 25.7136 28.4255 25.7136 28.77C25.7136 29.1211 25.6591 29.2521 25.4158 29.4851C25.1904 29.7009 25.0247 29.7704 24.7346 29.7704C24.4446 29.7704 24.2788 29.7009 24.0535 29.4851C23.8102 29.2521 23.7557 29.1211 23.7557 28.77C23.7557 28.4255 23.8124 28.2835 24.0418 28.0541C24.2663 27.8297 24.4157 27.768 24.7346 27.768C25.0536 27.768 25.203 27.8297 25.4274 28.0541Z"/>
</mask>
<path fill-rule="evenodd" clip-rule="evenodd" d="M19.5679 3.15243C19.3565 3.30045 19.3503 3.35595 19.3503 5.09833C19.3503 6.6451 19.3725 6.9104 19.5117 7.02631C19.6263 7.12156 20.1026 7.17482 21.1515 7.20957L22.6298 7.25852V8.42957V9.60071L22.2872 9.67217C22.0988 9.71153 21.46 9.83654 20.8677 9.94991C20.2754 10.0634 19.2821 10.3257 18.6602 10.533C18.0384 10.7402 17.1132 11.1048 16.6044 11.3432C16.0955 11.5816 15.3267 11.9901 14.896 12.251C14.4652 12.5119 13.7835 12.9711 13.381 13.2715C12.9786 13.5719 12.5929 13.853 12.524 13.8961C12.4413 13.948 12.2159 13.8018 11.8607 13.4659C11.5648 13.1861 11.3227 12.8851 11.3227 12.797C11.3227 12.7088 11.5871 12.3752 11.9101 12.0555C12.2479 11.7213 12.4975 11.389 12.4975 11.2736C12.4975 11.1494 12.1144 10.6912 11.4924 10.0713C10.7529 9.33433 10.4224 9.06962 10.2417 9.06962C10.051 9.06962 9.43176 9.63546 7.46794 11.6047C5.24313 13.8355 4.94778 14.1674 5.00661 14.3703C5.04342 14.497 5.50364 15.0303 6.02934 15.5553C6.71472 16.2398 7.05256 16.5098 7.22349 16.5098C7.38502 16.5098 7.64934 16.3205 8.04318 15.9224C8.36292 15.5994 8.67139 15.335 8.72876 15.335C8.78612 15.335 9.06278 15.5677 9.34365 15.852C9.62451 16.1364 9.85428 16.4162 9.85428 16.4738C9.85428 16.5313 9.62872 16.8764 9.35305 17.2406C9.07737 17.6048 8.64182 18.2412 8.38524 18.655C8.12865 19.0688 7.754 19.7342 7.55282 20.1337C7.35164 20.5332 6.99921 21.346 6.76974 21.94C6.54027 22.534 6.23718 23.4825 6.0963 24.0479C5.95553 24.6132 5.77501 25.5384 5.69532 26.1037C5.61465 26.676 5.54965 27.8637 5.54857 28.7833C5.54749 29.7812 5.60731 30.8468 5.69972 31.4755C5.78392 32.0477 5.96356 32.9565 6.09905 33.4949C6.23463 34.0334 6.50072 34.8924 6.69044 35.4039C6.88017 35.9154 7.27254 36.8089 7.56251 37.3896C7.85238 37.9701 8.33825 38.8228 8.64231 39.2844C8.94628 39.746 9.44869 40.4384 9.75883 40.8231C10.0689 41.2078 10.7349 41.9286 11.2387 42.425C11.7426 42.9213 12.4412 43.5568 12.7912 43.8371C13.1412 44.1175 13.824 44.6051 14.3086 44.9208C14.7932 45.2365 15.6743 45.7324 16.2665 46.0227C16.8588 46.313 17.8009 46.7084 18.36 46.9013C18.9191 47.0942 19.712 47.3362 20.1221 47.4391C20.5322 47.5419 21.3082 47.6921 21.8467 47.7727C22.3851 47.8534 23.2882 47.9477 23.8536 47.9822C24.4189 48.0168 25.4321 47.9994 26.1052 47.9436C26.7782 47.8877 27.7034 47.7765 28.161 47.6962C28.6187 47.616 29.4337 47.4233 29.9721 47.2681C30.5106 47.1129 31.3696 46.8205 31.8811 46.6183C32.3926 46.4163 33.1856 46.0517 33.6433 45.8083C34.1009 45.5649 34.8278 45.1362 35.2586 44.8556C35.6893 44.575 36.3281 44.1162 36.6781 43.836C37.0281 43.5559 37.7054 42.9428 38.1833 42.4736C38.6613 42.0043 39.309 41.307 39.6226 40.9241C39.9363 40.5412 40.4545 39.8363 40.774 39.3578C41.0936 38.8792 41.5974 38.0031 41.8935 37.4108C42.1897 36.8185 42.5877 35.9154 42.7779 35.4039C42.9682 34.8924 43.2346 34.0334 43.3702 33.4949C43.5057 32.9565 43.6853 32.0477 43.7695 31.4755C43.862 30.8468 43.9218 29.7812 43.9207 28.7833C43.9196 27.8622 43.855 26.682 43.7744 26.1152C43.6949 25.5561 43.5445 24.7411 43.44 24.3041C43.3356 23.8671 43.0895 23.0469 42.8933 22.4815C42.697 21.9162 42.3439 21.0449 42.1085 20.5453C41.8732 20.0457 41.4612 19.2748 41.1932 18.8321C40.925 18.3894 40.4603 17.7 40.1604 17.3002C39.8604 16.9004 39.615 16.5245 39.615 16.4648C39.615 16.405 39.8477 16.1265 40.132 15.8457C40.4164 15.5648 40.6931 15.335 40.747 15.335C40.8008 15.335 41.1063 15.5994 41.4261 15.9224C41.8199 16.3205 42.0842 16.5098 42.2458 16.5098C42.4167 16.5098 42.7545 16.2398 43.4399 15.5553C43.9656 15.0304 44.4258 14.497 44.4627 14.3703C44.5215 14.1674 44.2261 13.8355 42.0013 11.6047C40.019 9.61696 39.4194 9.06962 39.2242 9.06962C39.0387 9.06962 38.7198 9.32581 37.9734 10.0747C37.3742 10.676 36.9722 11.1579 36.9726 11.274C36.9731 11.3808 37.2375 11.7412 37.56 12.0752C37.8826 12.409 38.1465 12.744 38.1465 12.8197C38.1465 12.8952 37.9044 13.1861 37.6086 13.4659C37.2534 13.8018 37.028 13.948 36.9452 13.8961C36.8763 13.853 36.4907 13.5715 36.0882 13.2708C35.6858 12.9699 34.9723 12.4934 34.5029 12.2117C34.0334 11.93 33.1662 11.4833 32.5758 11.2189C31.9854 10.9546 31.0039 10.5875 30.3946 10.403C29.7853 10.2185 28.8904 9.99563 28.4058 9.90762C27.9212 9.81961 27.3705 9.71623 27.1821 9.67785L26.8394 9.60805V8.43329V7.25852L28.3178 7.20957C29.3666 7.17482 29.843 7.12156 29.9575 7.02631C30.0967 6.9104 30.119 6.6451 30.119 5.09833C30.119 3.35595 30.1128 3.30045 29.9013 3.15243C29.7114 3.01938 29.0556 3 24.7346 3C20.4137 3 19.7578 3.01938 19.5679 3.15243ZM28.9932 5.10479V5.98586H24.7346H20.4761L20.4472 5.2113C20.4314 4.78535 20.4412 4.37741 20.4691 4.30477C20.5107 4.1962 21.2739 4.17721 24.7565 4.19816L28.9932 4.22371V5.10479ZM25.6647 8.38434V9.51016H24.7346H23.8046L23.7765 8.48889C23.761 7.92716 23.7713 7.40782 23.7993 7.33488C23.8382 7.23346 24.0643 7.20879 24.7574 7.23033L25.6647 7.25852V8.38434ZM10.6578 10.8027C10.862 11.0021 11.029 11.2329 11.029 11.3157C11.029 11.3985 10.2035 12.2927 9.19445 13.3027C8.18543 14.3128 7.31718 15.1392 7.2651 15.1392C7.21302 15.1392 7.00332 14.9761 6.79911 14.7767C6.59489 14.5773 6.42788 14.3685 6.42788 14.3126C6.42788 14.2568 7.27547 13.3626 8.31142 12.3256C9.34747 11.2887 10.2156 10.4402 10.2408 10.4402C10.2659 10.4402 10.4536 10.6033 10.6578 10.8027ZM41.2048 12.3727C42.2149 13.3817 43.0414 14.2499 43.0414 14.302C43.0414 14.3541 42.8783 14.5638 42.6789 14.768C42.4795 14.9722 42.2706 15.1392 42.2148 15.1392C42.1589 15.1392 41.2868 14.3137 40.2768 13.3046C39.2667 12.2956 38.4402 11.4056 38.4402 11.3268C38.4402 11.2481 38.581 11.0384 38.7531 10.8609C38.9252 10.6834 39.134 10.5381 39.2172 10.5381C39.3003 10.5381 40.1948 11.3636 41.2048 12.3727ZM26.574 10.7399C27.0969 10.7971 27.9612 10.9334 28.4948 11.0427C29.0283 11.1521 29.9626 11.4133 30.571 11.623C31.1793 11.8328 32.0424 12.1783 32.4889 12.3909C32.9354 12.6034 33.6531 12.9896 34.0838 13.2489C34.5145 13.5084 35.2069 13.9765 35.6224 14.2893C36.0379 14.6021 36.7174 15.1746 37.1325 15.5615C37.5476 15.9485 38.2087 16.6509 38.6017 17.1223C38.9947 17.5939 39.5353 18.3043 39.8031 18.7011C40.0709 19.0979 40.5081 19.8355 40.7748 20.3402C41.0414 20.8449 41.4189 21.6615 41.6137 22.1548C41.8083 22.6482 42.0976 23.5513 42.2564 24.1617C42.4153 24.7722 42.6129 25.7915 42.6954 26.4269C42.778 27.0623 42.8456 28.1283 42.8456 28.7959C42.8456 29.4634 42.7795 30.5136 42.6987 31.1295C42.618 31.7456 42.4446 32.6619 42.3135 33.166C42.1823 33.67 41.935 34.4788 41.7637 34.9634C41.5925 35.448 41.276 36.1969 41.0603 36.6276C40.8448 37.0584 40.4937 37.7113 40.2802 38.0785C40.0667 38.4457 39.57 39.1726 39.1765 39.6938C38.783 40.215 38.1006 41.0047 37.6601 41.4488C37.2196 41.8927 36.5432 42.5144 36.1569 42.83C35.7705 43.1457 35.0775 43.6497 34.6169 43.95C34.1562 44.2501 33.3853 44.6945 32.9037 44.9371C32.422 45.1799 31.623 45.5349 31.128 45.7259C30.6329 45.917 29.7959 46.1834 29.268 46.318C28.7399 46.4525 27.8233 46.6342 27.231 46.7218C26.3928 46.8457 25.7203 46.8691 24.1962 46.8274C22.625 46.7846 22.0135 46.7257 21.1005 46.5297C20.4747 46.3955 19.5496 46.1481 19.0447 45.98C18.5397 45.812 17.5853 45.4138 16.9237 45.0952C16.2621 44.7766 15.337 44.2658 14.8679 43.96C14.3988 43.6542 13.7058 43.1514 13.3281 42.8427C12.9502 42.5341 12.2956 41.9345 11.8735 41.5105C11.4513 41.0863 10.8299 40.3869 10.4926 39.9561C10.1553 39.5254 9.6809 38.8646 9.43841 38.4877C9.19602 38.1108 8.7732 37.3544 8.49899 36.807C8.22478 36.2595 7.82644 35.3068 7.61381 34.6901C7.40108 34.0732 7.13842 33.1555 7.02995 32.6507C6.92158 32.1458 6.77972 31.2702 6.71482 30.7049C6.64149 30.066 6.61839 29.0841 6.65383 28.1106C6.68516 27.2491 6.77767 26.1781 6.85951 25.7306C6.94125 25.2831 7.12119 24.4924 7.25932 23.9735C7.39745 23.4545 7.66785 22.6312 7.86002 22.1439C8.05229 21.6565 8.42782 20.8449 8.69449 20.3402C8.96116 19.8355 9.39837 19.0979 9.66612 18.7011C9.93397 18.3043 10.4772 17.5939 10.8734 17.1223C11.2696 16.6509 11.8522 16.0182 12.168 15.7163C12.4839 15.4145 13.0122 14.9474 13.3422 14.678C13.6722 14.4088 14.3109 13.9437 14.7617 13.6443C15.2125 13.3451 16.0658 12.8576 16.6581 12.5611C17.2504 12.2646 18.2483 11.8455 18.8757 11.6297C19.5031 11.414 20.4723 11.1451 21.0294 11.0323C21.5866 10.9194 22.3729 10.7898 22.7767 10.7441C23.1805 10.6986 23.9862 10.6556 24.5671 10.6487C25.1481 10.6416 26.0513 10.6828 26.574 10.7399ZM22.3362 13.0251C21.9054 13.0966 21.2446 13.2329 20.8677 13.3279C20.4908 13.423 19.808 13.6316 19.3503 13.7915C18.8926 13.9514 18.0976 14.2975 17.5836 14.5606C17.0697 14.8237 16.3428 15.2432 15.9683 15.4927C15.5939 15.7424 14.9951 16.1845 14.6376 16.4751C14.2802 16.7658 13.6522 17.3548 13.2421 17.7841C12.8321 18.2133 12.2093 18.9502 11.8582 19.4216C11.5072 19.8931 10.9136 20.8956 10.5393 21.6494C10.1648 22.4032 9.74532 23.3644 9.60699 23.7852C9.46866 24.2062 9.27013 24.9596 9.16567 25.4595C9.06131 25.9595 8.92847 26.9145 8.87051 27.5817C8.79445 28.4577 8.79533 29.1349 8.87374 30.0191C8.93346 30.6924 9.08549 31.7059 9.21168 32.2712C9.33777 32.8366 9.60494 33.7397 9.80513 34.2781C10.0054 34.8165 10.3465 35.6001 10.5631 36.0194C10.7796 36.4387 11.2043 37.1516 11.5069 37.6035C11.8094 38.0554 12.3844 38.8059 12.7845 39.2713C13.1847 39.7366 13.9116 40.4526 14.3998 40.8624C14.8881 41.2721 15.6506 41.8441 16.0943 42.1334C16.538 42.4228 17.353 42.8746 17.9054 43.1375C18.4578 43.4004 19.2406 43.7258 19.645 43.8607C20.0494 43.9955 20.7944 44.1981 21.3006 44.3109C21.8068 44.4236 22.7863 44.5671 23.477 44.6297C24.4474 44.7177 25.0284 44.7164 26.031 44.624C26.7449 44.5583 27.7073 44.4207 28.1697 44.3183C28.6322 44.2159 29.3591 44.0159 29.785 43.8738C30.211 43.7317 31.0115 43.4004 31.5638 43.1375C32.1163 42.8746 32.9313 42.4228 33.3749 42.1334C33.8187 41.8441 34.5882 41.2662 35.0851 40.8493C35.5819 40.4322 36.2796 39.7523 36.6355 39.3383C36.9914 38.9243 37.516 38.2552 37.8012 37.8514C38.0865 37.4475 38.5412 36.6986 38.8115 36.1871C39.0819 35.6756 39.4663 34.8165 39.6657 34.2781C39.8651 33.7397 40.1316 32.8366 40.2579 32.2712C40.3842 31.7059 40.535 30.6926 40.5931 30.0196C40.6511 29.3465 40.6724 28.4434 40.6404 28.0127C40.6082 27.582 40.5373 26.8991 40.4825 26.4953C40.4279 26.0915 40.2751 25.3293 40.1429 24.8018C40.0109 24.2741 39.7685 23.5032 39.6044 23.0886C39.4402 22.6739 39.0625 21.8652 38.7649 21.2914C38.4674 20.7175 37.9169 19.8364 37.5413 19.3334C37.1659 18.8303 36.5427 18.0967 36.1566 17.7031C35.7704 17.3094 35.168 16.7532 34.818 16.4671C34.468 16.1811 33.8513 15.7267 33.4475 15.4576C33.0436 15.1885 32.3127 14.7675 31.8233 14.5222C31.3338 14.2768 30.4817 13.9189 29.9297 13.7268C29.3779 13.5346 28.5008 13.2854 27.9808 13.1729C27.2504 13.0149 26.5897 12.9599 25.0773 12.9317C23.7453 12.9068 22.8689 12.9367 22.3362 13.0251ZM10.9523 14.1321C11.2099 14.3858 11.4206 14.6591 11.4206 14.7393C11.4206 14.8195 11.2799 15.0305 11.1078 15.208C10.9356 15.3855 10.7499 15.5308 10.695 15.5308C10.6401 15.5308 10.3845 15.3232 10.1268 15.0695C9.86926 14.8158 9.65848 14.5426 9.65848 14.4623C9.65848 14.3821 9.79926 14.1711 9.97136 13.9936C10.1435 13.8161 10.3292 13.6708 10.3841 13.6708C10.439 13.6708 10.6946 13.8784 10.9523 14.1321ZM39.4879 13.9837C39.6655 14.1558 39.8108 14.3635 39.8108 14.4453C39.8108 14.5272 39.6031 14.8048 39.3495 15.0625C39.0957 15.3201 38.8445 15.5308 38.7912 15.5308C38.7379 15.5308 38.549 15.39 38.3715 15.2179C38.1939 15.0458 38.0486 14.8381 38.0486 14.7563C38.0486 14.6744 38.2563 14.3968 38.5099 14.1391C38.7637 13.8816 39.0149 13.6708 39.0682 13.6708C39.1215 13.6708 39.3104 13.8116 39.4879 13.9837ZM24.1472 14.9769C24.1911 15.8404 24.2202 15.9598 24.4273 16.1272C24.5544 16.2299 24.6927 16.314 24.7346 16.314C24.7765 16.314 24.9149 16.2299 25.0419 16.1272C25.2491 15.9598 25.2782 15.8404 25.322 14.9769L25.371 14.0134L26.0562 14.0415C26.4331 14.057 27.1646 14.1556 27.6817 14.2607C28.1988 14.3658 28.9698 14.5668 29.3949 14.7074C29.8201 14.848 30.5716 15.1523 31.065 15.3836C31.5584 15.6148 32.2852 16.0121 32.6803 16.2663C33.0754 16.5206 33.6959 16.9676 34.0593 17.2598C34.4227 17.5519 34.7201 17.8453 34.7201 17.9119C34.7201 17.9784 34.4338 18.3167 34.0838 18.6635C33.6071 19.136 33.4475 19.3619 33.4475 19.564C33.4475 19.7415 33.5286 19.887 33.6848 19.9893C33.8965 20.128 33.9518 20.129 34.1987 19.9992C34.3509 19.9192 34.694 19.63 34.9612 19.3564C35.2284 19.083 35.5219 18.8593 35.6135 18.8593C35.7052 18.8593 35.9986 19.1347 36.2655 19.4712C36.5325 19.8078 36.9492 20.3914 37.1916 20.7683C37.434 21.1452 37.8091 21.806 38.025 22.2368C38.2409 22.6675 38.5515 23.3997 38.7153 23.8637C38.8791 24.3279 39.1069 25.1459 39.2216 25.6815C39.3363 26.2171 39.4387 27.0048 39.4491 27.4319L39.4681 28.2085L38.4947 28.2368C37.9593 28.2523 37.4636 28.3128 37.3933 28.3711C37.323 28.4294 37.2655 28.5895 37.2655 28.7268C37.2655 28.864 37.3384 29.0568 37.4275 29.1553C37.5625 29.3045 37.7425 29.3343 38.5074 29.3343C39.2763 29.3343 39.4355 29.3609 39.4884 29.4986C39.5231 29.5888 39.4982 30.0889 39.4332 30.6096C39.3682 31.1304 39.2058 31.9706 39.0722 32.4768C38.9387 32.9829 38.6929 33.7495 38.5259 34.1802C38.3589 34.611 38.0298 35.3209 37.7948 35.7579C37.5597 36.1949 37.1199 36.8998 36.8175 37.3243C36.5151 37.7488 36.131 38.2393 35.9641 38.4143C35.7973 38.5893 35.613 38.7324 35.5547 38.7324C35.4964 38.7324 35.1649 38.4461 34.818 38.0961C34.4712 37.7461 34.1061 37.4598 34.0068 37.4598C33.9075 37.4598 33.741 37.5054 33.6368 37.5611C33.5129 37.6275 33.4475 37.7661 33.4475 37.9622C33.4475 38.1983 33.5827 38.402 34.0838 38.9211C34.4338 39.2836 34.718 39.6207 34.7153 39.6703C34.7128 39.7198 34.4723 39.9552 34.181 40.1931C33.8897 40.4312 33.3302 40.8422 32.9375 41.1064C32.545 41.3708 31.7392 41.8218 31.1469 42.1088C30.5546 42.3958 29.7163 42.7409 29.284 42.8758C28.8517 43.0106 28.1468 43.195 27.7177 43.2854C27.2885 43.3759 26.5739 43.474 26.1297 43.5034L25.322 43.557V42.6349C25.322 41.9588 25.2814 41.6549 25.1696 41.4954C25.072 41.356 24.9156 41.2778 24.7346 41.2778C24.5536 41.2778 24.3973 41.356 24.2997 41.4954C24.1879 41.6549 24.1472 41.9589 24.1472 42.6359V43.559L23.2417 43.4973C22.7436 43.4633 21.8848 43.3253 21.3333 43.1905C20.7817 43.0557 19.9417 42.7952 19.4666 42.6117C18.9914 42.4281 18.3634 42.1576 18.071 42.0106C17.7785 41.8635 17.1647 41.5003 16.7071 41.2035C16.2494 40.9067 15.6241 40.4606 15.3176 40.2121C15.0111 39.9637 14.7577 39.7198 14.7547 39.6703C14.7517 39.6207 15.0355 39.2836 15.3855 38.9211C15.8866 38.402 16.0218 38.1983 16.0218 37.9622C16.0218 37.7661 15.9564 37.6275 15.8325 37.5611C15.7283 37.5054 15.5618 37.4598 15.4625 37.4598C15.3631 37.4598 14.9981 37.7461 14.6512 38.0961C14.3044 38.4461 13.968 38.7324 13.9037 38.7324C13.8394 38.7324 13.6005 38.5231 13.3728 38.2674C13.1451 38.0116 12.6965 37.4059 12.3759 36.9213C12.0553 36.4367 11.6041 35.6438 11.3733 35.1592C11.1423 34.6746 10.8365 33.9351 10.6936 33.5159C10.5506 33.0966 10.3441 32.3257 10.2344 31.8027C10.1249 31.2796 10.0276 30.5213 10.0182 30.1175L10.0011 29.3833L10.9278 29.3549C11.613 29.3338 11.9 29.2852 12.0292 29.1684C12.1252 29.0814 12.2038 28.8903 12.2038 28.7437C12.2038 28.5971 12.1462 28.4294 12.076 28.3711C12.0057 28.3128 11.51 28.2523 10.9746 28.2368L10.0011 28.2085L10.0201 27.4319C10.0306 27.0048 10.133 26.2171 10.2476 25.6815C10.3624 25.1459 10.5902 24.3279 10.754 23.8637C10.9177 23.3997 11.2508 22.6235 11.4941 22.1389C11.7373 21.6543 12.1138 20.9935 12.3308 20.6704C12.5476 20.3474 12.942 19.8078 13.2072 19.4712C13.4723 19.1347 13.7589 18.8593 13.8442 18.8593C13.9294 18.8593 14.2959 19.1457 14.6584 19.4957C15.0209 19.8456 15.378 20.132 15.452 20.132C15.526 20.132 15.6845 20.0634 15.8042 19.9796C15.9366 19.8869 16.0218 19.7249 16.0218 19.5659C16.0218 19.3746 15.8456 19.1272 15.3624 18.6402C14.8101 18.0838 14.7201 17.948 14.8089 17.8057C14.8673 17.7121 15.2928 17.3481 15.7544 16.9966C16.2161 16.6452 16.9277 16.1667 17.3359 15.9332C17.7439 15.6997 18.4632 15.344 18.9343 15.1428C19.4054 14.9416 20.2093 14.6598 20.7209 14.5166C21.2324 14.3735 22.0474 14.1939 22.5319 14.1177C23.0165 14.0414 23.5672 13.9867 23.7557 13.9962L24.0983 14.0134L24.1472 14.9769ZM24.3862 20.8582C24.2077 20.9886 24.1933 21.1696 24.1472 23.8408L24.0983 26.6846L23.6419 26.974C23.3745 27.1435 23.0851 27.4388 22.943 27.6869C22.8098 27.92 22.6723 28.2727 22.6377 28.4709C22.603 28.6689 22.6272 29.0399 22.6915 29.2953C22.7736 29.6212 22.9421 29.8973 23.2576 30.2223C23.5459 30.5196 23.8469 30.7237 24.0983 30.7925C24.3137 30.8513 24.5915 30.8998 24.7157 30.9001C24.84 30.9004 25.1411 30.8504 25.3849 30.7891L25.8281 30.6775L28.3938 33.2365C30.4069 35.2443 31.0134 35.7955 31.2093 35.7955C31.3468 35.7955 31.5321 35.7149 31.6212 35.6165C31.7103 35.518 31.7832 35.3539 31.7832 35.2517C31.7832 35.1395 30.7581 34.0384 29.1916 32.4679L26.6 29.8697L26.7478 29.3818C26.8391 29.0801 26.8719 28.7443 26.8336 28.5022C26.7996 28.2868 26.6619 27.92 26.5277 27.6869C26.3858 27.4403 26.0931 27.1424 25.8274 26.974L25.371 26.6846L25.322 23.8408C25.276 21.1696 25.2615 20.9886 25.083 20.8582C24.9785 20.7818 24.8218 20.7194 24.7346 20.7194C24.6475 20.7194 24.4908 20.7818 24.3862 20.8582ZM25.4274 28.0541C25.6568 28.2835 25.7136 28.4255 25.7136 28.77C25.7136 29.1211 25.6591 29.2521 25.4158 29.4851C25.1904 29.7009 25.0247 29.7704 24.7346 29.7704C24.4446 29.7704 24.2788 29.7009 24.0535 29.4851C23.8102 29.2521 23.7557 29.1211 23.7557 28.77C23.7557 28.4255 23.8124 28.2835 24.0418 28.0541C24.2663 27.8297 24.4157 27.768 24.7346 27.768C25.0536 27.768 25.203 27.8297 25.4274 28.0541Z" fill="white"/>
<path fill-rule="evenodd" clip-rule="evenodd" d="M19.5679 3.15243C19.3565 3.30045 19.3503 3.35595 19.3503 5.09833C19.3503 6.6451 19.3725 6.9104 19.5117 7.02631C19.6263 7.12156 20.1026 7.17482 21.1515 7.20957L22.6298 7.25852V8.42957V9.60071L22.2872 9.67217C22.0988 9.71153 21.46 9.83654 20.8677 9.94991C20.2754 10.0634 19.2821 10.3257 18.6602 10.533C18.0384 10.7402 17.1132 11.1048 16.6044 11.3432C16.0955 11.5816 15.3267 11.9901 14.896 12.251C14.4652 12.5119 13.7835 12.9711 13.381 13.2715C12.9786 13.5719 12.5929 13.853 12.524 13.8961C12.4413 13.948 12.2159 13.8018 11.8607 13.4659C11.5648 13.1861 11.3227 12.8851 11.3227 12.797C11.3227 12.7088 11.5871 12.3752 11.9101 12.0555C12.2479 11.7213 12.4975 11.389 12.4975 11.2736C12.4975 11.1494 12.1144 10.6912 11.4924 10.0713C10.7529 9.33433 10.4224 9.06962 10.2417 9.06962C10.051 9.06962 9.43176 9.63546 7.46794 11.6047C5.24313 13.8355 4.94778 14.1674 5.00661 14.3703C5.04342 14.497 5.50364 15.0303 6.02934 15.5553C6.71472 16.2398 7.05256 16.5098 7.22349 16.5098C7.38502 16.5098 7.64934 16.3205 8.04318 15.9224C8.36292 15.5994 8.67139 15.335 8.72876 15.335C8.78612 15.335 9.06278 15.5677 9.34365 15.852C9.62451 16.1364 9.85428 16.4162 9.85428 16.4738C9.85428 16.5313 9.62872 16.8764 9.35305 17.2406C9.07737 17.6048 8.64182 18.2412 8.38524 18.655C8.12865 19.0688 7.754 19.7342 7.55282 20.1337C7.35164 20.5332 6.99921 21.346 6.76974 21.94C6.54027 22.534 6.23718 23.4825 6.0963 24.0479C5.95553 24.6132 5.77501 25.5384 5.69532 26.1037C5.61465 26.676 5.54965 27.8637 5.54857 28.7833C5.54749 29.7812 5.60731 30.8468 5.69972 31.4755C5.78392 32.0477 5.96356 32.9565 6.09905 33.4949C6.23463 34.0334 6.50072 34.8924 6.69044 35.4039C6.88017 35.9154 7.27254 36.8089 7.56251 37.3896C7.85238 37.9701 8.33825 38.8228 8.64231 39.2844C8.94628 39.746 9.44869 40.4384 9.75883 40.8231C10.0689 41.2078 10.7349 41.9286 11.2387 42.425C11.7426 42.9213 12.4412 43.5568 12.7912 43.8371C13.1412 44.1175 13.824 44.6051 14.3086 44.9208C14.7932 45.2365 15.6743 45.7324 16.2665 46.0227C16.8588 46.313 17.8009 46.7084 18.36 46.9013C18.9191 47.0942 19.712 47.3362 20.1221 47.4391C20.5322 47.5419 21.3082 47.6921 21.8467 47.7727C22.3851 47.8534 23.2882 47.9477 23.8536 47.9822C24.4189 48.0168 25.4321 47.9994 26.1052 47.9436C26.7782 47.8877 27.7034 47.7765 28.161 47.6962C28.6187 47.616 29.4337 47.4233 29.9721 47.2681C30.5106 47.1129 31.3696 46.8205 31.8811 46.6183C32.3926 46.4163 33.1856 46.0517 33.6433 45.8083C34.1009 45.5649 34.8278 45.1362 35.2586 44.8556C35.6893 44.575 36.3281 44.1162 36.6781 43.836C37.0281 43.5559 37.7054 42.9428 38.1833 42.4736C38.6613 42.0043 39.309 41.307 39.6226 40.9241C39.9363 40.5412 40.4545 39.8363 40.774 39.3578C41.0936 38.8792 41.5974 38.0031 41.8935 37.4108C42.1897 36.8185 42.5877 35.9154 42.7779 35.4039C42.9682 34.8924 43.2346 34.0334 43.3702 33.4949C43.5057 32.9565 43.6853 32.0477 43.7695 31.4755C43.862 30.8468 43.9218 29.7812 43.9207 28.7833C43.9196 27.8622 43.855 26.682 43.7744 26.1152C43.6949 25.5561 43.5445 24.7411 43.44 24.3041C43.3356 23.8671 43.0895 23.0469 42.8933 22.4815C42.697 21.9162 42.3439 21.0449 42.1085 20.5453C41.8732 20.0457 41.4612 19.2748 41.1932 18.8321C40.925 18.3894 40.4603 17.7 40.1604 17.3002C39.8604 16.9004 39.615 16.5245 39.615 16.4648C39.615 16.405 39.8477 16.1265 40.132 15.8457C40.4164 15.5648 40.6931 15.335 40.747 15.335C40.8008 15.335 41.1063 15.5994 41.4261 15.9224C41.8199 16.3205 42.0842 16.5098 42.2458 16.5098C42.4167 16.5098 42.7545 16.2398 43.4399 15.5553C43.9656 15.0304 44.4258 14.497 44.4627 14.3703C44.5215 14.1674 44.2261 13.8355 42.0013 11.6047C40.019 9.61696 39.4194 9.06962 39.2242 9.06962C39.0387 9.06962 38.7198 9.32581 37.9734 10.0747C37.3742 10.676 36.9722 11.1579 36.9726 11.274C36.9731 11.3808 37.2375 11.7412 37.56 12.0752C37.8826 12.409 38.1465 12.744 38.1465 12.8197C38.1465 12.8952 37.9044 13.1861 37.6086 13.4659C37.2534 13.8018 37.028 13.948 36.9452 13.8961C36.8763 13.853 36.4907 13.5715 36.0882 13.2708C35.6858 12.9699 34.9723 12.4934 34.5029 12.2117C34.0334 11.93 33.1662 11.4833 32.5758 11.2189C31.9854 10.9546 31.0039 10.5875 30.3946 10.403C29.7853 10.2185 28.8904 9.99563 28.4058 9.90762C27.9212 9.81961 27.3705 9.71623 27.1821 9.67785L26.8394 9.60805V8.43329V7.25852L28.3178 7.20957C29.3666 7.17482 29.843 7.12156 29.9575 7.02631C30.0967 6.9104 30.119 6.6451 30.119 5.09833C30.119 3.35595 30.1128 3.30045 29.9013 3.15243C29.7114 3.01938 29.0556 3 24.7346 3C20.4137 3 19.7578 3.01938 19.5679 3.15243ZM28.9932 5.10479V5.98586H24.7346H20.4761L20.4472 5.2113C20.4314 4.78535 20.4412 4.37741 20.4691 4.30477C20.5107 4.1962 21.2739 4.17721 24.7565 4.19816L28.9932 4.22371V5.10479ZM25.6647 8.38434V9.51016H24.7346H23.8046L23.7765 8.48889C23.761 7.92716 23.7713 7.40782 23.7993 7.33488C23.8382 7.23346 24.0643 7.20879 24.7574 7.23033L25.6647 7.25852V8.38434ZM10.6578 10.8027C10.862 11.0021 11.029 11.2329 11.029 11.3157C11.029 11.3985 10.2035 12.2927 9.19445 13.3027C8.18543 14.3128 7.31718 15.1392 7.2651 15.1392C7.21302 15.1392 7.00332 14.9761 6.79911 14.7767C6.59489 14.5773 6.42788 14.3685 6.42788 14.3126C6.42788 14.2568 7.27547 13.3626 8.31142 12.3256C9.34747 11.2887 10.2156 10.4402 10.2408 10.4402C10.2659 10.4402 10.4536 10.6033 10.6578 10.8027ZM41.2048 12.3727C42.2149 13.3817 43.0414 14.2499 43.0414 14.302C43.0414 14.3541 42.8783 14.5638 42.6789 14.768C42.4795 14.9722 42.2706 15.1392 42.2148 15.1392C42.1589 15.1392 41.2868 14.3137 40.2768 13.3046C39.2667 12.2956 38.4402 11.4056 38.4402 11.3268C38.4402 11.2481 38.581 11.0384 38.7531 10.8609C38.9252 10.6834 39.134 10.5381 39.2172 10.5381C39.3003 10.5381 40.1948 11.3636 41.2048 12.3727ZM26.574 10.7399C27.0969 10.7971 27.9612 10.9334 28.4948 11.0427C29.0283 11.1521 29.9626 11.4133 30.571 11.623C31.1793 11.8328 32.0424 12.1783 32.4889 12.3909C32.9354 12.6034 33.6531 12.9896 34.0838 13.2489C34.5145 13.5084 35.2069 13.9765 35.6224 14.2893C36.0379 14.6021 36.7174 15.1746 37.1325 15.5615C37.5476 15.9485 38.2087 16.6509 38.6017 17.1223C38.9947 17.5939 39.5353 18.3043 39.8031 18.7011C40.0709 19.0979 40.5081 19.8355 40.7748 20.3402C41.0414 20.8449 41.4189 21.6615 41.6137 22.1548C41.8083 22.6482 42.0976 23.5513 42.2564 24.1617C42.4153 24.7722 42.6129 25.7915 42.6954 26.4269C42.778 27.0623 42.8456 28.1283 42.8456 28.7959C42.8456 29.4634 42.7795 30.5136 42.6987 31.1295C42.618 31.7456 42.4446 32.6619 42.3135 33.166C42.1823 33.67 41.935 34.4788 41.7637 34.9634C41.5925 35.448 41.276 36.1969 41.0603 36.6276C40.8448 37.0584 40.4937 37.7113 40.2802 38.0785C40.0667 38.4457 39.57 39.1726 39.1765 39.6938C38.783 40.215 38.1006 41.0047 37.6601 41.4488C37.2196 41.8927 36.5432 42.5144 36.1569 42.83C35.7705 43.1457 35.0775 43.6497 34.6169 43.95C34.1562 44.2501 33.3853 44.6945 32.9037 44.9371C32.422 45.1799 31.623 45.5349 31.128 45.7259C30.6329 45.917 29.7959 46.1834 29.268 46.318C28.7399 46.4525 27.8233 46.6342 27.231 46.7218C26.3928 46.8457 25.7203 46.8691 24.1962 46.8274C22.625 46.7846 22.0135 46.7257 21.1005 46.5297C20.4747 46.3955 19.5496 46.1481 19.0447 45.98C18.5397 45.812 17.5853 45.4138 16.9237 45.0952C16.2621 44.7766 15.337 44.2658 14.8679 43.96C14.3988 43.6542 13.7058 43.1514 13.3281 42.8427C12.9502 42.5341 12.2956 41.9345 11.8735 41.5105C11.4513 41.0863 10.8299 40.3869 10.4926 39.9561C10.1553 39.5254 9.6809 38.8646 9.43841 38.4877C9.19602 38.1108 8.7732 37.3544 8.49899 36.807C8.22478 36.2595 7.82644 35.3068 7.61381 34.6901C7.40108 34.0732 7.13842 33.1555 7.02995 32.6507C6.92158 32.1458 6.77972 31.2702 6.71482 30.7049C6.64149 30.066 6.61839 29.0841 6.65383 28.1106C6.68516 27.2491 6.77767 26.1781 6.85951 25.7306C6.94125 25.2831 7.12119 24.4924 7.25932 23.9735C7.39745 23.4545 7.66785 22.6312 7.86002 22.1439C8.05229 21.6565 8.42782 20.8449 8.69449 20.3402C8.96116 19.8355 9.39837 19.0979 9.66612 18.7011C9.93397 18.3043 10.4772 17.5939 10.8734 17.1223C11.2696 16.6509 11.8522 16.0182 12.168 15.7163C12.4839 15.4145 13.0122 14.9474 13.3422 14.678C13.6722 14.4088 14.3109 13.9437 14.7617 13.6443C15.2125 13.3451 16.0658 12.8576 16.6581 12.5611C17.2504 12.2646 18.2483 11.8455 18.8757 11.6297C19.5031 11.414 20.4723 11.1451 21.0294 11.0323C21.5866 10.9194 22.3729 10.7898 22.7767 10.7441C23.1805 10.6986 23.9862 10.6556 24.5671 10.6487C25.1481 10.6416 26.0513 10.6828 26.574 10.7399ZM22.3362 13.0251C21.9054 13.0966 21.2446 13.2329 20.8677 13.3279C20.4908 13.423 19.808 13.6316 19.3503 13.7915C18.8926 13.9514 18.0976 14.2975 17.5836 14.5606C17.0697 14.8237 16.3428 15.2432 15.9683 15.4927C15.5939 15.7424 14.9951 16.1845 14.6376 16.4751C14.2802 16.7658 13.6522 17.3548 13.2421 17.7841C12.8321 18.2133 12.2093 18.9502 11.8582 19.4216C11.5072 19.8931 10.9136 20.8956 10.5393 21.6494C10.1648 22.4032 9.74532 23.3644 9.60699 23.7852C9.46866 24.2062 9.27013 24.9596 9.16567 25.4595C9.06131 25.9595 8.92847 26.9145 8.87051 27.5817C8.79445 28.4577 8.79533 29.1349 8.87374 30.0191C8.93346 30.6924 9.08549 31.7059 9.21168 32.2712C9.33777 32.8366 9.60494 33.7397 9.80513 34.2781C10.0054 34.8165 10.3465 35.6001 10.5631 36.0194C10.7796 36.4387 11.2043 37.1516 11.5069 37.6035C11.8094 38.0554 12.3844 38.8059 12.7845 39.2713C13.1847 39.7366 13.9116 40.4526 14.3998 40.8624C14.8881 41.2721 15.6506 41.8441 16.0943 42.1334C16.538 42.4228 17.353 42.8746 17.9054 43.1375C18.4578 43.4004 19.2406 43.7258 19.645 43.8607C20.0494 43.9955 20.7944 44.1981 21.3006 44.3109C21.8068 44.4236 22.7863 44.5671 23.477 44.6297C24.4474 44.7177 25.0284 44.7164 26.031 44.624C26.7449 44.5583 27.7073 44.4207 28.1697 44.3183C28.6322 44.2159 29.3591 44.0159 29.785 43.8738C30.211 43.7317 31.0115 43.4004 31.5638 43.1375C32.1163 42.8746 32.9313 42.4228 33.3749 42.1334C33.8187 41.8441 34.5882 41.2662 35.0851 40.8493C35.5819 40.4322 36.2796 39.7523 36.6355 39.3383C36.9914 38.9243 37.516 38.2552 37.8012 37.8514C38.0865 37.4475 38.5412 36.6986 38.8115 36.1871C39.0819 35.6756 39.4663 34.8165 39.6657 34.2781C39.8651 33.7397 40.1316 32.8366 40.2579 32.2712C40.3842 31.7059 40.535 30.6926 40.5931 30.0196C40.6511 29.3465 40.6724 28.4434 40.6404 28.0127C40.6082 27.582 40.5373 26.8991 40.4825 26.4953C40.4279 26.0915 40.2751 25.3293 40.1429 24.8018C40.0109 24.2741 39.7685 23.5032 39.6044 23.0886C39.4402 22.6739 39.0625 21.8652 38.7649 21.2914C38.4674 20.7175 37.9169 19.8364 37.5413 19.3334C37.1659 18.8303 36.5427 18.0967 36.1566 17.7031C35.7704 17.3094 35.168 16.7532 34.818 16.4671C34.468 16.1811 33.8513 15.7267 33.4475 15.4576C33.0436 15.1885 32.3127 14.7675 31.8233 14.5222C31.3338 14.2768 30.4817 13.9189 29.9297 13.7268C29.3779 13.5346 28.5008 13.2854 27.9808 13.1729C27.2504 13.0149 26.5897 12.9599 25.0773 12.9317C23.7453 12.9068 22.8689 12.9367 22.3362 13.0251ZM10.9523 14.1321C11.2099 14.3858 11.4206 14.6591 11.4206 14.7393C11.4206 14.8195 11.2799 15.0305 11.1078 15.208C10.9356 15.3855 10.7499 15.5308 10.695 15.5308C10.6401 15.5308 10.3845 15.3232 10.1268 15.0695C9.86926 14.8158 9.65848 14.5426 9.65848 14.4623C9.65848 14.3821 9.79926 14.1711 9.97136 13.9936C10.1435 13.8161 10.3292 13.6708 10.3841 13.6708C10.439 13.6708 10.6946 13.8784 10.9523 14.1321ZM39.4879 13.9837C39.6655 14.1558 39.8108 14.3635 39.8108 14.4453C39.8108 14.5272 39.6031 14.8048 39.3495 15.0625C39.0957 15.3201 38.8445 15.5308 38.7912 15.5308C38.7379 15.5308 38.549 15.39 38.3715 15.2179C38.1939 15.0458 38.0486 14.8381 38.0486 14.7563C38.0486 14.6744 38.2563 14.3968 38.5099 14.1391C38.7637 13.8816 39.0149 13.6708 39.0682 13.6708C39.1215 13.6708 39.3104 13.8116 39.4879 13.9837ZM24.1472 14.9769C24.1911 15.8404 24.2202 15.9598 24.4273 16.1272C24.5544 16.2299 24.6927 16.314 24.7346 16.314C24.7765 16.314 24.9149 16.2299 25.0419 16.1272C25.2491 15.9598 25.2782 15.8404 25.322 14.9769L25.371 14.0134L26.0562 14.0415C26.4331 14.057 27.1646 14.1556 27.6817 14.2607C28.1988 14.3658 28.9698 14.5668 29.3949 14.7074C29.8201 14.848 30.5716 15.1523 31.065 15.3836C31.5584 15.6148 32.2852 16.0121 32.6803 16.2663C33.0754 16.5206 33.6959 16.9676 34.0593 17.2598C34.4227 17.5519 34.7201 17.8453 34.7201 17.9119C34.7201 17.9784 34.4338 18.3167 34.0838 18.6635C33.6071 19.136 33.4475 19.3619 33.4475 19.564C33.4475 19.7415 33.5286 19.887 33.6848 19.9893C33.8965 20.128 33.9518 20.129 34.1987 19.9992C34.3509 19.9192 34.694 19.63 34.9612 19.3564C35.2284 19.083 35.5219 18.8593 35.6135 18.8593C35.7052 18.8593 35.9986 19.1347 36.2655 19.4712C36.5325 19.8078 36.9492 20.3914 37.1916 20.7683C37.434 21.1452 37.8091 21.806 38.025 22.2368C38.2409 22.6675 38.5515 23.3997 38.7153 23.8637C38.8791 24.3279 39.1069 25.1459 39.2216 25.6815C39.3363 26.2171 39.4387 27.0048 39.4491 27.4319L39.4681 28.2085L38.4947 28.2368C37.9593 28.2523 37.4636 28.3128 37.3933 28.3711C37.323 28.4294 37.2655 28.5895 37.2655 28.7268C37.2655 28.864 37.3384 29.0568 37.4275 29.1553C37.5625 29.3045 37.7425 29.3343 38.5074 29.3343C39.2763 29.3343 39.4355 29.3609 39.4884 29.4986C39.5231 29.5888 39.4982 30.0889 39.4332 30.6096C39.3682 31.1304 39.2058 31.9706 39.0722 32.4768C38.9387 32.9829 38.6929 33.7495 38.5259 34.1802C38.3589 34.611 38.0298 35.3209 37.7948 35.7579C37.5597 36.1949 37.1199 36.8998 36.8175 37.3243C36.5151 37.7488 36.131 38.2393 35.9641 38.4143C35.7973 38.5893 35.613 38.7324 35.5547 38.7324C35.4964 38.7324 35.1649 38.4461 34.818 38.0961C34.4712 37.7461 34.1061 37.4598 34.0068 37.4598C33.9075 37.4598 33.741 37.5054 33.6368 37.5611C33.5129 37.6275 33.4475 37.7661 33.4475 37.9622C33.4475 38.1983 33.5827 38.402 34.0838 38.9211C34.4338 39.2836 34.718 39.6207 34.7153 39.6703C34.7128 39.7198 34.4723 39.9552 34.181 40.1931C33.8897 40.4312 33.3302 40.8422 32.9375 41.1064C32.545 41.3708 31.7392 41.8218 31.1469 42.1088C30.5546 42.3958 29.7163 42.7409 29.284 42.8758C28.8517 43.0106 28.1468 43.195 27.7177 43.2854C27.2885 43.3759 26.5739 43.474 26.1297 43.5034L25.322 43.557V42.6349C25.322 41.9588 25.2814 41.6549 25.1696 41.4954C25.072 41.356 24.9156 41.2778 24.7346 41.2778C24.5536 41.2778 24.3973 41.356 24.2997 41.4954C24.1879 41.6549 24.1472 41.9589 24.1472 42.6359V43.559L23.2417 43.4973C22.7436 43.4633 21.8848 43.3253 21.3333 43.1905C20.7817 43.0557 19.9417 42.7952 19.4666 42.6117C18.9914 42.4281 18.3634 42.1576 18.071 42.0106C17.7785 41.8635 17.1647 41.5003 16.7071 41.2035C16.2494 40.9067 15.6241 40.4606 15.3176 40.2121C15.0111 39.9637 14.7577 39.7198 14.7547 39.6703C14.7517 39.6207 15.0355 39.2836 15.3855 38.9211C15.8866 38.402 16.0218 38.1983 16.0218 37.9622C16.0218 37.7661 15.9564 37.6275 15.8325 37.5611C15.7283 37.5054 15.5618 37.4598 15.4625 37.4598C15.3631 37.4598 14.9981 37.7461 14.6512 38.0961C14.3044 38.4461 13.968 38.7324 13.9037 38.7324C13.8394 38.7324 13.6005 38.5231 13.3728 38.2674C13.1451 38.0116 12.6965 37.4059 12.3759 36.9213C12.0553 36.4367 11.6041 35.6438 11.3733 35.1592C11.1423 34.6746 10.8365 33.9351 10.6936 33.5159C10.5506 33.0966 10.3441 32.3257 10.2344 31.8027C10.1249 31.2796 10.0276 30.5213 10.0182 30.1175L10.0011 29.3833L10.9278 29.3549C11.613 29.3338 11.9 29.2852 12.0292 29.1684C12.1252 29.0814 12.2038 28.8903 12.2038 28.7437C12.2038 28.5971 12.1462 28.4294 12.076 28.3711C12.0057 28.3128 11.51 28.2523 10.9746 28.2368L10.0011 28.2085L10.0201 27.4319C10.0306 27.0048 10.133 26.2171 10.2476 25.6815C10.3624 25.1459 10.5902 24.3279 10.754 23.8637C10.9177 23.3997 11.2508 22.6235 11.4941 22.1389C11.7373 21.6543 12.1138 20.9935 12.3308 20.6704C12.5476 20.3474 12.942 19.8078 13.2072 19.4712C13.4723 19.1347 13.7589 18.8593 13.8442 18.8593C13.9294 18.8593 14.2959 19.1457 14.6584 19.4957C15.0209 19.8456 15.378 20.132 15.452 20.132C15.526 20.132 15.6845 20.0634 15.8042 19.9796C15.9366 19.8869 16.0218 19.7249 16.0218 19.5659C16.0218 19.3746 15.8456 19.1272 15.3624 18.6402C14.8101 18.0838 14.7201 17.948 14.8089 17.8057C14.8673 17.7121 15.2928 17.3481 15.7544 16.9966C16.2161 16.6452 16.9277 16.1667 17.3359 15.9332C17.7439 15.6997 18.4632 15.344 18.9343 15.1428C19.4054 14.9416 20.2093 14.6598 20.7209 14.5166C21.2324 14.3735 22.0474 14.1939 22.5319 14.1177C23.0165 14.0414 23.5672 13.9867 23.7557 13.9962L24.0983 14.0134L24.1472 14.9769ZM24.3862 20.8582C24.2077 20.9886 24.1933 21.1696 24.1472 23.8408L24.0983 26.6846L23.6419 26.974C23.3745 27.1435 23.0851 27.4388 22.943 27.6869C22.8098 27.92 22.6723 28.2727 22.6377 28.4709C22.603 28.6689 22.6272 29.0399 22.6915 29.2953C22.7736 29.6212 22.9421 29.8973 23.2576 30.2223C23.5459 30.5196 23.8469 30.7237 24.0983 30.7925C24.3137 30.8513 24.5915 30.8998 24.7157 30.9001C24.84 30.9004 25.1411 30.8504 25.3849 30.7891L25.8281 30.6775L28.3938 33.2365C30.4069 35.2443 31.0134 35.7955 31.2093 35.7955C31.3468 35.7955 31.5321 35.7149 31.6212 35.6165C31.7103 35.518 31.7832 35.3539 31.7832 35.2517C31.7832 35.1395 30.7581 34.0384 29.1916 32.4679L26.6 29.8697L26.7478 29.3818C26.8391 29.0801 26.8719 28.7443 26.8336 28.5022C26.7996 28.2868 26.6619 27.92 26.5277 27.6869C26.3858 27.4403 26.0931 27.1424 25.8274 26.974L25.371 26.6846L25.322 23.8408C25.276 21.1696 25.2615 20.9886 25.083 20.8582C24.9785 20.7818 24.8218 20.7194 24.7346 20.7194C24.6475 20.7194 24.4908 20.7818 24.3862 20.8582ZM25.4274 28.0541C25.6568 28.2835 25.7136 28.4255 25.7136 28.77C25.7136 29.1211 25.6591 29.2521 25.4158 29.4851C25.1904 29.7009 25.0247 29.7704 24.7346 29.7704C24.4446 29.7704 24.2788 29.7009 24.0535 29.4851C23.8102 29.2521 23.7557 29.1211 23.7557 28.77C23.7557 28.4255 23.8124 28.2835 24.0418 28.0541C24.2663 27.8297 24.4157 27.768 24.7346 27.768C25.0536 27.768 25.203 27.8297 25.4274 28.0541Z" stroke="white" stroke-width="0.2" mask="url(#path-1-outside-1_762_1444)"/>
</svg>
