<svg width="50" height="50" viewBox="0 0 50 50" fill="none" xmlns="http://www.w3.org/2000/svg">
<path fill-rule="evenodd" clip-rule="evenodd" d="M19.3378 3.0532C19.1427 3.1022 18.8034 3.23196 18.5839 3.34165C18.3645 3.45144 18.0013 3.717 17.7769 3.93186C17.5524 4.14671 17.3001 4.44968 17.2162 4.60518C17.1322 4.76067 16.9553 5.20593 16.8232 5.59466L16.5829 6.30143L14.7453 6.34883C13.2593 6.38709 12.8365 6.42827 12.5358 6.56378C12.3313 6.65595 12.0222 6.83943 11.8489 6.97164C11.6756 7.10376 11.4238 7.37808 11.2895 7.58125L11.045 7.95057L8.53673 7.95773C6.86705 7.96253 5.92808 8.00193 5.72839 8.07552C5.56338 8.1364 5.2394 8.31979 5.00852 8.4831C4.70809 8.6956 4.50511 8.95004 4.29439 9.37834L4 9.97665L4.02478 26.7978L4.04947 43.619L4.30796 44.0588C4.45017 44.3006 4.74513 44.6514 4.96347 44.8384C5.18191 45.0252 5.57149 45.2409 5.82941 45.3175C6.22822 45.4358 7.60379 45.4567 15.0452 45.4567H23.792L23.7941 45.9514C23.7952 46.2245 23.873 46.6154 23.9678 46.8239C24.0622 47.0316 24.2932 47.3368 24.4814 47.502C24.6695 47.6672 24.9836 47.8468 25.1794 47.9011C25.4163 47.9669 28.5157 48 34.4407 48C40.4786 48 43.463 47.9675 43.7093 47.8992C43.9091 47.8437 44.2567 47.6284 44.482 47.4209C44.7071 47.2133 44.9407 46.8938 45.0011 46.7108C45.0616 46.5277 45.0926 46.16 45.0702 45.8937C45.0343 45.4665 44.6394 44.7106 41.7141 39.4668L38.3986 33.5241V30.6086V27.6931L38.7179 27.4384C38.8936 27.2982 39.1268 26.9986 39.2362 26.7725C39.3763 26.483 39.4348 26.182 39.4337 25.755C39.4325 25.3023 39.3788 25.0555 39.2217 24.7807C39.1059 24.5783 38.8483 24.2815 38.6492 24.1211C38.3042 23.8431 38.2382 23.8272 37.2357 23.7823L36.1841 23.7352L36.137 16.8088C36.0936 10.4341 36.0766 9.85414 35.9228 9.52695C35.8309 9.33141 35.5977 8.99612 35.4045 8.78183C35.2113 8.56753 34.8412 8.29321 34.5821 8.17231C34.1261 7.95952 34.031 7.95236 31.6227 7.95151L29.1344 7.95057L28.6301 7.39325C28.3528 7.0868 27.9246 6.73699 27.6787 6.6158C27.2684 6.41376 27.0778 6.3918 25.3614 6.34855L23.4912 6.30143L23.2761 5.62255C23.1579 5.24919 22.9515 4.75671 22.8176 4.52818C22.6837 4.29966 22.4154 3.97341 22.2215 3.80303C22.0274 3.63275 21.6548 3.39575 21.3933 3.27635C21.1254 3.15403 20.6503 3.03859 20.3053 3.01183C19.9684 2.98572 19.5331 3.00429 19.3378 3.0532ZM20.9451 4.54807C21.1374 4.64617 21.3638 4.80524 21.4482 4.90145C21.5328 4.99767 21.6669 5.2049 21.7463 5.36199C21.8258 5.51899 21.9998 6.02381 22.1332 6.48378C22.2665 6.94375 22.4444 7.39608 22.5286 7.48909C22.6657 7.64053 22.9054 7.66107 24.8322 7.68661C26.8424 7.71309 27.0001 7.72789 27.2485 7.91212C27.3947 8.02059 27.6107 8.2509 27.7285 8.42401C27.9331 8.72463 27.9416 8.80953 27.917 10.3002L27.8913 11.8614L20.1271 11.8855C14.4692 11.903 12.3281 11.8808 12.2348 11.8032C12.1375 11.7225 12.1067 11.3649 12.1067 10.3149C12.1067 9.06906 12.1276 8.89142 12.3187 8.5124C12.4736 8.20519 12.644 8.03481 12.9512 7.87989C13.3472 7.6802 13.4863 7.66786 15.3369 7.66786C16.4712 7.66786 17.3768 7.6279 17.4787 7.57334C17.5928 7.51227 17.7421 7.18688 17.9002 6.65453C18.0348 6.20116 18.2121 5.67429 18.294 5.48374C18.3759 5.2932 18.5545 5.03084 18.6909 4.9007C18.8272 4.77065 19.066 4.5982 19.2215 4.51744C19.3815 4.43442 19.741 4.37053 20.0499 4.37015C20.4003 4.36977 20.7206 4.43338 20.9451 4.54807ZM19.4016 5.20744C19.2416 5.30507 19.0237 5.49533 18.9175 5.63037C18.8114 5.76532 18.6959 6.02833 18.6609 6.21492C18.6127 6.47209 18.65 6.66028 18.8152 6.99322C18.9819 7.32917 19.1362 7.48344 19.4721 7.65014C19.8081 7.81685 19.9923 7.85284 20.2563 7.80337C20.4461 7.76775 20.7271 7.6328 20.8808 7.50351C21.0345 7.37422 21.2223 7.14843 21.2981 7.0017C21.374 6.85488 21.4361 6.56944 21.4361 6.36721C21.4361 6.14179 21.3533 5.87558 21.2222 5.67928C21.1046 5.50315 20.8607 5.2849 20.6803 5.19434C20.4999 5.10369 20.2039 5.02962 20.0225 5.02971C19.8411 5.0298 19.5617 5.10981 19.4016 5.20744ZM10.7403 10.118V10.919L9.07708 10.9661C7.61387 11.0076 7.39015 11.0348 7.21591 11.1928L7.01792 11.3723V26.6711C7.01792 41.8443 7.01943 41.9714 7.20639 42.1584C7.39223 42.3442 7.52048 42.3469 16.4416 42.3469C23.62 42.3469 25.4867 42.3712 25.4809 42.4646C25.4769 42.5295 25.2751 42.9217 25.0324 43.3363L24.5913 44.0902H15.3874C6.22671 44.0902 6.18233 44.0893 5.91752 43.8951C5.77117 43.7877 5.57733 43.5545 5.48677 43.3768C5.33175 43.0728 5.32195 42.081 5.32185 26.655C5.32167 10.9529 5.32902 10.2428 5.49384 9.93537C5.58854 9.75877 5.81122 9.53619 5.98858 9.44082C6.27986 9.28411 6.52582 9.26978 8.5257 9.29212L10.7403 9.31699V10.118ZM34.1294 9.4542C34.2949 9.55522 34.507 9.75453 34.6005 9.8973C34.7605 10.1413 34.7705 10.5608 34.7705 16.9459V23.7352H33.9695H33.1685L33.1214 17.5424C33.0774 11.7637 33.0631 11.3385 32.9063 11.1815C32.7612 11.0361 32.5042 11.0068 31.0215 10.9661L29.3048 10.919L29.2768 10.2211C29.2615 9.83718 29.2707 9.46617 29.2975 9.39653C29.3362 9.29541 29.7977 9.26997 31.5871 9.27025C33.6422 9.27054 33.8531 9.2858 34.1294 9.4542ZM11.1115 12.6198C11.198 12.7518 11.4043 12.9425 11.5699 13.0435C11.8623 13.2218 12.1089 13.2271 20.0052 13.2274C25.8164 13.2277 28.198 13.1977 28.3451 13.1224C28.4583 13.0645 28.7025 12.8723 28.8876 12.6956L29.2243 12.3739L30.4897 12.4004L31.755 12.4268V18.081V23.7352L31.3309 23.76C31.0977 23.7737 30.8122 23.8061 30.6965 23.832C30.5809 23.858 30.3346 24.0124 30.1491 24.1752C29.9637 24.338 29.7228 24.6448 29.6136 24.857L29.4153 25.2429L29.3384 24.9603C29.2961 24.8049 29.1889 24.6247 29.1002 24.5598C28.9761 24.4691 27.8221 24.4419 24.0863 24.4419C19.2337 24.4419 19.2337 24.4419 19.0155 24.6468C18.8957 24.7595 18.7975 24.9523 18.7975 25.0752C18.7975 25.1981 18.9016 25.4027 19.0288 25.5299L19.2601 25.7612H24.0632H28.8663L29.1562 25.5173L29.4462 25.2733V25.8173C29.4462 26.1776 29.5131 26.4997 29.6443 26.7706C29.7533 26.9957 29.9865 27.2899 30.1626 27.4241L30.4828 27.6683V30.607V33.5456L28.3972 37.287L26.3117 41.0285L17.348 41.0045L8.38435 40.9804L8.36013 26.7978C8.34684 18.9974 8.35608 12.5623 8.38077 12.4975C8.41356 12.4113 8.76516 12.3797 9.6899 12.3797C10.9408 12.3797 10.9559 12.3822 11.1115 12.6198ZM14.5097 17.4684C13.6297 18.3496 12.8441 19.0705 12.7638 19.0705C12.6836 19.0705 12.4091 18.8584 12.1538 18.5993C11.8363 18.2769 11.6134 18.1281 11.448 18.1281C11.315 18.1281 11.112 18.1942 10.9969 18.2748C10.8457 18.3807 10.7874 18.5169 10.7874 18.7638C10.7874 19.0687 10.8782 19.1969 11.6177 19.9364C12.3376 20.6563 12.4908 20.7667 12.7695 20.7667C13.0624 20.7667 13.2664 20.5916 15.0491 18.8089C16.8652 16.9926 17.007 16.8266 17.007 16.5147C17.007 16.3085 16.9403 16.1179 16.8346 16.0224C16.7398 15.9366 16.538 15.8664 16.386 15.8664C16.154 15.8664 15.8531 16.1232 14.5097 17.4684ZM19.1972 16.8107C19.0802 16.8585 18.9369 17.0017 18.879 17.1289C18.821 17.2562 18.8016 17.4722 18.836 17.609C18.8776 17.7749 19.0082 17.9037 19.2279 17.9955C19.505 18.1112 20.308 18.129 24.2746 18.1071L28.9918 18.081L29.1719 17.8585C29.2709 17.7362 29.3519 17.5394 29.3519 17.4213C29.3519 17.3032 29.2709 17.1065 29.1719 16.9842L28.9918 16.7617L24.2009 16.7427C21.4479 16.7319 19.3194 16.7608 19.1972 16.8107ZM19.2013 20.0557C19.0099 20.1402 18.8753 20.2809 18.8359 20.4379C18.8016 20.5746 18.8208 20.7901 18.8786 20.9169C18.9364 21.0437 19.0929 21.189 19.2265 21.2398C19.3664 21.2929 20.7209 21.3321 22.419 21.3321C25.2603 21.3321 25.3777 21.325 25.6169 21.1368C25.7948 20.9969 25.8652 20.8541 25.8652 20.6331C25.8652 20.4394 25.7915 20.258 25.6669 20.1452C25.4819 19.9777 25.2696 19.9643 22.4864 19.9438C20.0801 19.9262 19.4457 19.9478 19.2013 20.0557ZM14.4654 25.8084C13.6048 26.6636 12.8449 27.3633 12.7767 27.3633C12.7085 27.3633 12.4405 27.1724 12.181 26.9392C11.8272 26.6211 11.6331 26.5151 11.4043 26.5151C11.2285 26.5151 11.0332 26.5882 10.9433 26.6875C10.8576 26.7823 10.7874 26.9845 10.7874 27.1369C10.7874 27.3612 10.9542 27.5803 11.6609 28.284C12.2937 28.9141 12.599 29.1538 12.769 29.1538C12.9489 29.1538 13.4706 28.6863 15.0053 27.1504C16.7463 25.408 17.007 25.1092 17.007 24.8562C17.007 24.6941 16.9306 24.4963 16.8346 24.4094C16.7398 24.3237 16.5201 24.2535 16.3462 24.2535C16.0635 24.2535 15.8646 24.4179 14.4654 25.8084ZM37.9692 25.3111C38.0499 25.4262 38.1159 25.65 38.1159 25.8084C38.1159 25.9667 38.0499 26.1905 37.9692 26.3057L37.8226 26.5151H34.5005C31.987 26.5151 31.1391 26.4864 31.0169 26.3971C30.9281 26.332 30.8298 26.1209 30.7984 25.9277C30.7585 25.6818 30.7881 25.5052 30.8969 25.339L31.0525 25.1016H34.4375H37.8226L37.9692 25.3111ZM18.9928 27.8943C18.8854 28.0308 18.7975 28.2235 18.7975 28.3226C18.7975 28.4216 18.9016 28.6067 19.0288 28.7339L19.2601 28.9653H22.3577H25.4554L25.6603 28.7472C25.773 28.6273 25.8652 28.4152 25.8652 28.276C25.8652 28.1368 25.7804 27.9381 25.6767 27.8344C25.4958 27.6535 25.3626 27.646 22.3382 27.646H19.1881L18.9928 27.8943ZM36.938 30.3788V32.8761H34.4407H31.9434L31.9182 30.4747C31.9043 29.1539 31.9139 28.0189 31.9394 27.9523C31.976 27.8572 32.5148 27.8367 34.4619 27.8564L36.938 27.8816V30.3788ZM11.6953 32.7416C11.5194 32.88 11.447 33.0249 11.447 33.2387C11.447 33.489 11.5676 33.6601 12.1538 34.2425C12.5425 34.6286 12.8606 34.9891 12.8606 35.0435C12.8606 35.098 12.5425 35.4585 12.1538 35.8445C11.5676 36.4269 11.447 36.5981 11.447 36.8484C11.447 37.0622 11.5194 37.2071 11.6953 37.3454C11.8319 37.4529 12.0276 37.5408 12.1302 37.5408C12.235 37.5408 12.6351 37.231 13.0431 36.834C13.4425 36.4453 13.8269 36.1273 13.8972 36.1273C13.9675 36.1273 14.3519 36.4453 14.7512 36.834C15.1593 37.231 15.5593 37.5408 15.6641 37.5408C15.7667 37.5408 15.9625 37.4529 16.099 37.3454C16.2701 37.211 16.3473 37.0609 16.3473 36.8635C16.3473 36.6341 16.2061 36.4316 15.6406 35.8505C15.2518 35.4511 14.9338 35.0879 14.9338 35.0435C14.9338 34.9991 15.2518 34.636 15.6406 34.2366C16.2061 33.6554 16.3473 33.453 16.3473 33.2235C16.3473 33.0261 16.2701 32.8761 16.099 32.7416C15.9625 32.6342 15.7667 32.5463 15.6641 32.5463C15.5593 32.5463 15.1593 32.856 14.7512 33.253C14.3519 33.6418 13.9675 33.9598 13.8972 33.9598C13.8269 33.9598 13.4425 33.6418 13.0431 33.253C12.6351 32.856 12.235 32.5463 12.1302 32.5463C12.0276 32.5463 11.8319 32.6342 11.6953 32.7416ZM19.1972 33.0193C19.0802 33.0671 18.9369 33.2104 18.879 33.3376C18.821 33.4649 18.8008 33.6774 18.834 33.8098C18.8677 33.9441 19.0189 34.115 19.176 34.1963C19.421 34.3229 20.0753 34.3385 24.2246 34.3157L28.9918 34.2896L29.1719 34.0672C29.2709 33.9448 29.3519 33.7481 29.3519 33.63C29.3519 33.5119 29.2709 33.3151 29.1719 33.1928L28.9918 32.9703L24.2009 32.9514C21.4479 32.9406 19.3194 32.9695 19.1972 33.0193ZM37.4367 34.5959C37.5367 34.7384 38.0061 35.5565 38.4797 36.4137C38.9534 37.271 39.341 38.0283 39.341 38.0966C39.341 38.178 39.2679 38.203 39.129 38.169C39.0123 38.1404 38.5353 38.0666 38.0688 38.005C37.5891 37.9416 36.8069 37.9161 36.2681 37.9464C35.7442 37.9758 35.0445 38.0697 34.7132 38.1549C34.3819 38.2402 33.8564 38.4317 33.5455 38.5805C33.2345 38.7293 32.6832 39.0899 32.3204 39.3817C31.9576 39.6736 31.5335 39.9819 31.378 40.0667C31.1945 40.1669 30.8805 40.2194 30.4828 40.2162C30.0608 40.2128 29.7173 40.1445 29.3784 39.9965C29.108 39.8784 28.8399 39.7254 28.7826 39.6563C28.7026 39.5599 28.9679 39.0099 29.9258 37.2872C30.6119 36.0532 31.2729 34.8846 31.3946 34.6901L31.616 34.3368H34.4354H37.255L37.4367 34.5959ZM18.9859 36.41C18.8823 36.5136 18.7975 36.7063 18.7975 36.8383C18.7975 36.9702 18.9016 37.1822 19.0288 37.3094L19.2601 37.5408H22.3144C25.2615 37.5408 25.3773 37.5339 25.6169 37.3454C25.7948 37.2056 25.8652 37.0627 25.8652 36.8418C25.8652 36.6627 25.7929 36.468 25.6928 36.3774C25.5397 36.2388 25.1678 36.2215 22.3475 36.2215C19.3 36.2215 19.167 36.2289 18.9859 36.41ZM39.217 39.5724C39.8235 39.6982 40.3499 39.8332 40.3867 39.8725C40.4236 39.9117 41.2 41.2823 42.1119 42.9182C43.0239 44.5541 43.7701 45.9788 43.7701 46.0841C43.7701 46.1894 43.6809 46.3563 43.5717 46.4551C43.3801 46.6286 43.0771 46.6354 34.5486 46.6576C27.5832 46.6757 25.6746 46.6554 25.4899 46.5613C25.3611 46.4958 25.2173 46.3328 25.1704 46.1991C25.0958 45.9872 25.262 45.6392 26.4743 43.4684C27.2384 42.1 27.9001 40.9417 27.9448 40.8943C27.9931 40.843 28.2852 40.9271 28.6653 41.1016C29.017 41.263 29.4957 41.4386 29.7289 41.4918C29.9621 41.5449 30.374 41.5894 30.6441 41.5907C30.9143 41.5919 31.3596 41.5084 31.6336 41.4051C31.9077 41.3019 32.344 41.0498 32.6031 40.845C32.8623 40.6402 33.3235 40.3002 33.6282 40.0896C33.9328 39.8789 34.4195 39.6375 34.7097 39.5531C34.9999 39.4688 35.4504 39.3659 35.7107 39.3245C35.971 39.2831 36.6184 39.2705 37.1493 39.2965C37.6801 39.3225 38.6106 39.4467 39.217 39.5724Z" fill="white"/>
</svg>
