<svg width="50" height="50" viewBox="0 0 50 50" fill="none" xmlns="http://www.w3.org/2000/svg">
<path fill-rule="evenodd" clip-rule="evenodd" d="M6.94141 10.4248C6.69456 10.6244 6.68272 10.7017 6.63043 12.4628L6.57609 14.2934L3.49565 14.3477C0.419565 14.402 0.415 14.4024 0.207609 14.6587C0.0934782 14.7998 0 14.961 0 15.0169C0 15.0727 0.120109 15.2385 0.266848 15.3852L0.533587 15.6521H6.32957C11.3995 15.6521 12.1558 15.6309 12.3671 15.4828C12.5197 15.376 12.6087 15.2007 12.6087 15.0071C12.6087 14.8384 12.5279 14.6333 12.4293 14.5512C12.2962 14.4405 11.7005 14.388 10.1196 14.3477L7.98913 14.2934V12.9347V11.576H20.5978H33.2065V22.3369V33.0977H26.7957H20.3847L20.1153 32.6086C19.9672 32.3396 19.6177 31.8909 19.3388 31.6116C19.0598 31.3323 18.5336 30.9533 18.1695 30.7695C17.8052 30.5857 17.1634 30.3763 16.7429 30.3041C16.1692 30.2058 15.8038 30.203 15.2782 30.293C14.8928 30.359 14.318 30.5327 14.0008 30.679C13.6835 30.8252 13.1628 31.181 12.8436 31.4695C12.5245 31.7579 12.1155 32.2557 11.935 32.5755L11.6067 33.1572L9.79793 33.1275L7.98913 33.0977V30.5434V27.989L9.94565 27.9615C11.7852 27.9357 11.9136 27.9203 12.0924 27.7049C12.1971 27.5789 12.2826 27.4078 12.2826 27.3248C12.2826 27.2417 12.1848 27.076 12.0652 26.9564C11.8546 26.7458 11.7029 26.739 7.17391 26.739C2.64489 26.739 2.49326 26.7458 2.28261 26.9564C2.16304 27.076 2.06522 27.2417 2.06522 27.3248C2.06522 27.4078 2.15076 27.5789 2.25543 27.705C2.43511 27.9215 2.56033 27.9358 4.51087 27.9616L6.57609 27.989L6.60522 30.5166L6.63446 33.0444L6.05163 33.3021C5.70478 33.4554 5.36598 33.7044 5.21478 33.9166C5.0538 34.1426 4.94359 34.4798 4.91402 34.8363C4.88304 35.2092 4.92315 35.506 5.03261 35.7158C5.12359 35.89 5.34359 36.171 5.52163 36.3401C5.69967 36.5093 6.03413 36.6915 6.265 36.7451C6.49587 36.7987 7.79652 36.8437 9.15543 36.8451L11.626 36.8477L11.8575 37.3015C11.9848 37.5511 12.3515 38.0177 12.6724 38.3386C13.0217 38.6879 13.5347 39.0525 13.9511 39.2474C14.3336 39.4263 14.9579 39.6229 15.3386 39.6842C15.8286 39.7632 16.2355 39.76 16.7323 39.6735C17.1182 39.6063 17.7052 39.4229 18.037 39.2661C18.3686 39.1091 18.88 38.7576 19.1735 38.4849C19.4668 38.2122 19.8722 37.7322 20.0742 37.4184L20.4414 36.8477H28.3636H36.2857L36.6214 37.3933C36.8061 37.6934 37.1885 38.1607 37.4713 38.4316C37.7541 38.7026 38.2798 39.0669 38.6395 39.2411C38.9992 39.4153 39.6155 39.6121 40.0092 39.6783C40.5341 39.7665 40.911 39.7662 41.4223 39.6773C41.8058 39.6105 42.4359 39.4029 42.8225 39.216C43.2091 39.029 43.7512 38.6504 44.027 38.3746C44.3027 38.0988 44.6636 37.6424 44.8289 37.3604L45.1293 36.8477L46.6679 36.8471C47.5141 36.8467 48.3999 36.7928 48.6362 36.7272C48.8725 36.6616 49.2223 36.4515 49.4134 36.2604C49.6045 36.0693 49.8224 35.7075 49.8976 35.4564C50.0054 35.0967 50.0066 34.9073 49.9036 34.5633C49.8316 34.3232 49.6262 33.9597 49.447 33.7555C49.2677 33.5514 48.9153 33.316 48.6638 33.2322L48.2065 33.0799L48.1424 29.1214C48.0839 25.5173 48.0567 25.0802 47.8387 24.239C47.707 23.7309 47.3642 22.826 47.077 22.2282C46.7897 21.6303 46.3282 20.8424 46.0514 20.4773C45.7747 20.1121 45.2105 19.4948 44.7979 19.1054C44.3852 18.7162 43.819 18.2404 43.5398 18.0483C43.2605 17.8562 42.6441 17.5048 42.1701 17.2676C41.6961 17.0303 40.8305 16.71 40.2465 16.5558C39.3242 16.3122 38.8777 16.2665 36.8478 16.2083L34.5109 16.1412L34.4839 13.3695C34.4578 10.6978 34.4486 10.5909 34.2273 10.4075C34.0113 10.2286 33.1997 10.2173 20.5978 10.2173C7.57326 10.2173 7.19076 10.223 6.94141 10.4248ZM14.2957 14.6074C14.145 14.758 14.0217 14.9534 14.0217 15.0414C14.0217 15.1295 14.1507 15.3029 14.3082 15.4267C14.5714 15.6339 14.7383 15.6521 16.3783 15.6521C18.1273 15.6521 18.1673 15.6469 18.4288 15.3852C18.5755 15.2385 18.6957 15.0727 18.6957 15.0169C18.6957 14.961 18.6023 14.7998 18.488 14.6587C18.2868 14.4099 18.2242 14.401 16.4251 14.3677L14.5696 14.3335L14.2957 14.6074ZM39.837 17.7066C40.3152 17.8339 41.0583 18.1048 41.4882 18.3085C41.918 18.5121 42.5539 18.8739 42.9012 19.1124C43.2485 19.3509 43.8561 19.8804 44.2514 20.2892C44.6467 20.698 45.1262 21.2651 45.3168 21.5495C45.5075 21.8338 45.8315 22.4208 46.037 22.8538C46.2424 23.2869 46.5208 24.057 46.6554 24.5651C46.8872 25.4392 46.9004 25.6939 46.9013 29.2934L46.9022 33.0977L46.0099 33.1292L45.1175 33.1608L44.8822 32.6994C44.7527 32.4455 44.3716 31.9635 44.0353 31.6279C43.683 31.2765 43.1498 30.8886 42.7772 30.7128C42.4214 30.545 41.8222 30.3549 41.4455 30.2904C40.9358 30.203 40.5636 30.2069 39.9904 30.3051C39.5668 30.3778 38.9506 30.5692 38.6212 30.7305C38.2917 30.8918 37.8078 31.2126 37.5458 31.4432C37.2838 31.6738 36.8891 32.1545 36.6689 32.5114L36.2684 33.1603L35.3897 33.129L34.5109 33.0977L34.4827 25.3803C34.4673 21.1358 34.4803 17.5957 34.5117 17.5134C34.5586 17.3908 34.9639 17.3739 36.7682 17.4195C38.54 17.4642 39.1364 17.52 39.837 17.7066ZM2.62674 18.6516C2.44163 18.7813 2.3875 18.9111 2.41239 19.1654C2.43533 19.3999 2.53022 19.5484 2.71739 19.6425C2.90609 19.7375 3.60435 19.7798 5.00293 19.7809C6.65163 19.7822 7.06065 19.7519 7.25837 19.6133C7.41315 19.5049 7.5 19.3313 7.5 19.1303C7.5 18.9294 7.41315 18.7558 7.25837 18.6474C7.06033 18.5086 6.64435 18.4782 4.94565 18.4782C3.22511 18.4782 2.8325 18.5075 2.62674 18.6516ZM9.26337 18.6474C9.1075 18.7565 9.02174 18.9292 9.02174 19.134C9.02174 19.3478 9.10565 19.5064 9.2788 19.6199C9.50413 19.7675 10.2241 19.7846 15.1028 19.7583C20.4697 19.7292 20.6753 19.7205 20.824 19.5172C20.9088 19.4011 20.9783 19.2177 20.9783 19.1096C20.9783 19.0014 20.8804 18.8151 20.7609 18.6955C20.5492 18.4839 20.3986 18.4782 15.0242 18.4782C10.2047 18.4782 9.47424 18.4996 9.26337 18.6474ZM36.3043 18.9373L36.0326 19.0824L36.0041 23.1247L35.9757 27.1671L36.2225 27.3288C36.4351 27.4682 37.0693 27.4813 40.7922 27.4234C44.006 27.3735 45.1629 27.3211 45.3021 27.2194C45.4533 27.1087 45.4833 26.9407 45.4585 26.342C45.4416 25.9347 45.3559 25.2915 45.268 24.9127C45.1802 24.5339 44.9447 23.8727 44.7446 23.4435C44.5445 23.0141 44.1445 22.3511 43.8556 21.9699C43.5668 21.5887 43.0091 21.0104 42.6163 20.6848C42.2236 20.3592 41.5109 19.9026 41.0326 19.6702C40.5543 19.4378 39.8451 19.1748 39.4565 19.0858C39.0679 18.9966 38.2609 18.8942 37.663 18.858C36.8591 18.8095 36.5053 18.8301 36.3043 18.9373ZM39.7583 20.4374C40.1334 20.5675 40.7945 20.9051 41.2273 21.1876C41.6601 21.4702 42.268 21.9861 42.5783 22.3341C42.8884 22.6821 43.3136 23.3142 43.5232 23.7388C43.7328 24.1634 43.9823 24.848 44.0777 25.2602C44.1761 25.6851 44.2102 26.0505 44.1566 26.1041C44.1046 26.1562 42.5245 26.1858 40.6451 26.17L37.2283 26.1412L37.1992 23.2625C37.1833 21.6791 37.1966 20.315 37.2288 20.231C37.2753 20.1098 37.4721 20.0909 38.1817 20.1396C38.6736 20.1733 39.383 20.3073 39.7583 20.4374ZM0.217391 22.826C0.0978261 22.9455 0 23.1059 0 23.1822C0 23.2586 0.0761956 23.4298 0.169239 23.5626C0.332717 23.7961 0.400326 23.8042 2.1763 23.8042C3.88207 23.8042 4.02217 23.7891 4.12663 23.594C4.18848 23.4784 4.23913 23.2854 4.23913 23.1653C4.23913 23.0452 4.13043 22.8709 3.9975 22.7778C3.80446 22.6426 3.42239 22.6086 2.09533 22.6086C0.579674 22.6086 0.415761 22.6276 0.217391 22.826ZM5.86957 22.826C5.75 22.9455 5.65217 23.1336 5.65217 23.2439C5.65217 23.3542 5.74163 23.5254 5.85098 23.6244C6.03098 23.7873 6.6288 23.8042 12.1879 23.8042C16.8171 23.8042 18.3582 23.7722 18.4565 23.6738C18.5283 23.6021 18.587 23.414 18.587 23.2559C18.587 23.0977 18.4975 22.8874 18.3882 22.7885C18.2083 22.6257 17.6164 22.6086 12.1382 22.6086C6.23185 22.6086 6.08174 22.6138 5.86957 22.826ZM13.8755 26.9378C13.7766 27.0472 13.6957 27.2575 13.6957 27.4052C13.6957 27.5529 13.7543 27.7325 13.8261 27.8042C13.9216 27.8998 14.8164 27.9347 17.1739 27.9347C19.5314 27.9347 20.4262 27.8998 20.5217 27.8042C20.5935 27.7325 20.6522 27.5445 20.6522 27.3863C20.6522 27.2282 20.5627 27.0178 20.4534 26.9189C20.2783 26.7603 19.8867 26.739 17.155 26.739C14.2902 26.739 14.0418 26.7541 13.8755 26.9378ZM17.5722 31.8499C17.9408 32.0305 18.4004 32.3585 18.5938 32.5787C18.7872 32.7989 19.0709 33.2503 19.2243 33.5819C19.4453 34.0596 19.5032 34.3538 19.5032 34.9999C19.5032 35.65 19.4455 35.9397 19.2188 36.4298C19.0624 36.7679 18.7312 37.2418 18.4827 37.4829C18.2343 37.724 17.8015 38.0336 17.521 38.1709C17.1652 38.3449 16.7642 38.4321 16.1957 38.4588C15.5615 38.4887 15.2441 38.446 14.7666 38.2666C14.429 38.1399 13.9383 37.8473 13.676 37.6164C13.4138 37.3855 13.0584 36.938 12.8863 36.622C12.6496 36.187 12.5612 35.8563 12.5232 35.2628C12.4868 34.6964 12.5267 34.3072 12.6666 33.8623C12.7914 33.4654 13.0302 33.0573 13.3372 32.7159C13.5993 32.4242 13.9927 32.0751 14.2113 31.94C14.4299 31.8049 14.8313 31.6314 15.1034 31.5546C15.387 31.4744 15.876 31.4375 16.25 31.4682C16.668 31.5024 17.1427 31.6395 17.5722 31.8499ZM41.9849 31.6926C42.2675 31.7889 42.7411 32.0857 43.0374 32.352C43.3479 32.6313 43.7049 33.0987 43.8804 33.4561C44.1417 33.9883 44.1847 34.2067 44.1837 34.9999C44.1829 35.7172 44.1298 36.0389 43.946 36.4385C43.8159 36.7215 43.4711 37.1914 43.1798 37.4826C42.8297 37.8327 42.4391 38.0912 42.0275 38.2452C41.6273 38.3949 41.1543 38.4782 40.7036 38.4782C40.2746 38.4782 39.7885 38.397 39.4516 38.2689C39.1488 38.1538 38.6926 37.8889 38.4379 37.6802C38.1784 37.4675 37.812 36.998 37.6043 36.6123C37.267 35.9852 37.2337 35.8414 37.2314 34.9999C37.2295 34.279 37.2804 33.9642 37.4635 33.5677C37.5925 33.2883 37.9 32.8404 38.1468 32.5726C38.3936 32.3049 38.7771 31.9983 38.9989 31.8913C39.2207 31.7845 39.6223 31.6336 39.8913 31.5563C40.1603 31.4789 40.6259 31.4386 40.9258 31.4666C41.2258 31.4947 41.7024 31.5964 41.9849 31.6926ZM15.1633 33.2146C14.984 33.308 14.7448 33.4667 14.6316 33.5672C14.5185 33.6677 14.336 33.9455 14.2262 34.1847C14.1163 34.4238 14.0254 34.7874 14.0241 34.9927C14.0228 35.198 14.1255 35.5803 14.2523 35.8423C14.3858 36.118 14.6571 36.4339 14.8967 36.5925C15.1243 36.743 15.504 36.8923 15.7404 36.924C15.9768 36.9557 16.3485 36.9228 16.5662 36.851C16.7839 36.7791 17.1142 36.5923 17.3001 36.4359C17.4861 36.2794 17.705 35.9916 17.7865 35.7965C17.868 35.6013 17.9348 35.2175 17.9348 34.9436C17.9348 34.6697 17.8658 34.3136 17.7814 34.1521C17.6971 33.9907 17.4892 33.7272 17.3195 33.5666C17.1498 33.406 16.8732 33.2226 16.7049 33.159C16.5366 33.0954 16.1942 33.0437 15.944 33.044C15.6938 33.0445 15.3425 33.1212 15.1633 33.2146ZM39.715 33.314C39.4686 33.4617 39.1913 33.698 39.0988 33.8391C39.0064 33.9802 38.876 34.2991 38.809 34.5477C38.7209 34.8752 38.7197 35.1201 38.8048 35.4361C38.8693 35.676 39.0784 36.0501 39.2691 36.2675C39.46 36.4849 39.7743 36.7288 39.9676 36.8096C40.161 36.8903 40.4935 36.9564 40.7065 36.9564C40.9196 36.9564 41.2521 36.8903 41.4454 36.8096C41.6387 36.7288 41.953 36.4849 42.1439 36.2675C42.3347 36.0501 42.5448 35.672 42.6108 35.427C42.6767 35.1821 42.6988 34.8268 42.6598 34.6375C42.6208 34.4483 42.471 34.1109 42.3268 33.8879C42.1828 33.6649 41.8713 33.3837 41.6347 33.2629C41.3787 33.1323 40.9934 33.0438 40.6837 33.0444C40.3247 33.0451 40.0239 33.1288 39.715 33.314ZM16.5217 34.4564C16.6413 34.576 16.7391 34.817 16.7391 34.992C16.7391 35.2085 16.645 35.3842 16.4449 35.5416C16.2393 35.7034 16.0675 35.7527 15.8742 35.7054C15.7222 35.6682 15.5399 35.5799 15.4691 35.509C15.3983 35.4383 15.308 35.2483 15.2685 35.0868C15.2125 34.8586 15.258 34.732 15.4738 34.5162C15.6262 34.3638 15.8755 34.239 16.0277 34.239C16.1799 34.239 16.4022 34.3369 16.5217 34.4564ZM41.1714 34.4083C41.3368 34.5241 41.413 34.6888 41.413 34.931C41.413 35.1253 41.352 35.3645 41.2772 35.4623C41.2025 35.5601 41.017 35.6701 40.8649 35.7066C40.6727 35.7528 40.4987 35.7025 40.2942 35.5416C40.0941 35.3842 40 35.2085 40 34.992C40 34.817 40.0978 34.576 40.2174 34.4564C40.337 34.3369 40.5462 34.239 40.6823 34.239C40.8185 34.239 41.0386 34.3152 41.1714 34.4083ZM11.25 34.9455V35.489L8.80446 35.5184C6.60141 35.5448 6.34543 35.5292 6.22293 35.3617C6.14815 35.2595 6.08696 35.0655 6.08696 34.931C6.08696 34.7963 6.19696 34.609 6.33141 34.5149C6.53902 34.3696 6.92913 34.348 8.91293 34.3728L11.25 34.4021V34.9455ZM35.9239 34.9455V35.489H28.3696H20.8152L20.7808 35.07C20.7618 34.8395 20.7727 34.5824 20.8049 34.4986C20.8543 34.3696 22.0165 34.3505 28.3936 34.3741L35.9239 34.4021V34.9455ZM48.454 34.517C48.6066 34.6238 48.6957 34.7991 48.6957 34.9927C48.6957 35.1614 48.6277 35.3558 48.5448 35.4246C48.4431 35.5089 47.9197 35.5399 46.9415 35.5195L45.4891 35.489L45.4547 35.07C45.4358 34.8395 45.4465 34.5827 45.4785 34.4993C45.5239 34.381 45.8304 34.3477 46.8746 34.3477C47.9096 34.3477 48.2672 34.386 48.454 34.517Z" fill="white"/>
</svg>
