<svg width="50" height="50" viewBox="0 0 50 50" fill="none" xmlns="http://www.w3.org/2000/svg">
<mask id="path-1-outside-1_762_1452" maskUnits="userSpaceOnUse" x="6" y="4" width="38" height="42" fill="black">
<rect fill="white" x="6" y="4" width="38" height="42"/>
<path fill-rule="evenodd" clip-rule="evenodd" d="M24.9423 5.10041C24.8466 5.15412 24.453 5.49883 24.0674 5.86658C23.6818 6.23423 22.9776 6.84421 22.5025 7.22204C22.0274 7.59995 21.2281 8.18663 20.7265 8.52587C20.2247 8.86501 19.4671 9.34627 19.0431 9.59528C18.6189 9.84421 17.778 10.2953 17.1744 10.5975C16.5707 10.8997 15.6999 11.3073 15.2393 11.5031C14.7787 11.6989 13.84 12.0505 13.1533 12.2845C12.4666 12.5184 11.3562 12.8511 10.6856 13.0238C10.0152 13.1964 8.99868 13.4177 8.42686 13.5155C7.85512 13.6132 7.33171 13.7487 7.26383 13.8165C7.18882 13.8916 7.11416 14.2402 7.0734 14.7054C7.03654 15.1264 7.0036 16.1985 7.00021 17.0879C6.99682 17.9772 7.03437 19.2093 7.08365 19.8258C7.13285 20.4422 7.25175 21.4941 7.34779 22.1634C7.44383 22.8326 7.66043 24.0018 7.82913 24.7616C7.99784 25.5214 8.33325 26.7534 8.57453 27.4995C8.81572 28.2455 9.16825 29.247 9.3579 29.7251C9.54755 30.2031 9.93181 31.0741 10.2119 31.6607C10.492 32.2472 10.9932 33.1859 11.3257 33.7467C11.6581 34.3074 12.2232 35.1769 12.5813 35.6788C12.9394 36.1808 13.5447 36.963 13.9265 37.4172C14.3083 37.8713 15.1243 38.733 15.7398 39.3319C16.3554 39.931 17.2306 40.7084 17.6847 41.0597C18.1389 41.411 18.7842 41.8834 19.1189 42.1094C19.4535 42.3356 20.138 42.7568 20.6399 43.0454C21.1418 43.3341 21.9524 43.7497 22.4411 43.9691C22.9299 44.1885 23.7414 44.5101 24.2447 44.684L25.1595 45L26.0762 44.6834C26.5805 44.5092 27.3529 44.2051 27.7928 44.0076C28.2328 43.81 28.9447 43.4551 29.375 43.2187C29.8052 42.9822 30.5875 42.5024 31.1133 42.1523C31.6392 41.8022 32.4018 41.2517 32.8082 40.9288C33.2145 40.6059 34.1741 39.7131 34.9406 38.9447C35.8528 38.0301 36.6495 37.1272 37.2472 36.3307C37.7494 35.6615 38.3778 34.7619 38.6436 34.3316C38.9094 33.9014 39.3456 33.1387 39.6128 32.6368C39.8799 32.1348 40.3112 31.2353 40.5711 30.6377C40.8311 30.0402 41.2391 28.9841 41.4781 28.291C41.717 27.5978 42.0522 26.4831 42.2231 25.8139C42.3939 25.1446 42.6108 24.2059 42.705 23.7279C42.7993 23.2498 42.937 22.4089 43.011 21.8592C43.0852 21.3094 43.1856 20.3903 43.2345 19.8166C43.2833 19.243 43.3223 18.0696 43.321 17.2091C43.3198 16.3487 43.2843 15.2581 43.2421 14.7857C43.1951 14.2592 43.1185 13.8798 43.0443 13.8056C42.9777 13.739 42.4758 13.6078 41.929 13.514C41.3822 13.4202 40.4531 13.2256 39.8643 13.0815C39.2755 12.9375 38.2482 12.6413 37.5813 12.4234C36.9144 12.2054 35.9029 11.8355 35.3334 11.6015C34.764 11.3673 33.7915 10.9221 33.1726 10.6119C32.5536 10.3017 31.7002 9.84421 31.276 9.59528C30.852 9.34627 30.0944 8.86501 29.5926 8.52587C29.0909 8.18663 28.2944 7.60212 27.8227 7.22699C27.351 6.85177 26.6663 6.26222 26.3013 5.91681C25.9362 5.5715 25.5408 5.22331 25.4226 5.14317C25.3045 5.06304 25.1872 4.99863 25.1619 5.00002C25.1367 5.0015 25.0379 5.04661 24.9423 5.10041ZM26.0955 7.04586C26.5607 7.45541 27.2933 8.056 27.7236 8.38045C28.1538 8.70483 28.9165 9.24353 29.4184 9.57747C29.9204 9.91131 30.6048 10.3428 30.9395 10.5362C31.2741 10.7296 32.0258 11.128 32.6098 11.4214C33.1939 11.7148 33.9957 12.0944 34.3916 12.2649C34.7875 12.4354 35.5782 12.7492 36.1485 12.9625C36.719 13.1757 37.7754 13.5209 38.4961 13.7296C39.2169 13.9384 40.3341 14.212 40.9788 14.3378C41.6236 14.4635 42.1904 14.6056 42.2383 14.6535C42.2925 14.7077 42.3245 15.636 42.3228 17.1048C42.3213 18.4139 42.2715 19.8956 42.2112 20.425C42.1512 20.9509 42.007 21.9678 41.8905 22.6849C41.7741 23.4019 41.5398 24.552 41.37 25.2406C41.2 25.9292 40.8622 27.0825 40.6192 27.8034C40.3762 28.5245 39.9458 29.6429 39.663 30.2889C39.3801 30.9349 38.895 31.9268 38.5851 32.493C38.275 33.0593 37.7578 33.9196 37.4356 34.4047C37.1134 34.8897 36.5395 35.6781 36.1602 36.1564C35.7809 36.6347 34.9986 37.5098 34.4219 38.1012C33.8451 38.6925 32.9706 39.5085 32.4788 39.9145C31.9868 40.3205 31.0989 40.9768 30.5055 41.3732C29.9121 41.7694 28.9261 42.3464 28.3143 42.6553C27.7026 42.9643 26.811 43.3677 26.3329 43.5517C25.8549 43.7357 25.3269 43.8863 25.1595 43.8863C24.9922 43.8863 24.4642 43.7357 23.9862 43.5517C23.5081 43.3677 22.6165 42.9643 22.0047 42.6553C21.3929 42.3464 20.407 41.7694 19.8136 41.3732C19.2202 40.9768 18.3323 40.3199 17.8403 39.9132C17.3485 39.5065 16.4728 38.6905 15.8945 38.0999C15.3163 37.5093 14.5272 36.6268 14.141 36.1389C13.7548 35.6509 13.1808 34.8604 12.8654 34.382C12.55 33.9036 12.0396 33.0512 11.7312 32.4878C11.4228 31.9244 10.9324 30.9197 10.6414 30.2554C10.3504 29.5909 9.91938 28.4696 9.68358 27.7635C9.44778 27.0574 9.11706 25.9192 8.94853 25.2341C8.78008 24.5491 8.56723 23.558 8.47562 23.0317C8.38392 22.5054 8.23999 21.508 8.15568 20.8153C8.04486 19.9042 8.00123 18.8901 7.99801 17.1483C7.99506 15.5506 8.02478 14.7095 8.08641 14.6479C8.13751 14.5968 8.52864 14.4941 8.95557 14.4196C9.38259 14.3451 10.2404 14.1538 10.8618 13.9945C11.4833 13.8351 12.4406 13.5594 12.9892 13.382C13.5378 13.2045 14.496 12.8532 15.1186 12.6013C15.7412 12.3495 16.623 11.9665 17.0782 11.7503C17.5332 11.534 18.3703 11.0971 18.9382 10.7793C19.5062 10.4615 20.3781 9.93069 20.8758 9.59963C21.3735 9.26865 22.14 8.72621 22.5792 8.39419C23.0184 8.06225 23.7493 7.45836 24.2035 7.0522C24.6576 6.64613 25.0788 6.31098 25.1394 6.3075C25.2 6.30403 25.6302 6.63631 26.0955 7.04586ZM23.7254 15.658C23.582 15.6807 23.23 15.7577 22.9432 15.8292C22.6564 15.9005 22.2066 16.0377 21.9436 16.1338C21.6807 16.23 21.1918 16.4472 20.8572 16.6164C20.5226 16.7856 19.9945 17.1043 19.6838 17.3246C19.3731 17.5447 18.8438 18 18.5076 18.3362C18.1714 18.6724 17.7161 19.2017 17.496 19.5124C17.2757 19.8232 16.957 20.3512 16.7878 20.6858C16.6185 21.0204 16.4014 21.5093 16.3052 21.7722C16.2091 22.0352 16.0605 22.5045 15.9752 22.8152C15.8522 23.263 15.82 23.7136 15.82 24.9881C15.82 26.2627 15.8522 26.7133 15.9752 27.1611C16.0605 27.4718 16.2092 27.9404 16.3055 28.2025C16.4018 28.4645 16.6528 29.0125 16.8634 29.4201C17.0739 29.8277 17.5001 30.4787 17.8106 30.8667C18.1211 31.2548 18.6011 31.7668 18.8773 32.0045C19.1536 32.2423 19.5765 32.5772 19.8171 32.7488C20.0578 32.9204 20.6249 33.238 21.0774 33.4547C21.5299 33.6713 22.2522 33.9548 22.6824 34.0846C23.4111 34.3045 23.5778 34.321 25.1161 34.3259C26.5934 34.3305 26.8454 34.3095 27.5063 34.1263C27.9126 34.0137 28.6753 33.7164 29.2011 33.4656C29.727 33.2149 30.3919 32.8342 30.6787 32.6198C30.9656 32.4053 31.405 32.0445 31.6552 31.818C31.9056 31.5914 32.3515 31.0865 32.6463 30.696C32.9412 30.3054 33.371 29.5947 33.6015 29.1167C33.832 28.6386 34.127 27.8955 34.257 27.4653C34.4794 26.7293 34.4934 26.5828 34.4934 24.9881C34.4934 23.3925 34.4796 23.2475 34.2566 22.511C34.1264 22.0808 33.8431 21.3594 33.6269 20.908C33.4108 20.4565 33.0612 19.845 32.85 19.549C32.6388 19.2532 32.2652 18.7912 32.0197 18.5226C31.7742 18.2541 31.2547 17.7933 30.8653 17.4989C30.4759 17.2045 29.727 16.7572 29.2011 16.5049C28.6753 16.2528 27.9322 15.9627 27.5497 15.8603C27.005 15.7144 26.5439 15.6679 25.4203 15.6453C24.6315 15.6296 23.8688 15.6353 23.7254 15.658ZM27.289 16.806C27.6714 16.9058 28.4146 17.2037 28.9404 17.468C29.4882 17.7432 30.1651 18.1715 30.5255 18.4708C30.8715 18.7581 31.3901 19.2762 31.6779 19.6222C31.9846 19.9908 32.3988 20.647 32.6782 21.2073C32.9405 21.7331 33.2408 22.4763 33.3454 22.8587C33.5054 23.4433 33.5358 23.7824 33.5358 24.9881C33.5358 26.1939 33.5054 26.533 33.3454 27.1176C33.2408 27.5 32.9405 28.2432 32.6782 28.769C32.3988 29.3293 31.9846 29.9855 31.6779 30.3541C31.3901 30.7001 30.8715 31.2182 30.5255 31.5055C30.1651 31.8048 29.4882 32.233 28.9404 32.5083C28.4146 32.7726 27.6714 33.0733 27.289 33.1766C26.7086 33.3333 26.3566 33.3644 25.1595 33.3644C23.9538 33.3644 23.6147 33.334 23.0301 33.174C22.6477 33.0694 21.9045 32.7691 21.3787 32.5068C20.8184 32.2274 20.1622 31.8132 19.7936 31.5065C19.4476 31.2187 18.9295 30.7001 18.6422 30.3541C18.3429 29.9937 17.9146 29.3168 17.6394 28.769C17.3751 28.2432 17.0744 27.5 16.9711 27.1176C16.8144 26.5372 16.7833 26.1852 16.7833 24.9881C16.7833 23.7911 16.8144 23.4391 16.9711 22.8587C17.0744 22.4763 17.3751 21.7331 17.6394 21.2073C17.9147 20.6592 18.3429 19.9826 18.6426 19.6218C18.93 19.2756 19.4286 18.7742 19.7505 18.5074C20.0723 18.2407 20.5832 17.8833 20.8858 17.7132C21.1883 17.543 21.715 17.2865 22.0561 17.1432C22.3972 16.9999 23.0101 16.8099 23.4182 16.7209C24.0016 16.5936 24.4199 16.5661 25.3768 16.5918C26.2421 16.6151 26.7945 16.677 27.289 16.806ZM26.246 24.3797C24.8125 25.8139 23.6022 26.9872 23.5564 26.9872C23.5107 26.9872 22.9985 26.5179 22.4182 25.9442C21.838 25.3706 21.2982 24.9012 21.2188 24.9012C21.1394 24.9012 20.9963 24.9795 20.9006 25.0751C20.805 25.1707 20.7268 25.334 20.7268 25.4379C20.7268 25.5651 21.1454 26.049 22.0051 26.9155C23.0978 28.017 23.322 28.204 23.5496 28.204C23.7835 28.204 24.167 27.8522 26.704 25.311C28.3333 23.6792 29.5923 22.3506 29.5923 22.2633C29.5923 22.1781 29.5518 22.0328 29.5023 21.9403C29.4419 21.8276 29.3202 21.7722 29.1324 21.7722C28.8811 21.7722 28.5846 22.0401 26.246 24.3797Z"/>
</mask>
<path fill-rule="evenodd" clip-rule="evenodd" d="M24.9423 5.10041C24.8466 5.15412 24.453 5.49883 24.0674 5.86658C23.6818 6.23423 22.9776 6.84421 22.5025 7.22204C22.0274 7.59995 21.2281 8.18663 20.7265 8.52587C20.2247 8.86501 19.4671 9.34627 19.0431 9.59528C18.6189 9.84421 17.778 10.2953 17.1744 10.5975C16.5707 10.8997 15.6999 11.3073 15.2393 11.5031C14.7787 11.6989 13.84 12.0505 13.1533 12.2845C12.4666 12.5184 11.3562 12.8511 10.6856 13.0238C10.0152 13.1964 8.99868 13.4177 8.42686 13.5155C7.85512 13.6132 7.33171 13.7487 7.26383 13.8165C7.18882 13.8916 7.11416 14.2402 7.0734 14.7054C7.03654 15.1264 7.0036 16.1985 7.00021 17.0879C6.99682 17.9772 7.03437 19.2093 7.08365 19.8258C7.13285 20.4422 7.25175 21.4941 7.34779 22.1634C7.44383 22.8326 7.66043 24.0018 7.82913 24.7616C7.99784 25.5214 8.33325 26.7534 8.57453 27.4995C8.81572 28.2455 9.16825 29.247 9.3579 29.7251C9.54755 30.2031 9.93181 31.0741 10.2119 31.6607C10.492 32.2472 10.9932 33.1859 11.3257 33.7467C11.6581 34.3074 12.2232 35.1769 12.5813 35.6788C12.9394 36.1808 13.5447 36.963 13.9265 37.4172C14.3083 37.8713 15.1243 38.733 15.7398 39.3319C16.3554 39.931 17.2306 40.7084 17.6847 41.0597C18.1389 41.411 18.7842 41.8834 19.1189 42.1094C19.4535 42.3356 20.138 42.7568 20.6399 43.0454C21.1418 43.3341 21.9524 43.7497 22.4411 43.9691C22.9299 44.1885 23.7414 44.5101 24.2447 44.684L25.1595 45L26.0762 44.6834C26.5805 44.5092 27.3529 44.2051 27.7928 44.0076C28.2328 43.81 28.9447 43.4551 29.375 43.2187C29.8052 42.9822 30.5875 42.5024 31.1133 42.1523C31.6392 41.8022 32.4018 41.2517 32.8082 40.9288C33.2145 40.6059 34.1741 39.7131 34.9406 38.9447C35.8528 38.0301 36.6495 37.1272 37.2472 36.3307C37.7494 35.6615 38.3778 34.7619 38.6436 34.3316C38.9094 33.9014 39.3456 33.1387 39.6128 32.6368C39.8799 32.1348 40.3112 31.2353 40.5711 30.6377C40.8311 30.0402 41.2391 28.9841 41.4781 28.291C41.717 27.5978 42.0522 26.4831 42.2231 25.8139C42.3939 25.1446 42.6108 24.2059 42.705 23.7279C42.7993 23.2498 42.937 22.4089 43.011 21.8592C43.0852 21.3094 43.1856 20.3903 43.2345 19.8166C43.2833 19.243 43.3223 18.0696 43.321 17.2091C43.3198 16.3487 43.2843 15.2581 43.2421 14.7857C43.1951 14.2592 43.1185 13.8798 43.0443 13.8056C42.9777 13.739 42.4758 13.6078 41.929 13.514C41.3822 13.4202 40.4531 13.2256 39.8643 13.0815C39.2755 12.9375 38.2482 12.6413 37.5813 12.4234C36.9144 12.2054 35.9029 11.8355 35.3334 11.6015C34.764 11.3673 33.7915 10.9221 33.1726 10.6119C32.5536 10.3017 31.7002 9.84421 31.276 9.59528C30.852 9.34627 30.0944 8.86501 29.5926 8.52587C29.0909 8.18663 28.2944 7.60212 27.8227 7.22699C27.351 6.85177 26.6663 6.26222 26.3013 5.91681C25.9362 5.5715 25.5408 5.22331 25.4226 5.14317C25.3045 5.06304 25.1872 4.99863 25.1619 5.00002C25.1367 5.0015 25.0379 5.04661 24.9423 5.10041ZM26.0955 7.04586C26.5607 7.45541 27.2933 8.056 27.7236 8.38045C28.1538 8.70483 28.9165 9.24353 29.4184 9.57747C29.9204 9.91131 30.6048 10.3428 30.9395 10.5362C31.2741 10.7296 32.0258 11.128 32.6098 11.4214C33.1939 11.7148 33.9957 12.0944 34.3916 12.2649C34.7875 12.4354 35.5782 12.7492 36.1485 12.9625C36.719 13.1757 37.7754 13.5209 38.4961 13.7296C39.2169 13.9384 40.3341 14.212 40.9788 14.3378C41.6236 14.4635 42.1904 14.6056 42.2383 14.6535C42.2925 14.7077 42.3245 15.636 42.3228 17.1048C42.3213 18.4139 42.2715 19.8956 42.2112 20.425C42.1512 20.9509 42.007 21.9678 41.8905 22.6849C41.7741 23.4019 41.5398 24.552 41.37 25.2406C41.2 25.9292 40.8622 27.0825 40.6192 27.8034C40.3762 28.5245 39.9458 29.6429 39.663 30.2889C39.3801 30.9349 38.895 31.9268 38.5851 32.493C38.275 33.0593 37.7578 33.9196 37.4356 34.4047C37.1134 34.8897 36.5395 35.6781 36.1602 36.1564C35.7809 36.6347 34.9986 37.5098 34.4219 38.1012C33.8451 38.6925 32.9706 39.5085 32.4788 39.9145C31.9868 40.3205 31.0989 40.9768 30.5055 41.3732C29.9121 41.7694 28.9261 42.3464 28.3143 42.6553C27.7026 42.9643 26.811 43.3677 26.3329 43.5517C25.8549 43.7357 25.3269 43.8863 25.1595 43.8863C24.9922 43.8863 24.4642 43.7357 23.9862 43.5517C23.5081 43.3677 22.6165 42.9643 22.0047 42.6553C21.3929 42.3464 20.407 41.7694 19.8136 41.3732C19.2202 40.9768 18.3323 40.3199 17.8403 39.9132C17.3485 39.5065 16.4728 38.6905 15.8945 38.0999C15.3163 37.5093 14.5272 36.6268 14.141 36.1389C13.7548 35.6509 13.1808 34.8604 12.8654 34.382C12.55 33.9036 12.0396 33.0512 11.7312 32.4878C11.4228 31.9244 10.9324 30.9197 10.6414 30.2554C10.3504 29.5909 9.91938 28.4696 9.68358 27.7635C9.44778 27.0574 9.11706 25.9192 8.94853 25.2341C8.78008 24.5491 8.56723 23.558 8.47562 23.0317C8.38392 22.5054 8.23999 21.508 8.15568 20.8153C8.04486 19.9042 8.00123 18.8901 7.99801 17.1483C7.99506 15.5506 8.02478 14.7095 8.08641 14.6479C8.13751 14.5968 8.52864 14.4941 8.95557 14.4196C9.38259 14.3451 10.2404 14.1538 10.8618 13.9945C11.4833 13.8351 12.4406 13.5594 12.9892 13.382C13.5378 13.2045 14.496 12.8532 15.1186 12.6013C15.7412 12.3495 16.623 11.9665 17.0782 11.7503C17.5332 11.534 18.3703 11.0971 18.9382 10.7793C19.5062 10.4615 20.3781 9.93069 20.8758 9.59963C21.3735 9.26865 22.14 8.72621 22.5792 8.39419C23.0184 8.06225 23.7493 7.45836 24.2035 7.0522C24.6576 6.64613 25.0788 6.31098 25.1394 6.3075C25.2 6.30403 25.6302 6.63631 26.0955 7.04586ZM23.7254 15.658C23.582 15.6807 23.23 15.7577 22.9432 15.8292C22.6564 15.9005 22.2066 16.0377 21.9436 16.1338C21.6807 16.23 21.1918 16.4472 20.8572 16.6164C20.5226 16.7856 19.9945 17.1043 19.6838 17.3246C19.3731 17.5447 18.8438 18 18.5076 18.3362C18.1714 18.6724 17.7161 19.2017 17.496 19.5124C17.2757 19.8232 16.957 20.3512 16.7878 20.6858C16.6185 21.0204 16.4014 21.5093 16.3052 21.7722C16.2091 22.0352 16.0605 22.5045 15.9752 22.8152C15.8522 23.263 15.82 23.7136 15.82 24.9881C15.82 26.2627 15.8522 26.7133 15.9752 27.1611C16.0605 27.4718 16.2092 27.9404 16.3055 28.2025C16.4018 28.4645 16.6528 29.0125 16.8634 29.4201C17.0739 29.8277 17.5001 30.4787 17.8106 30.8667C18.1211 31.2548 18.6011 31.7668 18.8773 32.0045C19.1536 32.2423 19.5765 32.5772 19.8171 32.7488C20.0578 32.9204 20.6249 33.238 21.0774 33.4547C21.5299 33.6713 22.2522 33.9548 22.6824 34.0846C23.4111 34.3045 23.5778 34.321 25.1161 34.3259C26.5934 34.3305 26.8454 34.3095 27.5063 34.1263C27.9126 34.0137 28.6753 33.7164 29.2011 33.4656C29.727 33.2149 30.3919 32.8342 30.6787 32.6198C30.9656 32.4053 31.405 32.0445 31.6552 31.818C31.9056 31.5914 32.3515 31.0865 32.6463 30.696C32.9412 30.3054 33.371 29.5947 33.6015 29.1167C33.832 28.6386 34.127 27.8955 34.257 27.4653C34.4794 26.7293 34.4934 26.5828 34.4934 24.9881C34.4934 23.3925 34.4796 23.2475 34.2566 22.511C34.1264 22.0808 33.8431 21.3594 33.6269 20.908C33.4108 20.4565 33.0612 19.845 32.85 19.549C32.6388 19.2532 32.2652 18.7912 32.0197 18.5226C31.7742 18.2541 31.2547 17.7933 30.8653 17.4989C30.4759 17.2045 29.727 16.7572 29.2011 16.5049C28.6753 16.2528 27.9322 15.9627 27.5497 15.8603C27.005 15.7144 26.5439 15.6679 25.4203 15.6453C24.6315 15.6296 23.8688 15.6353 23.7254 15.658ZM27.289 16.806C27.6714 16.9058 28.4146 17.2037 28.9404 17.468C29.4882 17.7432 30.1651 18.1715 30.5255 18.4708C30.8715 18.7581 31.3901 19.2762 31.6779 19.6222C31.9846 19.9908 32.3988 20.647 32.6782 21.2073C32.9405 21.7331 33.2408 22.4763 33.3454 22.8587C33.5054 23.4433 33.5358 23.7824 33.5358 24.9881C33.5358 26.1939 33.5054 26.533 33.3454 27.1176C33.2408 27.5 32.9405 28.2432 32.6782 28.769C32.3988 29.3293 31.9846 29.9855 31.6779 30.3541C31.3901 30.7001 30.8715 31.2182 30.5255 31.5055C30.1651 31.8048 29.4882 32.233 28.9404 32.5083C28.4146 32.7726 27.6714 33.0733 27.289 33.1766C26.7086 33.3333 26.3566 33.3644 25.1595 33.3644C23.9538 33.3644 23.6147 33.334 23.0301 33.174C22.6477 33.0694 21.9045 32.7691 21.3787 32.5068C20.8184 32.2274 20.1622 31.8132 19.7936 31.5065C19.4476 31.2187 18.9295 30.7001 18.6422 30.3541C18.3429 29.9937 17.9146 29.3168 17.6394 28.769C17.3751 28.2432 17.0744 27.5 16.9711 27.1176C16.8144 26.5372 16.7833 26.1852 16.7833 24.9881C16.7833 23.7911 16.8144 23.4391 16.9711 22.8587C17.0744 22.4763 17.3751 21.7331 17.6394 21.2073C17.9147 20.6592 18.3429 19.9826 18.6426 19.6218C18.93 19.2756 19.4286 18.7742 19.7505 18.5074C20.0723 18.2407 20.5832 17.8833 20.8858 17.7132C21.1883 17.543 21.715 17.2865 22.0561 17.1432C22.3972 16.9999 23.0101 16.8099 23.4182 16.7209C24.0016 16.5936 24.4199 16.5661 25.3768 16.5918C26.2421 16.6151 26.7945 16.677 27.289 16.806ZM26.246 24.3797C24.8125 25.8139 23.6022 26.9872 23.5564 26.9872C23.5107 26.9872 22.9985 26.5179 22.4182 25.9442C21.838 25.3706 21.2982 24.9012 21.2188 24.9012C21.1394 24.9012 20.9963 24.9795 20.9006 25.0751C20.805 25.1707 20.7268 25.334 20.7268 25.4379C20.7268 25.5651 21.1454 26.049 22.0051 26.9155C23.0978 28.017 23.322 28.204 23.5496 28.204C23.7835 28.204 24.167 27.8522 26.704 25.311C28.3333 23.6792 29.5923 22.3506 29.5923 22.2633C29.5923 22.1781 29.5518 22.0328 29.5023 21.9403C29.4419 21.8276 29.3202 21.7722 29.1324 21.7722C28.8811 21.7722 28.5846 22.0401 26.246 24.3797Z" fill="white"/>
<path fill-rule="evenodd" clip-rule="evenodd" d="M24.9423 5.10041C24.8466 5.15412 24.453 5.49883 24.0674 5.86658C23.6818 6.23423 22.9776 6.84421 22.5025 7.22204C22.0274 7.59995 21.2281 8.18663 20.7265 8.52587C20.2247 8.86501 19.4671 9.34627 19.0431 9.59528C18.6189 9.84421 17.778 10.2953 17.1744 10.5975C16.5707 10.8997 15.6999 11.3073 15.2393 11.5031C14.7787 11.6989 13.84 12.0505 13.1533 12.2845C12.4666 12.5184 11.3562 12.8511 10.6856 13.0238C10.0152 13.1964 8.99868 13.4177 8.42686 13.5155C7.85512 13.6132 7.33171 13.7487 7.26383 13.8165C7.18882 13.8916 7.11416 14.2402 7.0734 14.7054C7.03654 15.1264 7.0036 16.1985 7.00021 17.0879C6.99682 17.9772 7.03437 19.2093 7.08365 19.8258C7.13285 20.4422 7.25175 21.4941 7.34779 22.1634C7.44383 22.8326 7.66043 24.0018 7.82913 24.7616C7.99784 25.5214 8.33325 26.7534 8.57453 27.4995C8.81572 28.2455 9.16825 29.247 9.3579 29.7251C9.54755 30.2031 9.93181 31.0741 10.2119 31.6607C10.492 32.2472 10.9932 33.1859 11.3257 33.7467C11.6581 34.3074 12.2232 35.1769 12.5813 35.6788C12.9394 36.1808 13.5447 36.963 13.9265 37.4172C14.3083 37.8713 15.1243 38.733 15.7398 39.3319C16.3554 39.931 17.2306 40.7084 17.6847 41.0597C18.1389 41.411 18.7842 41.8834 19.1189 42.1094C19.4535 42.3356 20.138 42.7568 20.6399 43.0454C21.1418 43.3341 21.9524 43.7497 22.4411 43.9691C22.9299 44.1885 23.7414 44.5101 24.2447 44.684L25.1595 45L26.0762 44.6834C26.5805 44.5092 27.3529 44.2051 27.7928 44.0076C28.2328 43.81 28.9447 43.4551 29.375 43.2187C29.8052 42.9822 30.5875 42.5024 31.1133 42.1523C31.6392 41.8022 32.4018 41.2517 32.8082 40.9288C33.2145 40.6059 34.1741 39.7131 34.9406 38.9447C35.8528 38.0301 36.6495 37.1272 37.2472 36.3307C37.7494 35.6615 38.3778 34.7619 38.6436 34.3316C38.9094 33.9014 39.3456 33.1387 39.6128 32.6368C39.8799 32.1348 40.3112 31.2353 40.5711 30.6377C40.8311 30.0402 41.2391 28.9841 41.4781 28.291C41.717 27.5978 42.0522 26.4831 42.2231 25.8139C42.3939 25.1446 42.6108 24.2059 42.705 23.7279C42.7993 23.2498 42.937 22.4089 43.011 21.8592C43.0852 21.3094 43.1856 20.3903 43.2345 19.8166C43.2833 19.243 43.3223 18.0696 43.321 17.2091C43.3198 16.3487 43.2843 15.2581 43.2421 14.7857C43.1951 14.2592 43.1185 13.8798 43.0443 13.8056C42.9777 13.739 42.4758 13.6078 41.929 13.514C41.3822 13.4202 40.4531 13.2256 39.8643 13.0815C39.2755 12.9375 38.2482 12.6413 37.5813 12.4234C36.9144 12.2054 35.9029 11.8355 35.3334 11.6015C34.764 11.3673 33.7915 10.9221 33.1726 10.6119C32.5536 10.3017 31.7002 9.84421 31.276 9.59528C30.852 9.34627 30.0944 8.86501 29.5926 8.52587C29.0909 8.18663 28.2944 7.60212 27.8227 7.22699C27.351 6.85177 26.6663 6.26222 26.3013 5.91681C25.9362 5.5715 25.5408 5.22331 25.4226 5.14317C25.3045 5.06304 25.1872 4.99863 25.1619 5.00002C25.1367 5.0015 25.0379 5.04661 24.9423 5.10041ZM26.0955 7.04586C26.5607 7.45541 27.2933 8.056 27.7236 8.38045C28.1538 8.70483 28.9165 9.24353 29.4184 9.57747C29.9204 9.91131 30.6048 10.3428 30.9395 10.5362C31.2741 10.7296 32.0258 11.128 32.6098 11.4214C33.1939 11.7148 33.9957 12.0944 34.3916 12.2649C34.7875 12.4354 35.5782 12.7492 36.1485 12.9625C36.719 13.1757 37.7754 13.5209 38.4961 13.7296C39.2169 13.9384 40.3341 14.212 40.9788 14.3378C41.6236 14.4635 42.1904 14.6056 42.2383 14.6535C42.2925 14.7077 42.3245 15.636 42.3228 17.1048C42.3213 18.4139 42.2715 19.8956 42.2112 20.425C42.1512 20.9509 42.007 21.9678 41.8905 22.6849C41.7741 23.4019 41.5398 24.552 41.37 25.2406C41.2 25.9292 40.8622 27.0825 40.6192 27.8034C40.3762 28.5245 39.9458 29.6429 39.663 30.2889C39.3801 30.9349 38.895 31.9268 38.5851 32.493C38.275 33.0593 37.7578 33.9196 37.4356 34.4047C37.1134 34.8897 36.5395 35.6781 36.1602 36.1564C35.7809 36.6347 34.9986 37.5098 34.4219 38.1012C33.8451 38.6925 32.9706 39.5085 32.4788 39.9145C31.9868 40.3205 31.0989 40.9768 30.5055 41.3732C29.9121 41.7694 28.9261 42.3464 28.3143 42.6553C27.7026 42.9643 26.811 43.3677 26.3329 43.5517C25.8549 43.7357 25.3269 43.8863 25.1595 43.8863C24.9922 43.8863 24.4642 43.7357 23.9862 43.5517C23.5081 43.3677 22.6165 42.9643 22.0047 42.6553C21.3929 42.3464 20.407 41.7694 19.8136 41.3732C19.2202 40.9768 18.3323 40.3199 17.8403 39.9132C17.3485 39.5065 16.4728 38.6905 15.8945 38.0999C15.3163 37.5093 14.5272 36.6268 14.141 36.1389C13.7548 35.6509 13.1808 34.8604 12.8654 34.382C12.55 33.9036 12.0396 33.0512 11.7312 32.4878C11.4228 31.9244 10.9324 30.9197 10.6414 30.2554C10.3504 29.5909 9.91938 28.4696 9.68358 27.7635C9.44778 27.0574 9.11706 25.9192 8.94853 25.2341C8.78008 24.5491 8.56723 23.558 8.47562 23.0317C8.38392 22.5054 8.23999 21.508 8.15568 20.8153C8.04486 19.9042 8.00123 18.8901 7.99801 17.1483C7.99506 15.5506 8.02478 14.7095 8.08641 14.6479C8.13751 14.5968 8.52864 14.4941 8.95557 14.4196C9.38259 14.3451 10.2404 14.1538 10.8618 13.9945C11.4833 13.8351 12.4406 13.5594 12.9892 13.382C13.5378 13.2045 14.496 12.8532 15.1186 12.6013C15.7412 12.3495 16.623 11.9665 17.0782 11.7503C17.5332 11.534 18.3703 11.0971 18.9382 10.7793C19.5062 10.4615 20.3781 9.93069 20.8758 9.59963C21.3735 9.26865 22.14 8.72621 22.5792 8.39419C23.0184 8.06225 23.7493 7.45836 24.2035 7.0522C24.6576 6.64613 25.0788 6.31098 25.1394 6.3075C25.2 6.30403 25.6302 6.63631 26.0955 7.04586ZM23.7254 15.658C23.582 15.6807 23.23 15.7577 22.9432 15.8292C22.6564 15.9005 22.2066 16.0377 21.9436 16.1338C21.6807 16.23 21.1918 16.4472 20.8572 16.6164C20.5226 16.7856 19.9945 17.1043 19.6838 17.3246C19.3731 17.5447 18.8438 18 18.5076 18.3362C18.1714 18.6724 17.7161 19.2017 17.496 19.5124C17.2757 19.8232 16.957 20.3512 16.7878 20.6858C16.6185 21.0204 16.4014 21.5093 16.3052 21.7722C16.2091 22.0352 16.0605 22.5045 15.9752 22.8152C15.8522 23.263 15.82 23.7136 15.82 24.9881C15.82 26.2627 15.8522 26.7133 15.9752 27.1611C16.0605 27.4718 16.2092 27.9404 16.3055 28.2025C16.4018 28.4645 16.6528 29.0125 16.8634 29.4201C17.0739 29.8277 17.5001 30.4787 17.8106 30.8667C18.1211 31.2548 18.6011 31.7668 18.8773 32.0045C19.1536 32.2423 19.5765 32.5772 19.8171 32.7488C20.0578 32.9204 20.6249 33.238 21.0774 33.4547C21.5299 33.6713 22.2522 33.9548 22.6824 34.0846C23.4111 34.3045 23.5778 34.321 25.1161 34.3259C26.5934 34.3305 26.8454 34.3095 27.5063 34.1263C27.9126 34.0137 28.6753 33.7164 29.2011 33.4656C29.727 33.2149 30.3919 32.8342 30.6787 32.6198C30.9656 32.4053 31.405 32.0445 31.6552 31.818C31.9056 31.5914 32.3515 31.0865 32.6463 30.696C32.9412 30.3054 33.371 29.5947 33.6015 29.1167C33.832 28.6386 34.127 27.8955 34.257 27.4653C34.4794 26.7293 34.4934 26.5828 34.4934 24.9881C34.4934 23.3925 34.4796 23.2475 34.2566 22.511C34.1264 22.0808 33.8431 21.3594 33.6269 20.908C33.4108 20.4565 33.0612 19.845 32.85 19.549C32.6388 19.2532 32.2652 18.7912 32.0197 18.5226C31.7742 18.2541 31.2547 17.7933 30.8653 17.4989C30.4759 17.2045 29.727 16.7572 29.2011 16.5049C28.6753 16.2528 27.9322 15.9627 27.5497 15.8603C27.005 15.7144 26.5439 15.6679 25.4203 15.6453C24.6315 15.6296 23.8688 15.6353 23.7254 15.658ZM27.289 16.806C27.6714 16.9058 28.4146 17.2037 28.9404 17.468C29.4882 17.7432 30.1651 18.1715 30.5255 18.4708C30.8715 18.7581 31.3901 19.2762 31.6779 19.6222C31.9846 19.9908 32.3988 20.647 32.6782 21.2073C32.9405 21.7331 33.2408 22.4763 33.3454 22.8587C33.5054 23.4433 33.5358 23.7824 33.5358 24.9881C33.5358 26.1939 33.5054 26.533 33.3454 27.1176C33.2408 27.5 32.9405 28.2432 32.6782 28.769C32.3988 29.3293 31.9846 29.9855 31.6779 30.3541C31.3901 30.7001 30.8715 31.2182 30.5255 31.5055C30.1651 31.8048 29.4882 32.233 28.9404 32.5083C28.4146 32.7726 27.6714 33.0733 27.289 33.1766C26.7086 33.3333 26.3566 33.3644 25.1595 33.3644C23.9538 33.3644 23.6147 33.334 23.0301 33.174C22.6477 33.0694 21.9045 32.7691 21.3787 32.5068C20.8184 32.2274 20.1622 31.8132 19.7936 31.5065C19.4476 31.2187 18.9295 30.7001 18.6422 30.3541C18.3429 29.9937 17.9146 29.3168 17.6394 28.769C17.3751 28.2432 17.0744 27.5 16.9711 27.1176C16.8144 26.5372 16.7833 26.1852 16.7833 24.9881C16.7833 23.7911 16.8144 23.4391 16.9711 22.8587C17.0744 22.4763 17.3751 21.7331 17.6394 21.2073C17.9147 20.6592 18.3429 19.9826 18.6426 19.6218C18.93 19.2756 19.4286 18.7742 19.7505 18.5074C20.0723 18.2407 20.5832 17.8833 20.8858 17.7132C21.1883 17.543 21.715 17.2865 22.0561 17.1432C22.3972 16.9999 23.0101 16.8099 23.4182 16.7209C24.0016 16.5936 24.4199 16.5661 25.3768 16.5918C26.2421 16.6151 26.7945 16.677 27.289 16.806ZM26.246 24.3797C24.8125 25.8139 23.6022 26.9872 23.5564 26.9872C23.5107 26.9872 22.9985 26.5179 22.4182 25.9442C21.838 25.3706 21.2982 24.9012 21.2188 24.9012C21.1394 24.9012 20.9963 24.9795 20.9006 25.0751C20.805 25.1707 20.7268 25.334 20.7268 25.4379C20.7268 25.5651 21.1454 26.049 22.0051 26.9155C23.0978 28.017 23.322 28.204 23.5496 28.204C23.7835 28.204 24.167 27.8522 26.704 25.311C28.3333 23.6792 29.5923 22.3506 29.5923 22.2633C29.5923 22.1781 29.5518 22.0328 29.5023 21.9403C29.4419 21.8276 29.3202 21.7722 29.1324 21.7722C28.8811 21.7722 28.5846 22.0401 26.246 24.3797Z" stroke="white" stroke-width="0.4" mask="url(#path-1-outside-1_762_1452)"/>
</svg>
