<svg width="15" height="15" viewBox="0 0 15 15" fill="none" xmlns="http://www.w3.org/2000/svg">
<g clip-path="url(#clip0_938_3166)">
<path d="M5.4626 8.27568C5.4626 8.08777 5.31019 7.93555 5.12214 7.93555H3.93403C3.74619 7.93555 3.59375 8.08777 3.59375 8.27568V9.46363C3.59375 9.65177 3.74619 9.80406 3.93403 9.80406H5.12214C5.31019 9.80406 5.4626 9.65177 5.4626 9.46363V8.27568Z" fill="#96A3AE"/>
<path d="M8.43118 8.27568C8.43118 8.08777 8.27874 7.93555 8.09105 7.93555H6.90279C6.71494 7.93555 6.5625 8.08777 6.5625 8.27568V9.46363C6.5625 9.65177 6.71494 9.80406 6.90279 9.80406H8.09105C8.27874 9.80406 8.43118 9.65177 8.43118 9.46363V8.27568Z" fill="#96A3AE"/>
<path d="M11.4001 8.27568C11.4001 8.08777 11.2477 7.93555 11.0598 7.93555H9.87172C9.68366 7.93555 9.53125 8.08777 9.53125 8.27568V9.46363C9.53125 9.65177 9.68366 9.80406 9.87172 9.80406H11.0598C11.2477 9.80406 11.4001 9.65177 11.4001 9.46363V8.27568Z" fill="#96A3AE"/>
<path d="M5.4626 11.2446C5.4626 11.0564 5.31019 10.9043 5.12214 10.9043H3.93403C3.74619 10.9043 3.59375 11.0564 3.59375 11.2446V12.4323C3.59375 12.6204 3.74619 12.7726 3.93403 12.7726H5.12214C5.31019 12.7726 5.4626 12.6203 5.4626 12.4323V11.2446Z" fill="#96A3AE"/>
<path d="M8.43118 11.2446C8.43118 11.0564 8.27874 10.9043 8.09105 10.9043H6.90279C6.71494 10.9043 6.5625 11.0564 6.5625 11.2446V12.4323C6.5625 12.6204 6.71494 12.7726 6.90279 12.7726H8.09105C8.27874 12.7726 8.43118 12.6203 8.43118 12.4323V11.2446Z" fill="#96A3AE"/>
<path d="M11.4001 11.2446C11.4001 11.0564 11.2477 10.9043 11.06 10.9043H9.87172C9.68366 10.9043 9.53125 11.0564 9.53125 11.2446V12.4323C9.53125 12.6204 9.68366 12.7726 9.87172 12.7726H11.06C11.2477 12.7726 11.4001 12.6203 11.4001 12.4323V11.2446Z" fill="#96A3AE"/>
<path d="M13.526 1.67058V3.48507C13.526 4.30521 12.8607 4.96611 12.0406 4.96611H11.1036C10.2836 4.96611 9.60943 4.30521 9.60943 3.48507V1.66406H5.38616V3.48507C5.38616 4.30521 4.71204 4.96611 3.89209 4.96611H2.95491C2.13493 4.96611 1.46964 4.30521 1.46964 3.48507V1.67058C0.752967 1.69218 0.164062 2.2852 0.164062 3.0141V13.6479C0.164062 14.3905 0.765965 15.0004 1.50857 15.0004H13.487C14.2285 15.0004 14.8315 14.3893 14.8315 13.6479V3.0141C14.8315 2.2852 14.2426 1.69218 13.526 1.67058ZM13.0908 12.9857C13.0908 13.3066 12.8306 13.567 12.5095 13.567H2.46047C2.13942 13.567 1.87921 13.3066 1.87921 12.9857V7.49298C1.87921 7.17193 2.13939 6.91157 2.46047 6.91157H12.5095C12.8305 6.91157 13.0907 7.17193 13.0907 7.49298L13.0908 12.9857Z" fill="#96A3AE"/>
<path d="M2.94691 3.99297H3.87373C4.15505 3.99297 4.38314 3.76521 4.38314 3.48389V0.509257C4.38314 0.227911 4.15505 0 3.87373 0H2.94691C2.66556 0 2.4375 0.227911 2.4375 0.509257V3.48389C2.4375 3.76521 2.66556 3.99297 2.94691 3.99297Z" fill="#96A3AE"/>
<path d="M11.0875 3.99297H12.0143C12.2955 3.99297 12.5236 3.76521 12.5236 3.48389V0.509257C12.5236 0.227911 12.2955 0 12.0143 0H11.0875C10.8062 0 10.5781 0.227911 10.5781 0.509257V3.48389C10.5781 3.76521 10.8062 3.99297 11.0875 3.99297Z" fill="#96A3AE"/>
</g>
<defs>
<clipPath id="clip0_938_3166">
<rect width="15" height="15" fill="white"/>
</clipPath>
</defs>
</svg>
