<svg width="20" height="20" viewBox="0 0 20 20" fill="none" xmlns="http://www.w3.org/2000/svg">
<g clip-path="url(#clip0_438_652)">
<path d="M13.5454 5.59095L14.2083 6.25387C14.2673 6.31279 14.2673 6.37172 14.2083 6.43064L6.43016 14.2088C6.37123 14.2677 6.31231 14.2677 6.25338 14.2088L5.59047 13.5459C5.53154 13.487 5.53154 13.4281 5.59047 13.3691L13.3686 5.59095C13.4276 5.53203 13.4865 5.53203 13.5454 5.59095Z" fill="#BFBFBF" stroke="#BFBFBF" stroke-width="0.4"/>
<path d="M6.60401 5.76801L14.0286 13.1926C14.0876 13.2516 14.0876 13.3105 14.0286 13.3694L13.3657 14.0323C13.3068 14.0913 13.2479 14.0913 13.1889 14.0323L5.76432 6.6077C5.7054 6.54878 5.7054 6.48985 5.76432 6.43093L6.42724 5.76801C6.48616 5.70909 6.54509 5.70909 6.60401 5.76801Z" fill="#BFBFBF" stroke="#BFBFBF" stroke-width="0.4"/>
</g>
<defs>
<clipPath id="clip0_438_652">
<path d="M9.19133 0.707107C9.58185 0.316583 10.215 0.316583 10.6055 0.707107L19.0908 9.19239C19.4813 9.58291 19.4813 10.2161 19.0908 10.6066L10.6055 19.0919C10.215 19.4824 9.58185 19.4824 9.19133 19.0919L0.70605 10.6066C0.315525 10.2161 0.315526 9.58291 0.70605 9.19239L9.19133 0.707107Z" fill="white"/>
</clipPath>
</defs>
</svg>
