<svg width="20" height="20" viewBox="0 0 20 20" fill="none" xmlns="http://www.w3.org/2000/svg">
<path d="M19 1.42859C19.5523 1.42859 20 1.8763 20 2.42859V2.92859C20 3.48087 19.5523 3.92859 19 3.92859L6 3.92859C5.44771 3.92859 5 3.48087 5 2.92859V2.42859C5 1.8763 5.44771 1.42859 6 1.42859L19 1.42859Z" fill="#3A2781"/>
<path d="M1.5 1.42859C2.05228 1.42859 2.5 1.8763 2.5 2.42859V2.92859C2.5 3.48087 2.05228 3.92859 1.5 3.92859H1C0.447715 3.92859 1.95703e-08 3.48087 4.37115e-08 2.92859L6.55672e-08 2.42859C8.97083e-08 1.8763 0.447715 1.42859 1 1.42859L1.5 1.42859Z" fill="#3A2781"/>
<path d="M19 8.75002C19.5523 8.75002 20 9.19773 20 9.75002V10.25C20 10.8023 19.5523 11.25 19 11.25L6 11.25C5.44771 11.25 5 10.8023 5 10.25V9.75002C5 9.19773 5.44771 8.75002 6 8.75002L19 8.75002Z" fill="#3A2781"/>
<path d="M1.5 8.75002C2.05228 8.75002 2.5 9.19773 2.5 9.75002V10.25C2.5 10.8023 2.05228 11.25 1.5 11.25H1C0.447715 11.25 1.95703e-08 10.8023 4.37115e-08 10.25L6.55672e-08 9.75002C8.97083e-08 9.19773 0.447715 8.75002 1 8.75002H1.5Z" fill="#3A2781"/>
<path d="M14.7143 16.0714C15.2666 16.0714 15.7143 16.5192 15.7143 17.0714V17.5714C15.7143 18.1237 15.2666 18.5714 14.7143 18.5714L6 18.5714C5.44771 18.5714 5 18.1237 5 17.5714V17.0714C5 16.5192 5.44771 16.0714 6 16.0714L14.7143 16.0714Z" fill="#3A2781"/>
<path d="M1.5 16.0714C2.05228 16.0714 2.5 16.5192 2.5 17.0714V17.5714C2.5 18.1237 2.05228 18.5714 1.5 18.5714H1C0.447715 18.5714 1.95703e-08 18.1237 4.37115e-08 17.5714L6.55672e-08 17.0714C8.97084e-08 16.5192 0.447715 16.0714 1 16.0714H1.5Z" fill="#3A2781"/>
</svg>
