<svg width="30" height="30" viewBox="0 0 30 30" fill="none" xmlns="http://www.w3.org/2000/svg">
<mask id="path-1-inside-1_545_705" fill="white">
<path fill-rule="evenodd" clip-rule="evenodd" d="M0.569928 0.163597C0.436403 0.253525 0.253525 0.436403 0.163597 0.569928C0.0510071 0.736907 0 0.918201 0 1.15108C0 1.38396 0.0510071 1.56525 0.163597 1.73223C0.253525 1.86576 0.436403 2.04863 0.569928 2.13856C0.789496 2.28655 0.896475 2.30216 1.69245 2.30216C2.31022 2.30216 2.5936 2.32892 2.64388 2.39209C2.68324 2.44158 4.04691 6.03518 5.67424 10.3778C7.30158 14.7206 8.63309 18.3017 8.63309 18.3359C8.63309 18.3701 8.31748 18.4145 7.93165 18.4347C7.45374 18.4596 7.09669 18.5223 6.81122 18.6313C6.58072 18.7193 6.19223 18.9419 5.94791 19.1259C5.68345 19.325 5.38043 19.6441 5.1995 19.9142C5.03223 20.1637 4.82986 20.5799 4.74986 20.839C4.65705 21.1394 4.60432 21.5113 4.60432 21.865C4.60432 22.1702 4.6559 22.5958 4.71892 22.8106C4.78201 23.0256 4.92669 23.3655 5.0405 23.5661C5.15432 23.7667 5.44144 24.1158 5.67856 24.342C5.93417 24.5858 6.30388 24.8441 6.58676 24.9765C7.05022 25.1934 7.06252 25.206 7.01957 25.4236C6.99532 25.5468 6.9564 25.9712 6.93317 26.3669C6.89669 26.9881 6.91237 27.1502 7.0482 27.554C7.13468 27.8112 7.30093 28.1715 7.4177 28.3548C7.53446 28.5381 7.80683 28.8553 8.02302 29.0597C8.23921 29.2642 8.61863 29.526 8.86626 29.6415C9.11396 29.757 9.55129 29.8915 9.83813 29.9404C10.2499 30.0106 10.4696 30.0108 10.8813 29.9416C11.1682 29.8934 11.606 29.7549 11.8542 29.6339C12.1024 29.5129 12.4937 29.2395 12.7238 29.0265C12.9551 28.8124 13.2411 28.4528 13.3633 28.2224C13.4849 27.9932 13.6395 27.6147 13.7069 27.3812C13.7991 27.0621 13.8196 26.8029 13.7895 26.338C13.7675 25.9978 13.7276 25.6304 13.7009 25.5216L13.6523 25.3237H15.6285C17.5648 25.3237 17.6095 25.3204 17.8473 25.1601C17.9809 25.0702 18.1637 24.8873 18.2537 24.7538C18.3663 24.5868 18.4173 24.4055 18.4173 24.1727C18.4173 23.9398 18.3663 23.7585 18.2537 23.5915C18.1637 23.458 17.9809 23.2751 17.8473 23.1852L17.6046 23.0216H12.7384H7.87223L7.55122 22.8597C7.31669 22.7414 7.18662 22.6114 7.06835 22.3768C6.97928 22.2003 6.90647 21.9724 6.90647 21.8705C6.90647 21.7686 6.97928 21.5407 7.06835 21.3642C7.18662 21.1296 7.31669 20.9996 7.55122 20.8813L7.87223 20.7194H17.2768C23.7635 20.7194 26.7441 20.6956 26.8838 20.6427C26.9952 20.6005 27.1633 20.4953 27.2575 20.4088C27.3516 20.3225 27.4725 20.1487 27.5263 20.0227C27.5799 19.8968 28.1423 16.6842 28.776 12.8839C29.4096 9.08345 29.9281 5.84863 29.9281 5.69547C29.9281 5.52489 29.8647 5.32288 29.7645 5.17424C29.6745 5.04072 29.4917 4.85784 29.3581 4.76791L29.1154 4.60432H19.5683H10.314C10.1232 4.60432 9.93677 4.66128 9.77856 4.76791C9.64503 4.85784 9.46216 5.04072 9.37223 5.17424C9.25964 5.34122 9.20863 5.52252 9.20863 5.7554C9.20863 5.98827 9.25964 6.16957 9.37223 6.33655C9.46216 6.47007 9.64503 6.65295 9.77856 6.74288C9.93677 6.84951 10.1232 6.90648 10.314 6.90648H18.6797H27.3381L27.3396 7.06835C27.3404 7.15741 26.9305 9.70683 26.4288 12.7338C25.927 15.7608 25.4854 18.2779 25.4473 18.3273C25.3927 18.3982 23.8794 18.4173 18.3094 18.4173C12.7405 18.4173 11.2255 18.3982 11.1691 18.3273C11.1297 18.2779 9.61878 14.2878 7.81137 9.46043C6.00396 4.63309 4.46719 0.602518 4.39626 0.503597C4.32532 0.404676 4.16029 0.250863 4.0295 0.161871C3.8018 0.00690647 3.72842 0 2.30216 0C0.872014 0 0.80295 0.00654663 0.569928 0.163597ZM23.3514 23.0981C23.1965 23.1366 22.861 23.2709 22.6059 23.3965C22.336 23.5294 21.9707 23.7962 21.7324 24.0345C21.4962 24.2707 21.2273 24.638 21.0974 24.9019C20.9735 25.1537 20.8385 25.5054 20.7975 25.6835C20.7565 25.8615 20.7229 26.2176 20.7229 26.4748C20.7229 26.732 20.7565 27.0881 20.7975 27.2662C20.8385 27.4442 20.973 27.795 21.0965 28.0458C21.2293 28.3157 21.4922 28.6715 21.741 28.9179C21.9781 29.1528 22.3564 29.4303 22.6094 29.5548C22.8558 29.6761 23.2032 29.809 23.3813 29.85C23.5594 29.891 23.9155 29.9245 24.1727 29.9245C24.4299 29.9245 24.786 29.891 24.964 29.85C25.1421 29.809 25.4937 29.674 25.7455 29.5501C26.0095 29.4201 26.3768 29.1513 26.6129 28.9151C26.8507 28.6773 27.1181 28.3115 27.2502 28.0432C27.3753 27.7889 27.5149 27.4076 27.5604 27.1957C27.6058 26.9838 27.6275 26.565 27.6086 26.2649C27.5896 25.9649 27.5083 25.5359 27.4277 25.3117C27.3471 25.0874 27.1812 24.7586 27.059 24.5809C26.9368 24.4032 26.7362 24.1573 26.6132 24.0343C26.4902 23.9113 26.2442 23.7107 26.0665 23.5885C25.8889 23.4663 25.5601 23.2997 25.3358 23.2184C25.0673 23.1211 24.707 23.0634 24.2806 23.0494C23.9245 23.0377 23.5063 23.0596 23.3514 23.0981ZM10.866 25.4856C11.1006 25.6039 11.2306 25.734 11.3489 25.9685C11.438 26.145 11.5108 26.3729 11.5108 26.4748C11.5108 26.5768 11.438 26.8046 11.3489 26.9812C11.2306 27.2157 11.1006 27.3458 10.866 27.464C10.6895 27.5531 10.4617 27.6259 10.3597 27.6259C10.2578 27.6259 10.0299 27.5531 9.85338 27.464C9.61885 27.3458 9.48878 27.2157 9.3705 26.9812C9.28144 26.8046 9.20863 26.5768 9.20863 26.4748C9.20863 26.3729 9.28144 26.145 9.3705 25.9685C9.48878 25.734 9.61885 25.6039 9.85338 25.4856C10.0299 25.3965 10.2578 25.3237 10.3597 25.3237C10.4617 25.3237 10.6895 25.3965 10.866 25.4856ZM24.679 25.4856C24.9135 25.6039 25.0436 25.734 25.1619 25.9685C25.2509 26.145 25.3237 26.3729 25.3237 26.4748C25.3237 26.5768 25.2509 26.8046 25.1619 26.9812C25.0436 27.2157 24.9135 27.3458 24.679 27.464C24.5024 27.5531 24.2746 27.6259 24.1727 27.6259C24.0707 27.6259 23.8429 27.5531 23.6663 27.464C23.4318 27.3458 23.3017 27.2157 23.1835 26.9812C23.0944 26.8046 23.0216 26.5768 23.0216 26.4748C23.0216 26.3729 23.0944 26.145 23.1835 25.9685C23.3017 25.734 23.4318 25.6039 23.6663 25.4856C23.8429 25.3965 24.0707 25.3237 24.1727 25.3237C24.2746 25.3237 24.5024 25.3965 24.679 25.4856Z"/>
</mask>
<path fill-rule="evenodd" clip-rule="evenodd" d="M0.569928 0.163597C0.436403 0.253525 0.253525 0.436403 0.163597 0.569928C0.0510071 0.736907 0 0.918201 0 1.15108C0 1.38396 0.0510071 1.56525 0.163597 1.73223C0.253525 1.86576 0.436403 2.04863 0.569928 2.13856C0.789496 2.28655 0.896475 2.30216 1.69245 2.30216C2.31022 2.30216 2.5936 2.32892 2.64388 2.39209C2.68324 2.44158 4.04691 6.03518 5.67424 10.3778C7.30158 14.7206 8.63309 18.3017 8.63309 18.3359C8.63309 18.3701 8.31748 18.4145 7.93165 18.4347C7.45374 18.4596 7.09669 18.5223 6.81122 18.6313C6.58072 18.7193 6.19223 18.9419 5.94791 19.1259C5.68345 19.325 5.38043 19.6441 5.1995 19.9142C5.03223 20.1637 4.82986 20.5799 4.74986 20.839C4.65705 21.1394 4.60432 21.5113 4.60432 21.865C4.60432 22.1702 4.6559 22.5958 4.71892 22.8106C4.78201 23.0256 4.92669 23.3655 5.0405 23.5661C5.15432 23.7667 5.44144 24.1158 5.67856 24.342C5.93417 24.5858 6.30388 24.8441 6.58676 24.9765C7.05022 25.1934 7.06252 25.206 7.01957 25.4236C6.99532 25.5468 6.9564 25.9712 6.93317 26.3669C6.89669 26.9881 6.91237 27.1502 7.0482 27.554C7.13468 27.8112 7.30093 28.1715 7.4177 28.3548C7.53446 28.5381 7.80683 28.8553 8.02302 29.0597C8.23921 29.2642 8.61863 29.526 8.86626 29.6415C9.11396 29.757 9.55129 29.8915 9.83813 29.9404C10.2499 30.0106 10.4696 30.0108 10.8813 29.9416C11.1682 29.8934 11.606 29.7549 11.8542 29.6339C12.1024 29.5129 12.4937 29.2395 12.7238 29.0265C12.9551 28.8124 13.2411 28.4528 13.3633 28.2224C13.4849 27.9932 13.6395 27.6147 13.7069 27.3812C13.7991 27.0621 13.8196 26.8029 13.7895 26.338C13.7675 25.9978 13.7276 25.6304 13.7009 25.5216L13.6523 25.3237H15.6285C17.5648 25.3237 17.6095 25.3204 17.8473 25.1601C17.9809 25.0702 18.1637 24.8873 18.2537 24.7538C18.3663 24.5868 18.4173 24.4055 18.4173 24.1727C18.4173 23.9398 18.3663 23.7585 18.2537 23.5915C18.1637 23.458 17.9809 23.2751 17.8473 23.1852L17.6046 23.0216H12.7384H7.87223L7.55122 22.8597C7.31669 22.7414 7.18662 22.6114 7.06835 22.3768C6.97928 22.2003 6.90647 21.9724 6.90647 21.8705C6.90647 21.7686 6.97928 21.5407 7.06835 21.3642C7.18662 21.1296 7.31669 20.9996 7.55122 20.8813L7.87223 20.7194H17.2768C23.7635 20.7194 26.7441 20.6956 26.8838 20.6427C26.9952 20.6005 27.1633 20.4953 27.2575 20.4088C27.3516 20.3225 27.4725 20.1487 27.5263 20.0227C27.5799 19.8968 28.1423 16.6842 28.776 12.8839C29.4096 9.08345 29.9281 5.84863 29.9281 5.69547C29.9281 5.52489 29.8647 5.32288 29.7645 5.17424C29.6745 5.04072 29.4917 4.85784 29.3581 4.76791L29.1154 4.60432H19.5683H10.314C10.1232 4.60432 9.93677 4.66128 9.77856 4.76791C9.64503 4.85784 9.46216 5.04072 9.37223 5.17424C9.25964 5.34122 9.20863 5.52252 9.20863 5.7554C9.20863 5.98827 9.25964 6.16957 9.37223 6.33655C9.46216 6.47007 9.64503 6.65295 9.77856 6.74288C9.93677 6.84951 10.1232 6.90648 10.314 6.90648H18.6797H27.3381L27.3396 7.06835C27.3404 7.15741 26.9305 9.70683 26.4288 12.7338C25.927 15.7608 25.4854 18.2779 25.4473 18.3273C25.3927 18.3982 23.8794 18.4173 18.3094 18.4173C12.7405 18.4173 11.2255 18.3982 11.1691 18.3273C11.1297 18.2779 9.61878 14.2878 7.81137 9.46043C6.00396 4.63309 4.46719 0.602518 4.39626 0.503597C4.32532 0.404676 4.16029 0.250863 4.0295 0.161871C3.8018 0.00690647 3.72842 0 2.30216 0C0.872014 0 0.80295 0.00654663 0.569928 0.163597ZM23.3514 23.0981C23.1965 23.1366 22.861 23.2709 22.6059 23.3965C22.336 23.5294 21.9707 23.7962 21.7324 24.0345C21.4962 24.2707 21.2273 24.638 21.0974 24.9019C20.9735 25.1537 20.8385 25.5054 20.7975 25.6835C20.7565 25.8615 20.7229 26.2176 20.7229 26.4748C20.7229 26.732 20.7565 27.0881 20.7975 27.2662C20.8385 27.4442 20.973 27.795 21.0965 28.0458C21.2293 28.3157 21.4922 28.6715 21.741 28.9179C21.9781 29.1528 22.3564 29.4303 22.6094 29.5548C22.8558 29.6761 23.2032 29.809 23.3813 29.85C23.5594 29.891 23.9155 29.9245 24.1727 29.9245C24.4299 29.9245 24.786 29.891 24.964 29.85C25.1421 29.809 25.4937 29.674 25.7455 29.5501C26.0095 29.4201 26.3768 29.1513 26.6129 28.9151C26.8507 28.6773 27.1181 28.3115 27.2502 28.0432C27.3753 27.7889 27.5149 27.4076 27.5604 27.1957C27.6058 26.9838 27.6275 26.565 27.6086 26.2649C27.5896 25.9649 27.5083 25.5359 27.4277 25.3117C27.3471 25.0874 27.1812 24.7586 27.059 24.5809C26.9368 24.4032 26.7362 24.1573 26.6132 24.0343C26.4902 23.9113 26.2442 23.7107 26.0665 23.5885C25.8889 23.4663 25.5601 23.2997 25.3358 23.2184C25.0673 23.1211 24.707 23.0634 24.2806 23.0494C23.9245 23.0377 23.5063 23.0596 23.3514 23.0981ZM10.866 25.4856C11.1006 25.6039 11.2306 25.734 11.3489 25.9685C11.438 26.145 11.5108 26.3729 11.5108 26.4748C11.5108 26.5768 11.438 26.8046 11.3489 26.9812C11.2306 27.2157 11.1006 27.3458 10.866 27.464C10.6895 27.5531 10.4617 27.6259 10.3597 27.6259C10.2578 27.6259 10.0299 27.5531 9.85338 27.464C9.61885 27.3458 9.48878 27.2157 9.3705 26.9812C9.28144 26.8046 9.20863 26.5768 9.20863 26.4748C9.20863 26.3729 9.28144 26.145 9.3705 25.9685C9.48878 25.734 9.61885 25.6039 9.85338 25.4856C10.0299 25.3965 10.2578 25.3237 10.3597 25.3237C10.4617 25.3237 10.6895 25.3965 10.866 25.4856ZM24.679 25.4856C24.9135 25.6039 25.0436 25.734 25.1619 25.9685C25.2509 26.145 25.3237 26.3729 25.3237 26.4748C25.3237 26.5768 25.2509 26.8046 25.1619 26.9812C25.0436 27.2157 24.9135 27.3458 24.679 27.464C24.5024 27.5531 24.2746 27.6259 24.1727 27.6259C24.0707 27.6259 23.8429 27.5531 23.6663 27.464C23.4318 27.3458 23.3017 27.2157 23.1835 26.9812C23.0944 26.8046 23.0216 26.5768 23.0216 26.4748C23.0216 26.3729 23.0944 26.145 23.1835 25.9685C23.3017 25.734 23.4318 25.6039 23.6663 25.4856C23.8429 25.3965 24.0707 25.3237 24.1727 25.3237C24.2746 25.3237 24.5024 25.3965 24.679 25.4856Z" fill="black" stroke="white" stroke-width="0.6" mask="url(#path-1-inside-1_545_705)"/>
</svg>
