<svg width="21" height="21" viewBox="0 0 21 21" fill="none" xmlns="http://www.w3.org/2000/svg">
<g clip-path="url(#clip0_438_2530)">
<path d="M13.9219 10.6076L21.0015 15.0832V5.94299L13.9219 10.6076Z" fill="#E9E9E9"/>
<path d="M0 5.94299V15.0832L7.07963 10.6076L0 5.94299Z" fill="#E9E9E9"/>
<path d="M19.6872 3.28125H1.31219C0.65725 3.28125 0.1375 3.7695 0.0390625 4.39819L10.4997 11.2901L20.9603 4.39819C20.8619 3.7695 20.3421 3.28125 19.6872 3.28125Z" fill="#E9E9E9"/>
<path d="M12.7191 11.4004L10.8619 12.6236C10.7517 12.6958 10.627 12.7312 10.501 12.7312C10.375 12.7312 10.2503 12.6958 10.14 12.6236L8.28284 11.399L0.0429688 16.611C0.144031 17.2344 0.661156 17.7187 1.31347 17.7187H19.6885C20.3408 17.7187 20.8579 17.2344 20.959 16.611L12.7191 11.4004Z" fill="#E9E9E9"/>
</g>
<defs>
<clipPath id="clip0_438_2530">
<rect width="21" height="21" fill="white"/>
</clipPath>
</defs>
</svg>
