<svg width="23" height="23" viewBox="0 0 23 23" fill="none" xmlns="http://www.w3.org/2000/svg">
<path d="M4.125 3L2 5.125" stroke="#E9E9E9" stroke-width="2" stroke-linecap="round"/>
<path d="M19 3L21.125 5.125" stroke="#E9E9E9" stroke-width="2" stroke-linecap="round"/>
<path fill-rule="evenodd" clip-rule="evenodd" d="M11.5625 20C16.2569 20 20.0625 16.1944 20.0625 11.5C20.0625 6.80558 16.2569 3 11.5625 3C6.86808 3 3.0625 6.80558 3.0625 11.5C3.0625 16.1944 6.86808 20 11.5625 20ZM14.4684 9.46844C14.8134 9.03718 14.7435 8.40789 14.3122 8.06288C13.8809 7.71787 13.2516 7.78779 12.9066 8.21906L11.3544 10.1594L8.9297 8.54295C8.47017 8.2366 7.8493 8.36077 7.54295 8.8203C7.2366 9.27983 7.36077 9.9007 7.8203 10.2071L10.8171 12.2049C11.3566 12.5646 12.0815 12.452 12.4866 11.9457L14.4684 9.46844Z" fill="#E9E9E9"/>
</svg>
