<svg width="23" height="23" viewBox="0 0 23 23" fill="none" xmlns="http://www.w3.org/2000/svg">
<path d="M1.92188 8.62533C1.92188 6.90127 1.92188 6.03925 2.4182 5.4733C2.47575 5.40767 2.53755 5.34587 2.60318 5.28831C3.16913 4.79199 4.03115 4.79199 5.75521 4.79199H17.2552C18.9793 4.79199 19.8413 4.79199 20.4072 5.28831C20.4729 5.34587 20.5347 5.40767 20.5922 5.4733C21.0885 6.03925 21.0885 6.90127 21.0885 8.62533C21.0885 9.05634 21.0885 9.27185 20.9645 9.41333C20.9501 9.42974 20.9346 9.44519 20.9182 9.45958C20.7767 9.58366 20.5612 9.58366 20.1302 9.58366H2.88021C2.44919 9.58366 2.23369 9.58366 2.0922 9.45958C2.07579 9.44519 2.06034 9.42974 2.04596 9.41333C1.92188 9.27185 1.92188 9.05634 1.92188 8.62533Z" fill="#E9E9E9"/>
<path fill-rule="evenodd" clip-rule="evenodd" d="M1.92188 17.0831C1.92188 18.9687 1.92188 19.9115 2.50766 20.4973C3.09345 21.0831 4.03626 21.0831 5.92188 21.0831H17.0885C18.9742 21.0831 19.917 21.0831 20.5028 20.4973C21.0885 19.9115 21.0885 18.9687 21.0885 17.0831V12.4998C21.0885 12.0284 21.0885 11.7926 20.9421 11.6462C20.7956 11.4998 20.5599 11.4998 20.0885 11.4998H2.92187C2.45047 11.4998 2.21477 11.4998 2.06832 11.6462C1.92188 11.7926 1.92188 12.0284 1.92188 12.4998V17.0831ZM6.71484 14.3754C6.71484 13.9444 6.71484 13.7289 6.83892 13.5874C6.85331 13.571 6.86876 13.5555 6.88517 13.5412C7.02666 13.4171 7.24216 13.4171 7.67318 13.4171H9.58984C10.0209 13.4171 10.2364 13.4171 10.3779 13.5412C10.3943 13.5555 10.4097 13.571 10.4241 13.5874C10.5482 13.7289 10.5482 13.9444 10.5482 14.3754C10.5482 14.8064 10.5482 15.0219 10.4241 15.1634C10.4097 15.1798 10.3943 15.1953 10.3779 15.2097C10.2364 15.3337 10.0209 15.3337 9.58984 15.3337H7.67318C7.24216 15.3337 7.02666 15.3337 6.88517 15.2097C6.86876 15.1953 6.85331 15.1798 6.83892 15.1634C6.71484 15.0219 6.71484 14.8064 6.71484 14.3754ZM6.83892 17.4204C6.71484 17.5619 6.71484 17.7774 6.71484 18.2084C6.71484 18.6394 6.71484 18.8549 6.83892 18.9964C6.85331 19.0128 6.86876 19.0283 6.88517 19.0427C7.02666 19.1667 7.24216 19.1667 7.67318 19.1667H9.58985C10.0209 19.1667 10.2364 19.1667 10.3779 19.0427C10.3943 19.0283 10.4097 19.0128 10.4241 18.9964C10.5482 18.8549 10.5482 18.6394 10.5482 18.2084C10.5482 17.7774 10.5482 17.5619 10.4241 17.4204C10.4097 17.404 10.3943 17.3886 10.3779 17.3742C10.2364 17.2501 10.0209 17.2501 9.58985 17.2501H7.67318C7.24216 17.2501 7.02666 17.2501 6.88517 17.3742C6.86876 17.3886 6.85331 17.404 6.83892 17.4204ZM12.4648 14.3754C12.4648 13.9444 12.4648 13.7289 12.5889 13.5874C12.6033 13.571 12.6188 13.5555 12.6352 13.5412C12.7767 13.4171 12.9922 13.4171 13.4232 13.4171H15.3398C15.7709 13.4171 15.9864 13.4171 16.1278 13.5412C16.1443 13.5555 16.1597 13.571 16.1741 13.5874C16.2982 13.7289 16.2982 13.9444 16.2982 14.3754C16.2982 14.8064 16.2982 15.0219 16.1741 15.1634C16.1597 15.1798 16.1443 15.1953 16.1278 15.2097C15.9864 15.3337 15.7709 15.3337 15.3398 15.3337H13.4232C12.9922 15.3337 12.7767 15.3337 12.6352 15.2097C12.6188 15.1953 12.6033 15.1798 12.5889 15.1634C12.4648 15.0219 12.4648 14.8064 12.4648 14.3754ZM12.5889 17.4204C12.4648 17.5619 12.4648 17.7774 12.4648 18.2084C12.4648 18.6394 12.4648 18.8549 12.5889 18.9964C12.6033 19.0128 12.6188 19.0283 12.6352 19.0427C12.7767 19.1667 12.9922 19.1667 13.4232 19.1667H15.3398C15.7709 19.1667 15.9864 19.1667 16.1278 19.0427C16.1443 19.0283 16.1597 19.0128 16.1741 18.9964C16.2982 18.8549 16.2982 18.6394 16.2982 18.2084C16.2982 17.7774 16.2982 17.5619 16.1741 17.4204C16.1597 17.404 16.1443 17.3886 16.1278 17.3742C15.9864 17.2501 15.7709 17.2501 15.3398 17.2501H13.4232C12.9922 17.2501 12.7767 17.2501 12.6352 17.3742C12.6188 17.3886 12.6033 17.404 12.5889 17.4204Z" fill="#E9E9E9"/>
<path d="M6.70312 2.875L6.70312 5.75" stroke="#E9E9E9" stroke-width="2" stroke-linecap="round"/>
<path d="M16.2969 2.875L16.2969 5.75" stroke="#E9E9E9" stroke-width="2" stroke-linecap="round"/>
</svg>
