<svg width="21" height="21" viewBox="0 0 21 21" fill="none" xmlns="http://www.w3.org/2000/svg">
<path d="M18.5937 3.51373H13.9999V3.29487C13.9999 2.45052 13.3131 1.76367 12.4688 1.76367H8.53125C7.6869 1.76367 7.00005 2.45052 7.00005 3.29487V3.51373H2.4063C1.0789 3.51373 0 4.59247 0 5.91987V16.8574C0 18.1848 1.0789 19.2637 2.4063 19.2637H18.5937C19.9211 19.2637 21 18.1848 21 16.8574V5.91987C21 4.59247 19.9211 3.51373 18.5937 3.51373ZM12.2509 5.26362H8.74995V3.51373H12.2501L12.2509 5.26362ZM6.5625 7.88862C7.7683 7.88862 8.74995 8.87043 8.74995 10.0762C8.74995 11.2819 7.7683 12.2637 6.5625 12.2637C5.3567 12.2637 4.37505 11.2819 4.37505 10.0762C4.37505 8.87043 5.3567 7.88862 6.5625 7.88862ZM10.5 15.9825C10.5 16.3447 10.206 16.6387 9.84375 16.6387H3.28125C2.919 16.6387 2.625 16.3447 2.625 15.9825V15.5449C2.625 14.2175 3.7039 13.1386 5.0313 13.1386H8.0937C9.4211 13.1386 10.5 14.2175 10.5 15.5449V15.9825ZM17.7188 16.6387H12.9063C12.5441 16.6387 12.2501 16.3447 12.2501 15.9825C12.2501 15.6202 12.5441 15.3262 12.9063 15.3262H17.7188C18.081 15.3262 18.375 15.6202 18.375 15.9825C18.375 16.3447 18.081 16.6387 17.7188 16.6387ZM17.7188 13.1386H12.9063C12.5441 13.1386 12.2501 12.8446 12.2501 12.4824C12.2501 12.1201 12.5441 11.8261 12.9063 11.8261H17.7188C18.081 11.8261 18.375 12.1201 18.375 12.4824C18.375 12.8446 18.081 13.1386 17.7188 13.1386ZM17.7188 9.63867H12.9063C12.5441 9.63867 12.2501 9.34467 12.2501 8.98242C12.2501 8.62017 12.5441 8.32617 12.9063 8.32617H17.7188C18.081 8.32617 18.375 8.62017 18.375 8.98242C18.375 9.34467 18.081 9.63867 17.7188 9.63867Z" fill="#E9E9E9"/>
</svg>
