<svg width="18" height="14" viewBox="0 0 18 14" fill="none" xmlns="http://www.w3.org/2000/svg">
<path d="M17.9986 2.33341C17.9986 2.12713 17.9162 1.9293 17.7694 1.78344C17.6227 1.63758 17.4236 1.55563 17.2161 1.55563H8.99934C8.7918 1.55563 8.59276 1.63758 8.446 1.78344C8.29924 1.9293 8.2168 2.12713 8.2168 2.33341C8.2168 2.53969 8.29924 2.73752 8.446 2.88338C8.59276 3.02924 8.7918 3.11119 8.99934 3.11119H17.2161C17.4236 3.11119 17.6227 3.02924 17.7694 2.88338C17.9162 2.73752 17.9986 2.53969 17.9986 2.33341Z" fill="black"/>
<path d="M0.782547 3.11112H2.87586C3.06046 3.63006 3.4237 4.06744 3.90137 4.34594C4.37905 4.62444 4.9404 4.72615 5.48623 4.63307C6.03205 4.53999 6.52719 4.25813 6.88415 3.8373C7.2411 3.41646 7.43688 2.88376 7.43688 2.33334C7.43688 1.78291 7.2411 1.25021 6.88415 0.82938C6.52719 0.408549 6.03205 0.126686 5.48623 0.0336082C4.9404 -0.0594695 4.37905 0.0422314 3.90137 0.320736C3.4237 0.59924 3.06046 1.03662 2.87586 1.55556H0.782547C0.575003 1.55556 0.375959 1.6375 0.229203 1.78337C0.0824467 1.92923 0 2.12706 0 2.33334C0 2.53962 0.0824467 2.73745 0.229203 2.88331C0.375959 3.02917 0.575003 3.11112 0.782547 3.11112ZM5.08655 1.55556C5.24133 1.55556 5.39263 1.60118 5.52131 1.68664C5.65 1.7721 5.7503 1.89358 5.80953 2.0357C5.86876 2.17782 5.88426 2.3342 5.85407 2.48507C5.82387 2.63595 5.74934 2.77454 5.6399 2.88331C5.53046 2.99208 5.39102 3.06616 5.23922 3.09617C5.08742 3.12618 4.93008 3.11078 4.78709 3.05191C4.6441 2.99304 4.52188 2.89335 4.43589 2.76545C4.3499 2.63754 4.30401 2.48717 4.30401 2.33334C4.30401 2.12706 4.38645 1.92923 4.53321 1.78337C4.67997 1.6375 4.87901 1.55556 5.08655 1.55556Z" fill="black"/>
<path d="M17.2162 6.22222H14.3403C14.1557 5.70327 13.7925 5.2659 13.3148 4.98739C12.8371 4.70889 12.2758 4.60719 11.7299 4.70026C11.1841 4.79334 10.689 5.07521 10.332 5.49604C9.97507 5.91687 9.7793 6.44957 9.7793 6.99999C9.7793 7.55042 9.97507 8.08312 10.332 8.50395C10.689 8.92478 11.1841 9.20665 11.7299 9.29972C12.2758 9.3928 12.8371 9.2911 13.3148 9.0126C13.7925 8.73409 14.1557 8.29672 14.3403 7.77777H17.2162C17.4237 7.77777 17.6228 7.69583 17.7695 7.54997C17.9163 7.4041 17.9987 7.20627 17.9987 6.99999C17.9987 6.79371 17.9163 6.59588 17.7695 6.45002C17.6228 6.30416 17.4237 6.22222 17.2162 6.22222ZM12.1296 7.77777C11.9748 7.77777 11.8235 7.73216 11.6949 7.64669C11.5662 7.56123 11.4659 7.43976 11.4066 7.29764C11.3474 7.15552 11.3319 6.99913 11.3621 6.84826C11.3923 6.69738 11.4668 6.5588 11.5763 6.45002C11.6857 6.34125 11.8252 6.26717 11.977 6.23716C12.1288 6.20715 12.2861 6.22255 12.4291 6.28142C12.5721 6.34029 12.6943 6.43998 12.7803 6.56788C12.8663 6.69579 12.9122 6.84616 12.9122 6.99999C12.9122 7.20627 12.8297 7.4041 12.683 7.54997C12.5362 7.69583 12.3372 7.77777 12.1296 7.77777Z" fill="black"/>
<path d="M8.21674 6.22226H0.782547C0.575003 6.22226 0.375959 6.3042 0.229203 6.45007C0.0824467 6.59593 0 6.79376 0 7.00004C0 7.20632 0.0824467 7.40415 0.229203 7.55001C0.375959 7.69587 0.575003 7.77782 0.782547 7.77782H8.21674C8.42429 7.77782 8.62333 7.69587 8.77009 7.55001C8.91684 7.40415 8.99929 7.20632 8.99929 7.00004C8.99929 6.79376 8.91684 6.59593 8.77009 6.45007C8.62333 6.3042 8.42429 6.22226 8.21674 6.22226Z" fill="black"/>
<path d="M17.2174 10.889H10.5658C10.3582 10.889 10.1592 10.9709 10.0124 11.1168C9.86565 11.2626 9.7832 11.4605 9.7832 11.6668C9.7832 11.873 9.86565 12.0709 10.0124 12.2167C10.1592 12.3626 10.3582 12.4445 10.5658 12.4445H17.2174C17.4249 12.4445 17.624 12.3626 17.7707 12.2167C17.9175 12.0709 17.9999 11.873 17.9999 11.6668C17.9999 11.4605 17.9175 11.2626 17.7707 11.1168C17.624 10.9709 17.4249 10.889 17.2174 10.889Z" fill="black"/>
<path d="M6.65165 9.33335C6.16663 9.3339 5.69368 9.48374 5.29782 9.76229C4.90197 10.0408 4.60263 10.4344 4.44095 10.8889H0.782547C0.575003 10.8889 0.375959 10.9708 0.229203 11.1167C0.0824467 11.2626 0 11.4604 0 11.6667C0 11.873 0.0824467 12.0708 0.229203 12.2166C0.375959 12.3625 0.575003 12.4445 0.782547 12.4445H4.44095C4.58446 12.8479 4.83681 13.2043 5.17041 13.4748C5.50401 13.7452 5.90602 13.9193 6.33246 13.978C6.75891 14.0366 7.19338 13.9776 7.58835 13.8074C7.98332 13.6372 8.32359 13.3622 8.57195 13.0127C8.8203 12.6632 8.96718 12.2526 8.99651 11.8257C9.02585 11.3988 8.93652 10.9721 8.73828 10.5923C8.54005 10.2124 8.24055 9.8941 7.87253 9.67207C7.50452 9.45004 7.08216 9.33286 6.65165 9.33335ZM6.65165 12.4445C6.49688 12.4445 6.34558 12.3988 6.21689 12.3134C6.0882 12.2279 5.9879 12.1064 5.92867 11.9643C5.86944 11.8222 5.85394 11.6658 5.88414 11.5149C5.91433 11.3641 5.98886 11.2255 6.0983 11.1167C6.20775 11.0079 6.34718 10.9339 6.49898 10.9038C6.65078 10.8738 6.80813 10.8892 6.95112 10.9481C7.09411 11.007 7.21633 11.1067 7.30231 11.2346C7.3883 11.3625 7.4342 11.5128 7.4342 11.6667C7.4342 11.873 7.35175 12.0708 7.20499 12.2166C7.05824 12.3625 6.85919 12.4445 6.65165 12.4445Z" fill="black"/>
</svg>
