<svg width="16" height="16" viewBox="0 0 16 16" fill="none" xmlns="http://www.w3.org/2000/svg">
<path d="M3 2.95H2.95V3V4V4.05H3H3.45H3.5H3.55H12.45H12.5H12.55V4.04776C12.8303 4.02249 13.05 3.7869 13.05 3.5C13.05 3.2131 12.8303 2.97751 12.55 2.95224V2.95H12.5H12.45H3.55H3.5H3.45H3ZM3 6.95H2.95V7V8V8.05H3H3.45H3.5H3.55H9.45H9.5H9.55V8.04776C9.83032 8.0225 10.05 7.7869 10.05 7.5C10.05 7.2131 9.83032 6.9775 9.55 6.95224V6.95H9.5H9.45H3.55H3.5H3.45H3ZM3 10.95H2.95V11V12V12.05H3H3.45H3.5H3.55H6.45H6.5H6.55V12.0478C6.83033 12.0225 7.05 11.7869 7.05 11.5C7.05 11.2131 6.83033 10.9775 6.55 10.9522V10.95H6.5H6.45H3.55H3.5H3.45H3Z" fill="#02A4D9" stroke="#02A4D9" stroke-width="0.1"/>
</svg>
