<svg width="16" height="16" viewBox="0 0 16 16" fill="none" xmlns="http://www.w3.org/2000/svg">
<path d="M3 12.05H2.95V12V11V10.95H3H3.45H3.5H3.55H12.45H12.5H12.55V10.9522C12.8303 10.9775 13.05 11.2131 13.05 11.5C13.05 11.7869 12.8303 12.0225 12.55 12.0478V12.05H12.5H12.45H3.55H3.5H3.45H3ZM3 8.05H2.95V8V7V6.95H3H3.45H3.5H3.55H9.45H9.5H9.55V6.95224C9.83032 6.9775 10.05 7.2131 10.05 7.5C10.05 7.7869 9.83032 8.0225 9.55 8.04776V8.05H9.5H9.45H3.55H3.5H3.45H3ZM3 4.05H2.95V4V3V2.95H3H3.45H3.5H3.55H6.45H6.5H6.55V2.95224C6.83033 2.97751 7.05 3.21314 7.05 3.5C7.05 3.78686 6.83033 4.02249 6.55 4.04776V4.05H6.5H6.45H3.55H3.5H3.45H3Z" fill="black" stroke="black" stroke-width="0.1"/>
</svg>
