<svg width="12" height="11" viewBox="0 0 12 11" fill="none" xmlns="http://www.w3.org/2000/svg">
<path d="M1 10.05H0.95V10V9V8.95H1H1.45H1.5H1.55H10.45H10.5H10.55V8.95224C10.8303 8.97751 11.05 9.2131 11.05 9.5C11.05 9.7869 10.8303 10.0225 10.55 10.0478V10.05H10.5H10.45H1.55H1.5H1.45H1ZM1 6.05H0.95V6V5V4.95H1H1.45H1.5H1.55H7.45H7.5H7.55V4.95224C7.83032 4.9775 8.05 5.2131 8.05 5.5C8.05 5.7869 7.83032 6.0225 7.55 6.04776V6.05H7.5H7.45H1.55H1.5H1.45H1ZM1 2.05H0.95V2V1V0.95H1H1.45H1.5H1.55H4.45H4.5H4.55V0.952242C4.83033 0.977508 5.05 1.21314 5.05 1.5C5.05 1.78686 4.83033 2.02249 4.55 2.04776V2.05H4.5H4.45H1.55H1.5H1.45H1Z" fill="#02A4D9" stroke="#02A4D9" stroke-width="0.1"/>
</svg>
