<svg width="18" height="14" viewBox="0 0 18 14" fill="none" xmlns="http://www.w3.org/2000/svg">
<path d="M18.0006 2.33344C18.0006 2.12716 17.9181 1.92933 17.7714 1.78347C17.6246 1.63761 17.4256 1.55566 17.218 1.55566H9.0013C8.79375 1.55566 8.59471 1.63761 8.44795 1.78347C8.3012 1.92933 8.21875 2.12716 8.21875 2.33344C8.21875 2.53972 8.3012 2.73755 8.44795 2.88341C8.59471 3.02928 8.79375 3.11122 9.0013 3.11122H17.218C17.4256 3.11122 17.6246 3.02928 17.7714 2.88341C17.9181 2.73755 18.0006 2.53972 18.0006 2.33344Z" fill="white"/>
<path d="M0.782547 3.11112H2.87586C3.06046 3.63006 3.4237 4.06744 3.90137 4.34594C4.37905 4.62444 4.9404 4.72615 5.48623 4.63307C6.03205 4.53999 6.52719 4.25813 6.88415 3.8373C7.2411 3.41646 7.43688 2.88376 7.43688 2.33334C7.43688 1.78291 7.2411 1.25021 6.88415 0.82938C6.52719 0.408549 6.03205 0.126686 5.48623 0.0336082C4.9404 -0.0594695 4.37905 0.0422314 3.90137 0.320736C3.4237 0.59924 3.06046 1.03662 2.87586 1.55556H0.782547C0.575003 1.55556 0.375959 1.6375 0.229203 1.78337C0.0824467 1.92923 0 2.12706 0 2.33334C0 2.53962 0.0824467 2.73745 0.229203 2.88331C0.375959 3.02917 0.575003 3.11112 0.782547 3.11112ZM5.08655 1.55556C5.24133 1.55556 5.39263 1.60118 5.52131 1.68664C5.65 1.7721 5.7503 1.89358 5.80953 2.0357C5.86876 2.17782 5.88426 2.3342 5.85407 2.48507C5.82387 2.63595 5.74934 2.77454 5.6399 2.88331C5.53046 2.99208 5.39102 3.06616 5.23922 3.09617C5.08742 3.12618 4.93008 3.11078 4.78709 3.05191C4.6441 2.99304 4.52188 2.89335 4.43589 2.76545C4.3499 2.63754 4.30401 2.48717 4.30401 2.33334C4.30401 2.12706 4.38645 1.92923 4.53321 1.78337C4.67997 1.6375 4.87901 1.55556 5.08655 1.55556Z" fill="white"/>
<path d="M17.2142 6.22225H14.3384C14.1538 5.7033 13.7905 5.26593 13.3129 4.98742C12.8352 4.70892 12.2738 4.60722 11.728 4.7003C11.1822 4.79337 10.687 5.07524 10.3301 5.49607C9.97312 5.9169 9.77734 6.4496 9.77734 7.00002C9.77734 7.55045 9.97312 8.08315 10.3301 8.50398C10.687 8.92481 11.1822 9.20668 11.728 9.29975C12.2738 9.39283 12.8352 9.29113 13.3129 9.01263C13.7905 8.73412 14.1538 8.29675 14.3384 7.7778H17.2142C17.4218 7.7778 17.6208 7.69586 17.7676 7.55C17.9143 7.40413 17.9968 7.2063 17.9968 7.00002C17.9968 6.79374 17.9143 6.59591 17.7676 6.45005C17.6208 6.30419 17.4218 6.22225 17.2142 6.22225ZM12.1277 7.7778C11.9729 7.7778 11.8216 7.73219 11.6929 7.64672C11.5642 7.56126 11.4639 7.43979 11.4047 7.29767C11.3455 7.15555 11.33 6.99916 11.3602 6.84829C11.3904 6.69741 11.4649 6.55883 11.5743 6.45005C11.6838 6.34128 11.8232 6.2672 11.975 6.23719C12.1268 6.20718 12.2841 6.22258 12.4271 6.28145C12.5701 6.34032 12.6923 6.44001 12.7783 6.56791C12.8643 6.69582 12.9102 6.84619 12.9102 7.00002C12.9102 7.2063 12.8278 7.40413 12.681 7.55C12.5343 7.69586 12.3352 7.7778 12.1277 7.7778Z" fill="white"/>
<path d="M8.21674 6.22217H0.782547C0.575003 6.22217 0.375959 6.30411 0.229203 6.44997C0.0824467 6.59584 0 6.79367 0 6.99995C0 7.20623 0.0824467 7.40406 0.229203 7.54992C0.375959 7.69578 0.575003 7.77772 0.782547 7.77772H8.21674C8.42429 7.77772 8.62333 7.69578 8.77009 7.54992C8.91684 7.40406 8.99929 7.20623 8.99929 6.99995C8.99929 6.79367 8.91684 6.59584 8.77009 6.44997C8.62333 6.30411 8.42429 6.22217 8.21674 6.22217Z" fill="white"/>
<path d="M17.2194 10.889H10.5677C10.3602 10.889 10.1611 10.9709 10.0144 11.1168C9.8676 11.2626 9.78516 11.4605 9.78516 11.6668C9.78516 11.873 9.8676 12.0709 10.0144 12.2167C10.1611 12.3626 10.3602 12.4445 10.5677 12.4445H17.2194C17.4269 12.4445 17.6259 12.3626 17.7727 12.2167C17.9195 12.0709 18.0019 11.873 18.0019 11.6668C18.0019 11.4605 17.9195 11.2626 17.7727 11.1168C17.6259 10.9709 17.4269 10.889 17.2194 10.889Z" fill="white"/>
<path d="M6.65165 9.33331C6.16663 9.33387 5.69368 9.48371 5.29782 9.76226C4.90197 10.0408 4.60263 10.4344 4.44095 10.8889H0.782547C0.575003 10.8889 0.375959 10.9708 0.229203 11.1167C0.0824467 11.2625 0 11.4604 0 11.6666C0 11.8729 0.0824467 12.0708 0.229203 12.2166C0.375959 12.3625 0.575003 12.4444 0.782547 12.4444H4.44095C4.58446 12.8478 4.83681 13.2043 5.17041 13.4747C5.50401 13.7452 5.90602 13.9193 6.33246 13.9779C6.75891 14.0366 7.19338 13.9776 7.58835 13.8074C7.98332 13.6371 8.32359 13.3622 8.57195 13.0127C8.8203 12.6632 8.96718 12.2525 8.99651 11.8256C9.02585 11.3988 8.93652 10.9721 8.73828 10.5922C8.54005 10.2124 8.24055 9.89407 7.87253 9.67204C7.50452 9.45001 7.08216 9.33283 6.65165 9.33331ZM6.65165 12.4444C6.49688 12.4444 6.34558 12.3988 6.21689 12.3133C6.0882 12.2279 5.9879 12.1064 5.92867 11.9643C5.86944 11.8222 5.85394 11.6658 5.88414 11.5149C5.91433 11.364 5.98886 11.2254 6.0983 11.1167C6.20775 11.0079 6.34718 10.9338 6.49898 10.9038C6.65078 10.8738 6.80813 10.8892 6.95112 10.9481C7.09411 11.0069 7.21633 11.1066 7.30231 11.2345C7.3883 11.3624 7.4342 11.5128 7.4342 11.6666C7.4342 11.8729 7.35175 12.0708 7.20499 12.2166C7.05824 12.3625 6.85919 12.4444 6.65165 12.4444Z" fill="white"/>
</svg>
