<svg width="21" height="20" viewBox="0 0 21 20" fill="none" xmlns="http://www.w3.org/2000/svg">
<g clip-path="url(#clip0_364_3063)">
<path d="M14.5435 5.59095L15.2064 6.25387C15.2653 6.31279 15.2653 6.37172 15.2064 6.43064L7.42821 14.2088C7.36928 14.2677 7.31035 14.2677 7.25143 14.2088L6.58852 13.5459C6.52959 13.487 6.52959 13.4281 6.58852 13.3691L14.3667 5.59095C14.4256 5.53203 14.4845 5.53203 14.5435 5.59095Z" fill="#96A3AE" stroke="#96A3AE" stroke-width="0.4"/>
<path d="M7.60597 5.76795L15.0306 13.1926C15.0895 13.2515 15.0895 13.3104 15.0306 13.3694L14.3677 14.0323C14.3087 14.0912 14.2498 14.0912 14.1909 14.0323L6.76628 6.60764C6.70735 6.54872 6.70735 6.48979 6.76628 6.43087L7.42919 5.76795C7.48812 5.70903 7.54704 5.70903 7.60597 5.76795Z" fill="#96A3AE" stroke="#96A3AE" stroke-width="0.4"/>
</g>
<defs>
<clipPath id="clip0_364_3063">
<path d="M10.1913 0.707107C10.5819 0.316583 11.215 0.316583 11.6055 0.707107L20.0908 9.19239C20.4813 9.58291 20.4813 10.2161 20.0908 10.6066L11.6055 19.0919C11.215 19.4824 10.5819 19.4824 10.1913 19.0919L1.70605 10.6066C1.31553 10.2161 1.31553 9.58291 1.70605 9.19239L10.1913 0.707107Z" fill="white"/>
</clipPath>
</defs>
</svg>
