<svg width="40" height="40" viewBox="0 0 40 40" fill="none" xmlns="http://www.w3.org/2000/svg">
<path fill-rule="evenodd" clip-rule="evenodd" d="M5.48251 0.0599299C5.34774 0.0991486 5.06751 0.245633 4.85978 0.38532C4.65196 0.525008 4.3847 0.797508 4.26579 0.990867C4.14688 1.18423 4.0136 1.5368 3.96977 1.77446C3.91712 2.05915 3.89688 6.0979 3.91024 13.6217C3.93001 24.7224 3.9347 25.0415 4.07938 25.2014C4.17946 25.312 4.32267 25.3659 4.51649 25.3659C4.71032 25.3659 4.85353 25.312 4.9536 25.2014C5.09821 25.0416 5.10352 24.7041 5.14149 13.367L5.18056 1.69696L5.43595 1.44157L5.69134 1.18618L19.85 1.16563C29.9567 1.15102 34.068 1.16962 34.2158 1.23055C34.3297 1.27751 34.5055 1.40376 34.6064 1.51102C34.7867 1.70274 34.7906 1.74063 34.829 3.69915L34.8681 5.6922L35.0873 5.88063C35.2078 5.98423 35.3728 6.06899 35.454 6.06899C35.5352 6.06899 35.7002 5.98407 35.8207 5.88032L36.0399 5.69157V3.67329V1.65493L35.8211 1.2093C35.7007 0.964227 35.4939 0.672508 35.3614 0.561024C35.229 0.449617 34.9759 0.280945 34.799 0.186336L34.4774 0.0143049L20.1024 0.00141423C11.6084 -0.00624202 5.6272 0.0177424 5.48251 0.0599299ZM7.87345 2.59524C7.67884 2.65524 7.36642 2.8354 7.17923 2.99563C6.99095 3.1568 6.75681 3.46329 6.65509 3.6818L6.47118 4.0768V8.13931V12.2018L6.65329 12.593C6.75352 12.8081 6.97032 13.1026 7.13517 13.2473C7.29993 13.392 7.5604 13.5675 7.71392 13.6374C7.96024 13.7494 8.47524 13.7643 12.0946 13.7643C15.714 13.7643 16.229 13.7494 16.4753 13.6374C16.6288 13.5675 16.8893 13.392 17.0541 13.2473C17.2189 13.1026 17.4357 12.8081 17.5359 12.593L17.7181 12.2018V8.13931V4.0768L17.5342 3.6818C17.4326 3.46368 17.1984 3.15688 17.011 2.99649C16.8244 2.8368 16.4969 2.65415 16.2831 2.59063C15.962 2.49532 15.2267 2.47618 12.0609 2.48071C9.01259 2.48501 8.15493 2.50845 7.87345 2.59524ZM23.6547 2.59524C23.4601 2.65524 23.1477 2.8354 22.9605 2.99563C22.7722 3.1568 22.5381 3.46329 22.4363 3.6818L22.2524 4.0768V8.13931V12.2018L22.4345 12.593C22.5348 12.8081 22.7516 13.1026 22.9164 13.2473C23.0812 13.392 23.3417 13.5675 23.4952 13.6374C23.7415 13.7494 24.2565 13.7643 27.8759 13.7643C31.4952 13.7643 32.0102 13.7494 32.2566 13.6374C32.4101 13.5675 32.6706 13.392 32.8353 13.2473C33.0002 13.1026 33.217 12.8081 33.3172 12.593L33.4993 12.2018V8.13931V4.0768L33.3154 3.6818C33.2138 3.46368 32.9796 3.15688 32.7923 2.99649C32.6056 2.8368 32.2781 2.65415 32.0643 2.59063C31.7433 2.49532 31.008 2.47618 27.8421 2.48071C24.7938 2.48501 23.9362 2.50845 23.6547 2.59524ZM15.9463 3.73048C16.1459 3.78587 16.2932 3.8947 16.3952 4.06204C16.5402 4.29977 16.5472 4.4854 16.5474 8.12368C16.5477 11.258 16.5281 11.9741 16.4372 12.1499C16.3764 12.2674 16.2305 12.4151 16.1129 12.478C15.9337 12.5739 15.292 12.5924 12.1414 12.5924C10.0747 12.5924 8.28595 12.5651 8.16642 12.5317C8.04688 12.4984 7.88009 12.3577 7.79563 12.2192C7.64852 11.978 7.64204 11.8074 7.64204 8.13931C7.64204 4.47595 7.64868 4.3004 7.79509 4.06024C7.88884 3.90649 8.04751 3.78071 8.20493 3.73532C8.3486 3.69384 10.0455 3.65829 12.0556 3.65462C14.359 3.6504 15.7559 3.67759 15.9463 3.73048ZM31.7276 3.73048C31.9272 3.78587 32.0745 3.8947 32.1765 4.06204C32.3215 4.29977 32.3284 4.4854 32.3287 8.12368C32.3289 11.258 32.3093 11.9741 32.2184 12.1499C32.1577 12.2674 32.0117 12.4151 31.8941 12.478C31.7148 12.574 31.0674 12.5924 27.8759 12.5924C24.6843 12.5924 24.037 12.574 23.8576 12.478C23.74 12.4151 23.5941 12.2674 23.5333 12.1499C23.4424 11.9741 23.4228 11.258 23.4231 8.12368C23.4233 4.4761 23.4299 4.30032 23.5763 4.06024C23.6701 3.90649 23.8288 3.78071 23.9862 3.73532C24.1299 3.69384 25.8267 3.65829 27.8368 3.65462C30.1402 3.6504 31.5372 3.67759 31.7276 3.73048ZM25.5378 5.88423C25.4488 5.99743 25.3759 6.13977 25.3759 6.20063C25.3759 6.26141 25.4261 6.40602 25.4874 6.52212C25.5488 6.63813 25.9174 7.04813 26.3063 7.43313L27.0137 8.13321L26.2396 8.91985C25.7925 9.37423 25.4424 9.79907 25.4106 9.92571C25.3705 10.0856 25.3975 10.2016 25.5102 10.3531C25.6202 10.5011 25.749 10.5683 25.9562 10.5858C26.232 10.6091 26.291 10.5677 27.0617 9.80923L27.8759 9.00806L28.6849 9.80415C29.4062 10.514 29.5241 10.6002 29.7729 10.6002C29.984 10.6002 30.093 10.5481 30.2201 10.3866C30.3434 10.2297 30.3756 10.1105 30.3412 9.93743C30.3093 9.77751 30.0446 9.45087 29.5169 8.92056L28.7395 8.13931L29.5126 7.35673C29.9629 6.90079 30.3088 6.48212 30.3409 6.35384C30.3813 6.19298 30.3545 6.07743 30.2416 5.92548C30.1316 5.77751 30.0027 5.71032 29.7956 5.69282C29.5197 5.66954 29.4607 5.71095 28.69 6.46938L27.8759 7.27056L27.0669 6.47446C26.3456 5.76462 26.2277 5.67837 25.9788 5.67837C25.7703 5.67837 25.6588 5.73048 25.5378 5.88423ZM12.8801 7.43352L11.2743 9.03243L10.4856 8.25384C9.87876 7.65485 9.64821 7.47524 9.48595 7.47524C9.36618 7.47524 9.19212 7.55813 9.08329 7.66704C8.97243 7.77782 8.89149 7.94962 8.89149 8.07407C8.89149 8.24657 9.10563 8.5036 9.96876 9.36673C10.8642 10.262 11.0849 10.444 11.2756 10.444C11.4712 10.444 11.7858 10.1634 13.4014 8.54766C14.9659 6.98321 15.2977 6.61345 15.2977 6.43477C15.2977 6.30891 15.2174 6.13774 15.1059 6.02641C14.9956 5.91602 14.8233 5.83462 14.7001 5.83462C14.5259 5.83462 14.1861 6.13313 12.8801 7.43352ZM35.0169 7.79595C34.8724 7.95556 34.8669 8.28415 34.829 19.0768C34.7904 30.0513 34.7879 30.1955 34.6338 30.3657C34.5481 30.4606 34.3828 30.5873 34.2667 30.6473C34.1124 30.727 33.7281 30.7565 32.8407 30.7565H31.6259V30.3233C31.6259 29.9674 31.5916 29.8557 31.4341 29.6983C31.3286 29.5928 31.1513 29.5065 31.0399 29.5065C30.9286 29.5065 30.7513 29.5928 30.6458 29.6983L30.454 29.89V32.0698V34.2495L30.0634 35.8269C29.6865 37.3488 29.6727 37.4435 29.6727 38.5199C29.6727 39.585 29.6809 39.6432 29.8535 39.8054C29.953 39.8988 30.1304 39.9752 30.2477 39.9752C30.3701 39.9752 30.5429 39.8934 30.6528 39.7834C30.836 39.6003 30.8446 39.5478 30.8446 38.6152C30.8446 37.7057 30.8715 37.5302 31.2352 36.0613C31.6234 34.4939 31.6259 34.4759 31.6259 33.2124V31.9408L33.0517 31.9149C34.3425 31.8914 34.5079 31.8727 34.799 31.7171C34.9759 31.6226 35.229 31.454 35.3614 31.3426C35.4939 31.2311 35.7007 30.9394 35.8211 30.6943L36.0399 30.2487V19.1045C36.0399 8.25532 36.036 7.95602 35.8911 7.79595C35.791 7.68532 35.6478 7.63149 35.454 7.63149C35.2602 7.63149 35.117 7.6854 35.0169 7.79595ZM8.10329 15.2777C7.97259 15.3834 7.92274 15.5049 7.92274 15.7174C7.92274 15.9299 7.97259 16.0514 8.10329 16.1572C8.27415 16.2956 8.48767 16.3034 12.0946 16.3034C15.7016 16.3034 15.9151 16.2956 16.0859 16.1572C16.2167 16.0514 16.2665 15.9299 16.2665 15.7174C16.2665 15.5049 16.2167 15.3834 16.0859 15.2777C15.9151 15.1393 15.7016 15.1315 12.0946 15.1315C8.48767 15.1315 8.27415 15.1393 8.10329 15.2777ZM19.2341 15.2578C19.0573 15.3206 18.7659 15.4975 18.5864 15.651C18.407 15.8046 18.165 16.1109 18.0485 16.3316L17.8368 16.7331L17.8139 20.6502L17.791 24.5673L17.4304 24.4588C17.232 24.3991 16.9587 24.3502 16.823 24.3502C16.6872 24.3502 16.3991 24.4028 16.1827 24.467C15.9505 24.536 15.6393 24.7159 15.4231 24.9063C15.2216 25.0836 14.9792 25.3738 14.8843 25.5512C14.7186 25.8609 14.7109 25.97 14.6881 28.3151L14.6645 30.7565H10.2898C6.69634 30.7565 5.87727 30.737 5.70384 30.6473C5.58767 30.5873 5.42243 30.4606 5.33665 30.3659C5.19587 30.2107 5.17673 30.0521 5.14149 28.7495L5.10243 27.3051L4.88321 27.1167C4.76267 27.0131 4.59767 26.9284 4.51649 26.9284C4.43532 26.9284 4.27032 27.0133 4.14977 27.1172L3.93056 27.3059V28.7774C3.93056 30.2308 3.93321 30.2541 4.14938 30.6943C4.26977 30.9394 4.47657 31.2311 4.60907 31.3426C4.74149 31.454 4.99454 31.6227 5.17149 31.7173C5.49103 31.8882 5.52259 31.8895 10.0829 31.9113L14.6727 31.9331V32.8909C14.6727 33.4888 14.7166 34.0171 14.7895 34.2971C14.8538 34.5438 14.9761 34.8824 15.0613 35.0495C15.1466 35.2166 15.5823 35.8432 16.0295 36.442C16.4767 37.0408 16.8817 37.6038 16.9295 37.6931C16.9784 37.7845 17.0165 38.2356 17.0165 38.7237C17.0165 39.5411 17.0277 39.6029 17.2083 39.7834C17.3228 39.8981 17.4903 39.9752 17.6243 39.9752C17.7606 39.9752 17.9184 39.901 18.0261 39.7863C18.1963 39.6051 18.2024 39.553 18.1747 38.5168C18.1515 37.6495 18.117 37.3827 17.9999 37.165C17.9196 37.0159 17.4863 36.4061 17.037 35.8099C16.5876 35.2138 16.1442 34.5624 16.0518 34.3624C15.8879 34.0079 15.8831 33.9007 15.8614 30.1276L15.8391 26.2565L16.0189 25.9897C16.1233 25.8348 16.3247 25.675 16.4994 25.6085C16.7613 25.5088 16.8415 25.5085 17.1206 25.6057C17.3235 25.6765 17.5065 25.8148 17.6194 25.9829C17.7938 26.2424 17.7977 26.2941 17.7977 28.2795V30.3106L17.4462 30.6864C17.2169 30.9316 17.0946 31.1326 17.0946 31.2645C17.0946 31.3757 17.1809 31.553 17.2864 31.6584C17.3932 31.7653 17.5695 31.8502 17.6846 31.8502C17.8331 31.8502 18.0419 31.7046 18.4287 31.3312L18.9663 30.8121L18.9875 23.8898C19.0075 17.3604 19.0167 16.9556 19.15 16.7593C19.2277 16.6449 19.4169 16.4916 19.5704 16.4188C19.7519 16.3327 19.9459 16.3019 20.1249 16.3309C20.2763 16.3556 20.5005 16.4716 20.6229 16.589C20.7454 16.7063 20.8803 16.9274 20.9228 17.0802C20.97 17.25 21.0002 19.3333 21.0004 22.4383C21.0008 26.9095 21.0155 27.5394 21.1225 27.6922C21.2125 27.8208 21.3226 27.8659 21.5465 27.8659C21.7802 27.8659 21.8857 27.8191 22.0108 27.66C22.1674 27.4609 22.1727 27.3669 22.1727 24.8009C22.1727 22.4851 22.189 22.1203 22.3006 21.9315C22.3708 21.8125 22.5256 21.6577 22.6446 21.5874C22.7636 21.5171 23.0002 21.4596 23.1703 21.4596C23.3659 21.4596 23.5562 21.5197 23.6872 21.6227C23.8013 21.7125 23.9466 21.8866 24.0102 22.0095C24.1056 22.194 24.1259 22.6959 24.1259 24.8796C24.1259 27.5238 24.126 27.5263 24.3017 27.6892C24.3984 27.7789 24.5302 27.8595 24.5946 27.8684C24.6591 27.8772 24.7734 27.8802 24.8485 27.8751C24.9237 27.87 25.0556 27.7956 25.1415 27.7096C25.2889 27.5622 25.2977 27.4492 25.2977 25.7149C25.2977 24.2916 25.3231 23.8157 25.4102 23.6073C25.4721 23.4591 25.6391 23.265 25.7813 23.1758C25.974 23.0549 26.127 23.0224 26.3815 23.0484C26.6314 23.0738 26.7885 23.1487 26.9674 23.3274L27.2118 23.5716L27.2509 25.5545C27.2865 27.363 27.3031 27.5518 27.4388 27.7016C27.5388 27.812 27.6822 27.8659 27.8759 27.8659C28.0695 27.8659 28.213 27.812 28.313 27.7016C28.4409 27.5606 28.4673 27.3745 28.5009 26.3813C28.5351 25.368 28.5592 25.2041 28.696 25.0532C28.7818 24.9586 28.947 24.832 29.0632 24.772C29.1793 24.7119 29.3499 24.6627 29.4422 24.6627C29.5345 24.6627 29.7314 24.7203 29.8797 24.7907C30.0439 24.8686 30.2088 25.0353 30.3016 25.2173C30.4302 25.4692 30.454 25.679 30.454 26.5601C30.454 27.5506 30.4633 27.613 30.6348 27.7741C30.7405 27.8734 30.9167 27.944 31.0588 27.944C31.2309 27.944 31.3513 27.8813 31.4705 27.7299C31.6295 27.5277 31.6374 27.4476 31.6129 26.3041C31.5876 25.1298 31.5796 25.0795 31.3549 24.6738C31.2274 24.4435 30.9859 24.1378 30.8184 23.9944C30.6509 23.851 30.3535 23.6791 30.1575 23.6123C29.9615 23.5455 29.6404 23.4924 29.444 23.4943C29.2475 23.4962 28.9462 23.5484 28.7743 23.6103C28.6024 23.6722 28.457 23.7234 28.4509 23.7241C28.445 23.7247 28.418 23.6073 28.3909 23.4631C28.3639 23.3188 28.2358 23.0409 28.1063 22.8454C27.9769 22.6499 27.7495 22.3974 27.6012 22.2843C27.4528 22.1712 27.1859 22.0272 27.0079 21.9644C26.8299 21.9016 26.4943 21.8502 26.262 21.8502C26.0297 21.8502 25.7161 21.9018 25.5652 21.9649C25.3147 22.0695 25.2874 22.0678 25.2499 21.9453C25.2274 21.8716 25.1452 21.6695 25.0674 21.4962C24.9895 21.323 24.832 21.0699 24.7175 20.9338C24.603 20.7977 24.3183 20.5929 24.0849 20.4787C23.7083 20.2945 23.5921 20.2749 23.0533 20.3056C22.7194 20.3245 22.387 20.3663 22.3147 20.3984C22.194 20.4519 22.1813 20.3076 22.1584 18.6281L22.1337 16.7994L21.8979 16.3388C21.7402 16.0306 21.5374 15.7838 21.285 15.5931C21.0775 15.4363 20.7752 15.2683 20.6132 15.2198C20.4513 15.1712 20.147 15.1343 19.9371 15.1377C19.7273 15.141 19.4109 15.1952 19.2341 15.2578ZM23.8845 15.2777C23.7538 15.3834 23.704 15.5049 23.704 15.7174C23.704 15.9299 23.7538 16.0514 23.8845 16.1572C24.0554 16.2956 24.2689 16.3034 27.8759 16.3034C31.4828 16.3034 31.6963 16.2956 31.8672 16.1572C31.9979 16.0514 32.0477 15.9299 32.0477 15.7174C32.0477 15.5049 31.9979 15.3834 31.8672 15.2777C31.6963 15.1393 31.4828 15.1315 27.8759 15.1315C24.2689 15.1315 24.0554 15.1393 23.8845 15.2777ZM8.21681 17.7229C8.12501 17.7673 8.01079 17.8896 7.9629 17.9947C7.91501 18.0998 7.87587 18.232 7.87587 18.2887C7.87587 18.3453 7.94876 18.4843 8.03782 18.5975L8.1997 18.8034H10.8773C13.3295 18.8034 13.5649 18.7919 13.6749 18.6666C13.7409 18.5914 13.8177 18.4549 13.8456 18.3631C13.8735 18.2714 13.8562 18.1083 13.8072 18.0006C13.7581 17.8931 13.6324 17.7659 13.5277 17.7182C13.4001 17.6601 12.5202 17.6332 10.8605 17.6368C9.32548 17.6401 8.32024 17.6728 8.21681 17.7229ZM23.9981 17.7229C23.9063 17.7673 23.792 17.8896 23.7442 17.9947C23.6963 18.0998 23.6571 18.232 23.6571 18.2887C23.6571 18.3453 23.73 18.4843 23.8191 18.5975L23.9809 18.8034H26.6649H29.3489L29.5108 18.5975C29.5999 18.4843 29.6727 18.3453 29.6727 18.2887C29.6727 18.232 29.6337 18.1001 29.586 17.9953C29.5383 17.8906 29.4136 17.7659 29.3089 17.7182C29.1813 17.6601 28.3014 17.6332 26.6417 17.6368C25.1067 17.6401 24.1015 17.6728 23.9981 17.7229Z" fill="#3A2781"/>
</svg>
