<svg width="8" height="12" viewBox="0 0 8 12" fill="none" xmlns="http://www.w3.org/2000/svg">
<path fill-rule="evenodd" clip-rule="evenodd" d="M6.5125 10.7057L6.80592 10.4113L2.39479 5.99997L6.80621 1.58829L6.20469 0.986764L3.69811 3.49334L1.19153 5.99995L3.69143 8.49995C5.06637 9.87497 6.1976 11 6.20522 11C6.21287 11 6.35113 10.8675 6.5125 10.7057Z" fill="#96A3AE"/>
<path fill-rule="evenodd" clip-rule="evenodd" d="M6.80592 10.4113L6.5125 10.7057C6.35113 10.8675 6.21287 11 6.20522 11C6.1976 11 5.06637 9.87497 3.69143 8.49995L1.19153 5.99995L3.69811 3.49334L6.20469 0.986764L6.80621 1.58829L2.39479 5.99997L6.80592 10.4113ZM2.81905 5.99997L7.23047 1.58828L6.20469 0.5625L3.48598 3.28121L0.767274 5.99994L3.47929 8.71207C3.47929 8.71207 3.47929 8.71207 3.47929 8.71207C4.16689 9.39972 4.79364 10.0249 5.24952 10.4783C5.47742 10.705 5.66282 10.8889 5.79182 11.0162C5.85625 11.0798 5.90702 11.1297 5.94212 11.1639C5.95952 11.1808 5.97387 11.1947 5.98437 11.2046C5.98935 11.2094 5.99502 11.2147 6.00028 11.2194C6.00246 11.2214 6.00748 11.2259 6.01357 11.2309C6.016 11.2329 6.02337 11.239 6.0332 11.2458C6.03761 11.2489 6.04856 11.2564 6.06344 11.2644C6.07112 11.2684 6.0904 11.2771 6.10212 11.2817C6.12072 11.2878 6.17224 11.2982 6.20522 11.3C6.28438 11.3 6.34226 11.2672 6.34477 11.2657C6.34476 11.2657 6.34482 11.2657 6.34477 11.2657C6.36055 11.2575 6.37248 11.2495 6.37782 11.2459C6.38946 11.2379 6.3989 11.2303 6.40361 11.2264C6.41429 11.2177 6.42533 11.208 6.43477 11.1995C6.45459 11.1816 6.48011 11.1576 6.50873 11.1302C6.56652 11.0748 6.64313 10.9996 6.72496 10.9175C6.72495 10.9175 6.72496 10.9175 6.72496 10.9175L7.22985 10.411L2.81905 5.99997Z" fill="#96A3AE"/>
</svg>
