<svg width="20" height="20" viewBox="0 0 20 20" fill="none" xmlns="http://www.w3.org/2000/svg">
<path d="M15.8213 2.04948C14.4446 0.727883 12.5394 0 10.4567 0C7.27528 0 5.31856 1.30411 4.23732 2.39806C2.90476 3.74623 2.14062 5.53633 2.14062 7.30947C2.14062 9.53575 3.07183 11.2445 4.63126 11.8802C4.73595 11.9231 4.84129 11.9447 4.94456 11.9447C5.27354 11.9447 5.53421 11.7295 5.62451 11.3842C5.67715 11.1861 5.79913 10.6974 5.85216 10.4852C5.96569 10.0662 5.87396 9.86473 5.62639 9.57297C5.17536 9.03932 4.96533 8.40826 4.96533 7.58697C4.96533 5.14749 6.78181 2.55481 10.1485 2.55481C12.8198 2.55481 14.4792 4.07308 14.4792 6.51708C14.4792 8.05935 14.147 9.48763 13.5436 10.539C13.1243 11.2695 12.387 12.1404 11.2552 12.1404C10.7657 12.1404 10.326 11.9393 10.0486 11.5888C9.78649 11.2574 9.70012 10.8294 9.80552 10.3832C9.9246 9.87918 10.087 9.35339 10.2441 8.84509C10.5307 7.91672 10.8016 7.0399 10.8016 6.34033C10.8016 5.14375 10.066 4.33975 8.97127 4.33975C7.58001 4.33975 6.49005 5.75281 6.49005 7.55672C6.49005 8.44141 6.72518 9.10311 6.83161 9.3572C6.65635 10.0998 5.61471 14.5146 5.41713 15.3471C5.30289 15.8331 4.61468 19.6715 5.75378 19.9776C7.03364 20.3215 8.17765 16.5831 8.29408 16.1607C8.38846 15.8171 8.71866 14.518 8.92102 13.7195C9.53885 14.3146 10.5337 14.7169 11.5016 14.7169C13.3264 14.7169 14.9675 13.8958 16.1226 12.4048C17.2429 10.9587 17.8599 8.9432 17.8599 6.72975C17.8599 4.99932 17.1168 3.2934 15.8213 2.04948Z" fill="black"/>
</svg>
