<svg width="55" height="55" viewBox="0 0 55 55" fill="none" xmlns="http://www.w3.org/2000/svg">
<path fill-rule="evenodd" clip-rule="evenodd" d="M30.7947 19.1644C26.7999 23.1595 23.5314 26.5011 23.5314 26.5902C23.5314 26.6792 24.2195 27.439 25.0606 28.2785C25.9016 29.118 26.6375 29.8049 26.6958 29.8049C26.7542 29.8049 30.0947 26.512 34.119 22.4873C38.1433 18.4627 41.4359 15.1211 41.4359 15.0614C41.4359 15.0019 40.7478 14.2662 39.9067 13.4268C39.0658 12.5873 38.3057 11.9004 38.2179 11.9004C38.13 11.9004 34.7896 15.1692 30.7947 19.1644ZM39.0397 24.2303C32.3263 31.0112 26.7537 36.5593 26.6562 36.5593C26.5587 36.5593 24.3323 34.4123 21.7088 31.7883C19.0853 29.1643 16.8656 27.0174 16.7761 27.0174C16.6867 27.0174 15.9265 27.7054 15.087 28.5465C14.2476 29.3875 13.5607 30.1234 13.5607 30.1818C13.5607 30.2402 16.4676 33.1946 20.0205 36.7472C23.5735 40.2998 26.5527 43.2064 26.641 43.2064C26.7295 43.2064 33.137 36.8709 40.8802 29.1276L54.9588 15.0488L53.2632 13.4749C52.3305 12.6094 51.4951 11.9011 51.4067 11.9011C51.3182 11.9011 45.753 17.4493 39.0397 24.2303ZM1.60594 28.5189L0 30.1275L6.53878 36.667C10.1351 40.2637 13.1507 43.2064 13.2401 43.2064C13.3295 43.2064 14.0895 42.5183 14.929 41.6773C15.7685 40.8363 16.4554 40.1004 16.4554 40.042C16.4554 39.9836 13.5243 37.0051 9.94192 33.423C6.35952 29.8409 3.37977 26.9101 3.32016 26.9101C3.26065 26.9101 2.48926 27.634 1.60594 28.5189Z" fill="#0083C4"/>
</svg>
