<svg width="26" height="26" viewBox="0 0 26 26" fill="none" xmlns="http://www.w3.org/2000/svg">
<mask id="path-1-inside-1_545_708" fill="white">
<path d="M9.587 0.032298C10.2539 -0.132451 10.8819 0.353049 10.9724 1.03403C11.0629 1.715 10.5803 2.3318 9.9188 2.51721C8.227 2.99144 6.70559 3.96407 5.56105 5.32199C4.14772 6.99879 3.41069 9.14249 3.49408 11.3339C3.57747 13.5253 4.47528 15.6068 6.01195 17.1713C7.54862 18.7359 9.61363 19.671 11.8032 19.7937C13.9927 19.9165 16.1493 19.2181 17.8513 17.8352C19.5532 16.4522 20.6781 14.4842 21.0059 12.3158C21.3338 10.1475 20.841 7.93485 19.624 6.11056C18.6385 4.6332 17.2354 3.49657 15.6072 2.83618C14.9706 2.57798 14.56 1.9111 14.726 1.2445C14.892 0.577911 15.5704 0.165665 16.2147 0.40394C18.4419 1.2276 20.364 2.73704 21.6935 4.72999C23.2542 7.06951 23.8861 9.90706 23.4657 12.6878C23.1275 14.9245 22.1279 16.9951 20.6138 18.6427L24.8591 22.8879C25.3422 23.3711 25.3422 24.1545 24.8591 24.6376C24.3759 25.1208 23.5925 25.1208 23.1094 24.6376L18.7453 20.2735C16.6814 21.7087 14.1898 22.4192 11.6639 22.2775C8.85599 22.1201 6.20778 20.9209 4.23713 18.9145C2.26648 16.9081 1.11512 14.2388 1.00818 11.4285C0.901237 8.6182 1.84642 5.86908 3.65889 3.71872C5.20287 1.88689 7.28164 0.601797 9.587 0.032298Z"/>
</mask>
<path d="M9.587 0.032298C10.2539 -0.132451 10.8819 0.353049 10.9724 1.03403C11.0629 1.715 10.5803 2.3318 9.9188 2.51721C8.227 2.99144 6.70559 3.96407 5.56105 5.32199C4.14772 6.99879 3.41069 9.14249 3.49408 11.3339C3.57747 13.5253 4.47528 15.6068 6.01195 17.1713C7.54862 18.7359 9.61363 19.671 11.8032 19.7937C13.9927 19.9165 16.1493 19.2181 17.8513 17.8352C19.5532 16.4522 20.6781 14.4842 21.0059 12.3158C21.3338 10.1475 20.841 7.93485 19.624 6.11056C18.6385 4.6332 17.2354 3.49657 15.6072 2.83618C14.9706 2.57798 14.56 1.9111 14.726 1.2445C14.892 0.577911 15.5704 0.165665 16.2147 0.40394C18.4419 1.2276 20.364 2.73704 21.6935 4.72999C23.2542 7.06951 23.8861 9.90706 23.4657 12.6878C23.1275 14.9245 22.1279 16.9951 20.6138 18.6427L24.8591 22.8879C25.3422 23.3711 25.3422 24.1545 24.8591 24.6376C24.3759 25.1208 23.5925 25.1208 23.1094 24.6376L18.7453 20.2735C16.6814 21.7087 14.1898 22.4192 11.6639 22.2775C8.85599 22.1201 6.20778 20.9209 4.23713 18.9145C2.26648 16.9081 1.11512 14.2388 1.00818 11.4285C0.901237 8.6182 1.84642 5.86908 3.65889 3.71872C5.20287 1.88689 7.28164 0.601797 9.587 0.032298Z" fill="black"/>
<path d="M10.9724 1.03403L11.2698 0.994516V0.994515L10.9724 1.03403ZM9.587 0.032298L9.65895 0.323543V0.323543L9.587 0.032298ZM9.9188 2.51721L9.83783 2.22835L9.9188 2.51721ZM5.56105 5.32199L5.79043 5.51533L5.56105 5.32199ZM6.01195 17.1713L5.79792 17.3815H5.79792L6.01195 17.1713ZM11.8032 19.7937L11.7864 20.0933L11.8032 19.7937ZM17.8513 17.8352L18.0404 18.068L17.8513 17.8352ZM21.0059 12.3158L21.3026 12.3607L21.0059 12.3158ZM19.624 6.11056L19.8736 5.94407L19.624 6.11056ZM15.6072 2.83618L15.4944 3.11419L15.6072 2.83618ZM14.726 1.2445L15.0171 1.31701V1.31701L14.726 1.2445ZM16.2147 0.40394L16.1106 0.685316V0.685316L16.2147 0.40394ZM21.6935 4.72999L21.444 4.89648L21.6935 4.72999ZM23.4657 12.6878L23.7623 12.7326V12.7326L23.4657 12.6878ZM20.6138 18.6427L20.3929 18.4397L20.1983 18.6515L20.4017 18.8548L20.6138 18.6427ZM24.8591 24.6376L25.0712 24.8498L24.8591 24.6376ZM18.7453 20.2735L18.9574 20.0614L18.78 19.884L18.574 20.0272L18.7453 20.2735ZM11.6639 22.2775L11.6471 22.5771L11.6639 22.2775ZM4.23713 18.9145L4.0231 19.1247L4.23713 18.9145ZM1.00818 11.4285L0.708394 11.4399L1.00818 11.4285ZM3.65889 3.71872L3.88827 3.91206L3.65889 3.71872ZM11.2698 0.994515C11.1588 0.159285 10.3772 -0.471922 9.51505 -0.258947L9.65895 0.323543C10.1306 0.20702 10.605 0.546812 10.675 1.07354L11.2698 0.994515ZM9.99977 2.80608C10.7795 2.58753 11.3833 1.84849 11.2698 0.994516L10.675 1.07354C10.7425 1.58152 10.3811 2.07607 9.83783 2.22835L9.99977 2.80608ZM5.79043 5.51533C6.89599 4.20367 8.36558 3.26415 9.99977 2.80608L9.83783 2.22835C8.08841 2.71872 6.51519 3.72447 5.33166 5.12864L5.79043 5.51533ZM3.79386 11.3225C3.71332 9.20572 4.42524 7.13503 5.79043 5.51533L5.33166 5.12864C3.8702 6.86256 3.10807 9.07926 3.1943 11.3453L3.79386 11.3225ZM6.22598 16.9611C4.74165 15.4498 3.87441 13.4392 3.79386 11.3225L3.1943 11.3453C3.28053 13.6113 4.20892 15.7637 5.79792 17.3815L6.22598 16.9611ZM11.82 19.4942C9.70499 19.3756 7.71031 18.4724 6.22598 16.9611L5.79792 17.3815C7.38692 18.9994 9.52226 19.9663 11.7864 20.0933L11.82 19.4942ZM17.6621 17.6024C16.0181 18.9382 13.9349 19.6128 11.82 19.4942L11.7864 20.0933C14.0505 20.2202 16.2805 19.4981 18.0404 18.068L17.6621 17.6024ZM20.7093 12.271C20.3926 14.3655 19.306 16.2665 17.6621 17.6024L18.0404 18.068C19.8004 16.638 20.9635 14.6029 21.3026 12.3607L20.7093 12.271ZM19.3745 6.27704C20.55 8.03921 21.026 10.1765 20.7093 12.271L21.3026 12.3607C21.6416 10.1185 21.1321 7.8305 19.8736 5.94407L19.3745 6.27704ZM15.4944 3.11419C17.0672 3.75208 18.4225 4.85 19.3745 6.27704L19.8736 5.94407C18.8545 4.41639 17.4036 3.24106 15.7199 2.55818L15.4944 3.11419ZM14.4349 1.17199C14.2267 2.00793 14.7441 2.80984 15.4944 3.11419L15.7199 2.55818C15.1971 2.34613 14.8932 1.81426 15.0171 1.31701L14.4349 1.17199ZM16.3188 0.122564C15.4858 -0.18546 14.6385 0.354407 14.4349 1.172L15.0171 1.31701C15.1455 0.801416 15.6549 0.51679 16.1106 0.685316L16.3188 0.122564ZM21.9431 4.56351C20.5783 2.51762 18.6052 0.968099 16.3188 0.122564L16.1106 0.685316C18.2787 1.4871 20.1498 2.95646 21.444 4.89648L21.9431 4.56351ZM23.7623 12.7326C24.1939 9.87806 23.5452 6.96515 21.9431 4.56351L21.444 4.89648C22.9632 7.17386 23.5783 9.93605 23.1691 12.6429L23.7623 12.7326ZM20.8347 18.8457C22.389 17.1544 23.4151 15.0288 23.7623 12.7326L23.1691 12.6429C22.8398 14.8203 21.8668 16.8359 20.3929 18.4397L20.8347 18.8457ZM20.4017 18.8548L24.6469 23.1001L25.0712 22.6758L20.8259 18.4306L20.4017 18.8548ZM24.6469 23.1001C25.0129 23.4661 25.0129 24.0595 24.6469 24.4255L25.0712 24.8498C25.6715 24.2494 25.6715 23.2761 25.0712 22.6758L24.6469 23.1001ZM24.6469 24.4255C24.2809 24.7915 23.6875 24.7915 23.3215 24.4255L22.8972 24.8498C23.4976 25.4501 24.4709 25.4501 25.0712 24.8498L24.6469 24.4255ZM23.3215 24.4255L18.9574 20.0614L18.5331 20.4857L22.8972 24.8498L23.3215 24.4255ZM11.6471 22.5771C14.24 22.7225 16.7979 21.9931 18.9165 20.5198L18.574 20.0272C16.565 21.4243 14.1395 22.1159 11.6807 21.978L11.6471 22.5771ZM4.0231 19.1247C6.04609 21.1844 8.76462 22.4154 11.6471 22.5771L11.6807 21.978C8.94735 21.8247 6.36948 20.6574 4.45116 18.7043L4.0231 19.1247ZM0.708394 11.4399C0.818173 14.3248 2.00012 17.065 4.0231 19.1247L4.45116 18.7043C2.53285 16.7512 1.41206 14.1527 1.30796 11.4171L0.708394 11.4399ZM3.4295 3.52538C1.5689 5.73285 0.598614 8.55497 0.708394 11.4399L1.30796 11.4171C1.20386 8.68143 2.12394 6.00532 3.88827 3.91206L3.4295 3.52538ZM9.51505 -0.258947C7.14847 0.325677 5.01449 1.6449 3.4295 3.52538L3.88827 3.91206C5.39125 2.12889 7.41481 0.877917 9.65895 0.323543L9.51505 -0.258947Z" fill="white" mask="url(#path-1-inside-1_545_708)"/>
</svg>
