<svg width="19" height="19" viewBox="0 0 19 19" fill="none" xmlns="http://www.w3.org/2000/svg">
<mask id="path-1-inside-1_545_1157" fill="white">
<path d="M7.00559 0.0236024C7.49295 -0.096791 7.95188 0.257997 8.018 0.755634C8.08411 1.25327 7.73144 1.70401 7.24806 1.8395C6.01174 2.18605 4.89994 2.89682 4.06354 3.88914C3.03073 5.1145 2.49213 6.68105 2.55307 8.28245C2.61401 9.88386 3.2701 11.4049 4.39305 12.5483C5.516 13.6916 7.02504 14.3749 8.62509 14.4647C10.2251 14.5544 11.8011 14.044 13.0449 13.0334C14.2886 12.0228 15.1106 10.5846 15.3502 9.00004C15.5898 7.41549 15.2297 5.79855 14.3404 4.46541C13.6201 3.3858 12.5948 2.55519 11.4049 2.0726C10.9397 1.88391 10.6397 1.39657 10.761 0.909446C10.8823 0.42232 11.3781 0.121063 11.8489 0.295187C13.4765 0.897093 14.8811 2.00014 15.8527 3.45653C16.9932 5.16618 17.455 7.23977 17.1477 9.27183C16.9006 10.9064 16.1701 12.4195 15.0636 13.6235L18.1659 16.7258C18.519 17.0789 18.519 17.6513 18.1659 18.0044C17.8129 18.3575 17.2404 18.3575 16.8873 18.0044L13.6982 14.8153C12.19 15.864 10.3691 16.3832 8.52331 16.2797C6.47138 16.1647 4.53616 15.2884 3.09607 13.8221C1.65598 12.3559 0.814592 10.4052 0.736444 8.35158C0.658296 6.29791 1.349 4.28895 2.6735 2.71753C3.8018 1.37888 5.3209 0.439775 7.00559 0.0236024Z"/>
</mask>
<path d="M7.00559 0.0236024C7.49295 -0.096791 7.95188 0.257997 8.018 0.755634C8.08411 1.25327 7.73144 1.70401 7.24806 1.8395C6.01174 2.18605 4.89994 2.89682 4.06354 3.88914C3.03073 5.1145 2.49213 6.68105 2.55307 8.28245C2.61401 9.88386 3.2701 11.4049 4.39305 12.5483C5.516 13.6916 7.02504 14.3749 8.62509 14.4647C10.2251 14.5544 11.8011 14.044 13.0449 13.0334C14.2886 12.0228 15.1106 10.5846 15.3502 9.00004C15.5898 7.41549 15.2297 5.79855 14.3404 4.46541C13.6201 3.3858 12.5948 2.55519 11.4049 2.0726C10.9397 1.88391 10.6397 1.39657 10.761 0.909446C10.8823 0.42232 11.3781 0.121063 11.8489 0.295187C13.4765 0.897093 14.8811 2.00014 15.8527 3.45653C16.9932 5.16618 17.455 7.23977 17.1477 9.27183C16.9006 10.9064 16.1701 12.4195 15.0636 13.6235L18.1659 16.7258C18.519 17.0789 18.519 17.6513 18.1659 18.0044C17.8129 18.3575 17.2404 18.3575 16.8873 18.0044L13.6982 14.8153C12.19 15.864 10.3691 16.3832 8.52331 16.2797C6.47138 16.1647 4.53616 15.2884 3.09607 13.8221C1.65598 12.3559 0.814592 10.4052 0.736444 8.35158C0.658296 6.29791 1.349 4.28895 2.6735 2.71753C3.8018 1.37888 5.3209 0.439775 7.00559 0.0236024Z" fill="#96A3AE"/>
<path d="M8.018 0.755634L8.21626 0.729294V0.729294L8.018 0.755634ZM7.00559 0.0236024L7.05355 0.217766L7.00559 0.0236024ZM7.24806 1.8395L7.19408 1.64692L7.24806 1.8395ZM4.06354 3.88914L4.21647 4.01804L4.06354 3.88914ZM4.39305 12.5483L4.25036 12.6884L4.39305 12.5483ZM8.62509 14.4647L8.61389 14.6643H8.61389L8.62509 14.4647ZM13.0449 13.0334L13.171 13.1886L13.0449 13.0334ZM15.3502 9.00004L15.548 9.02994L15.3502 9.00004ZM14.3404 4.46541L14.5067 4.35442H14.5067L14.3404 4.46541ZM11.4049 2.0726L11.3298 2.25793L11.4049 2.0726ZM10.761 0.909446L10.9551 0.957785V0.957785L10.761 0.909446ZM11.8489 0.295187L11.7795 0.482771L11.8489 0.295187ZM15.8527 3.45653L15.6863 3.56753L15.8527 3.45653ZM17.1477 9.27183L17.3455 9.30173L17.1477 9.27183ZM15.0636 13.6235L14.9164 13.4882L14.7866 13.6293L14.9222 13.7649L15.0636 13.6235ZM18.1659 18.0044L18.3074 18.1458L18.1659 18.0044ZM13.6982 14.8153L13.8396 14.6739L13.7213 14.5556L13.584 14.6511L13.6982 14.8153ZM8.52331 16.2797L8.51212 16.4794L8.52331 16.2797ZM3.09607 13.8221L2.95338 13.9623L3.09607 13.8221ZM0.736444 8.35158L0.536589 8.35919L0.736444 8.35158ZM2.6735 2.71753L2.82643 2.84642L2.6735 2.71753ZM8.21626 0.729294C8.13648 0.128821 7.57513 -0.323105 6.95762 -0.170561L7.05355 0.217766C7.41076 0.129523 7.76729 0.387173 7.81974 0.781974L8.21626 0.729294ZM7.30204 2.03208C7.86423 1.8745 8.29769 1.34226 8.21626 0.729294L7.81974 0.781974C7.87053 1.16428 7.59864 1.53352 7.19408 1.64692L7.30204 2.03208ZM4.21647 4.01804C5.02687 3.05655 6.10413 2.36786 7.30204 2.03208L7.19408 1.64692C5.91934 2.00424 4.773 2.73709 3.91062 3.76025L4.21647 4.01804ZM2.75292 8.27485C2.69388 6.7232 3.21574 5.20533 4.21647 4.01804L3.91062 3.76025C2.84571 5.02368 2.29038 6.6389 2.35321 8.29006L2.75292 8.27485ZM4.53573 12.4081C3.44768 11.3003 2.81197 9.8265 2.75292 8.27485L2.35321 8.29006C2.41604 9.94122 3.09252 11.5096 4.25036 12.6884L4.53573 12.4081ZM8.63629 14.265C7.08595 14.178 5.62379 13.5159 4.53573 12.4081L4.25036 12.6884C5.4082 13.8673 6.96413 14.5718 8.61389 14.6643L8.63629 14.265ZM12.9187 12.8782C11.7136 13.8574 10.1866 14.3519 8.63629 14.265L8.61389 14.6643C10.2637 14.7568 11.8886 14.2306 13.171 13.1886L12.9187 12.8782ZM15.1524 8.97014C14.9203 10.5055 14.1238 11.899 12.9187 12.8782L13.171 13.1886C14.4533 12.1466 15.3009 10.6637 15.548 9.02994L15.1524 8.97014ZM14.174 4.5764C15.0357 5.86812 15.3846 7.43482 15.1524 8.97014L15.548 9.02994C15.795 7.39616 15.4237 5.72898 14.5067 4.35442L14.174 4.5764ZM11.3298 2.25793C12.4826 2.72553 13.4761 3.53034 14.174 4.5764L14.5067 4.35442C13.7641 3.24126 12.7069 2.38484 11.4801 1.88726L11.3298 2.25793ZM10.5669 0.861106C10.4175 1.46113 10.7887 2.03848 11.3298 2.25793L11.4801 1.88726C11.0908 1.72934 10.8619 1.33202 10.9551 0.957785L10.5669 0.861106ZM11.9183 0.107603C11.3217 -0.11302 10.7133 0.273317 10.5669 0.861106L10.9551 0.957785C11.0513 0.571323 11.4344 0.355146 11.7795 0.482771L11.9183 0.107603ZM16.019 3.34554C15.0239 1.85387 13.5853 0.724092 11.9183 0.107603L11.7795 0.482771C13.3677 1.07009 14.7383 2.14642 15.6863 3.56753L16.019 3.34554ZM17.3455 9.30173C17.6602 7.22044 17.1872 5.09661 16.019 3.34554L15.6863 3.56753C16.7992 5.23575 17.2498 7.2591 16.95 9.24193L17.3455 9.30173ZM15.2109 13.7588C16.3442 12.5257 17.0923 10.9759 17.3455 9.30173L16.95 9.24193C16.7088 10.8369 15.996 12.3134 14.9164 13.4882L15.2109 13.7588ZM14.9222 13.7649L18.0245 16.8672L18.3074 16.5844L15.2051 13.4821L14.9222 13.7649ZM18.0245 16.8672C18.2995 17.1422 18.2995 17.588 18.0245 17.863L18.3074 18.1458C18.7385 17.7147 18.7385 17.0156 18.3074 16.5844L18.0245 16.8672ZM18.0245 17.863C17.7495 18.138 17.3037 18.138 17.0287 17.863L16.7459 18.1458C17.1771 18.577 17.8762 18.577 18.3074 18.1458L18.0245 17.863ZM17.0287 17.863L13.8396 14.6739L13.5568 14.9567L16.7459 18.1458L17.0287 17.863ZM8.51212 16.4794C10.4027 16.5854 12.2676 16.0536 13.8124 14.9795L13.584 14.6511C12.1123 15.6744 10.3356 16.181 8.53451 16.0801L8.51212 16.4794ZM2.95338 13.9623C4.42836 15.464 6.41047 16.3616 8.51212 16.4794L8.53451 16.0801C6.53229 15.9678 4.64395 15.1127 3.23875 13.682L2.95338 13.9623ZM0.536589 8.35919C0.61663 10.4626 1.4784 12.4605 2.95338 13.9623L3.23875 13.682C1.83355 12.2513 1.01255 10.3479 0.936299 8.34398L0.536589 8.35919ZM2.52058 2.58863C1.16399 4.19812 0.456547 6.25576 0.536589 8.35919L0.936299 8.34398C0.860044 6.34007 1.53402 4.37977 2.82643 2.84642L2.52058 2.58863ZM6.95762 -0.170561C5.23212 0.255694 3.67621 1.21755 2.52058 2.58863L2.82643 2.84642C3.92738 1.54022 5.40968 0.623855 7.05355 0.217766L6.95762 -0.170561Z" fill="#F8F7F7" mask="url(#path-1-inside-1_545_1157)"/>
</svg>
