<svg width="90" height="90" viewBox="0 0 90 90" fill="none" xmlns="http://www.w3.org/2000/svg">
<path fill-rule="evenodd" clip-rule="evenodd" d="M50.3914 31.3602C43.8544 37.8977 38.506 43.3658 38.506 43.5116C38.506 43.6572 39.6319 44.9005 41.0082 46.2742C42.3844 47.6479 43.5886 48.7719 43.684 48.7719C43.7796 48.7719 49.2458 43.3835 55.8311 36.7977C62.4163 30.2119 67.8042 24.7439 67.8042 24.6463C67.8042 24.549 66.6782 23.3451 65.3019 21.9714C63.9258 20.5977 62.6821 19.4737 62.5384 19.4737C62.3946 19.4737 56.9284 24.8226 50.3914 31.3602ZM63.8832 39.6498C52.8975 50.746 43.7788 59.8246 43.6193 59.8246C43.4596 59.8246 39.8165 56.3114 35.5235 52.0176C31.2305 47.7237 27.5982 44.2105 27.4518 44.2105C27.3054 44.2105 26.0616 45.3365 24.6879 46.7128C23.3142 48.089 22.1902 49.2932 22.1902 49.3888C22.1902 49.4842 26.947 54.3188 32.7609 60.1321C38.5747 65.9454 43.4498 70.7018 43.5944 70.7018C43.7391 70.7018 54.2242 60.3346 66.8949 47.6637L89.9326 24.6256L87.1579 22.0502C85.6318 20.6339 84.2647 19.4749 84.12 19.4749C83.9753 19.4749 74.8686 28.5537 63.8832 39.6498ZM2.62789 46.6676L0 49.2998L10.6998 60.0009C16.5847 65.8863 21.5193 70.7018 21.6656 70.7018C21.8119 70.7018 23.0556 69.5758 24.4293 68.1995C25.803 66.8233 26.927 65.6191 26.927 65.5235C26.927 65.4281 22.1307 60.554 16.2686 54.6925C10.4065 48.8309 5.53053 44.0351 5.43298 44.0351C5.33561 44.0351 4.07333 45.2197 2.62789 46.6676Z" fill="#3A2781"/>
</svg>
