<svg width="70" height="70" viewBox="0 0 70 70" fill="none" xmlns="http://www.w3.org/2000/svg">
<path fill-rule="evenodd" clip-rule="evenodd" d="M39.1933 24.3913C34.109 29.476 29.9491 33.729 29.9491 33.8424C29.9491 33.9556 30.8248 34.9227 31.8953 35.9911C32.9656 37.0595 33.9022 37.9338 33.9765 37.9338C34.0508 37.9338 38.3023 33.7428 43.4242 28.6205C48.546 23.4982 52.7366 19.2453 52.7366 19.1694C52.7366 19.0937 51.8609 18.1573 50.7904 17.0889C49.7201 16.0205 48.7527 15.1462 48.641 15.1462C48.5291 15.1462 44.2777 19.3065 39.1933 24.3913ZM49.6869 30.8388C41.1425 39.4691 34.0502 46.5303 33.9261 46.5303C33.8019 46.5303 30.9684 43.7978 27.6294 40.4581C24.2904 37.1185 21.4653 34.386 21.3514 34.386C21.2376 34.386 20.2701 35.2618 19.2017 36.3322C18.1333 37.4026 17.259 38.3392 17.259 38.4135C17.259 38.4878 20.9588 42.248 25.4807 46.7695C30.0026 51.2909 33.7943 54.9903 33.9067 54.9903C34.0193 54.9903 42.1744 46.9269 52.0294 37.0718L69.9476 19.1533L67.7895 17.1502C66.6025 16.0486 65.5392 15.1472 65.4267 15.1472C65.3141 15.1472 58.2311 22.2085 49.6869 30.8388ZM2.04392 36.297L0 38.3444L8.32209 46.6674C12.8992 51.245 16.7372 54.9903 16.851 54.9903C16.9648 54.9903 17.9321 54.1145 19.0006 53.0441C20.069 51.9737 20.9432 51.0371 20.9432 50.9628C20.9432 50.8885 17.2128 47.0976 12.6534 42.5386C8.09394 37.9796 4.30152 34.2496 4.22565 34.2496C4.14992 34.2496 3.16815 35.1709 2.04392 36.297Z" fill="#3A2781"/>
</svg>
