<svg width="23" height="23" viewBox="0 0 23 23" fill="none" xmlns="http://www.w3.org/2000/svg">
<g clip-path="url(#clip0_938_3290)">
<path d="M22.8781 16.7886C22.8502 16.7286 22.8243 16.6788 22.8001 16.6389C22.4011 15.9202 21.6385 15.038 20.5129 13.9922L20.4891 13.9682L20.4772 13.9565L20.4652 13.9445H20.4531C19.9422 13.4574 19.6187 13.13 19.4832 12.9623C19.2353 12.643 19.1798 12.3197 19.3153 11.9922C19.411 11.7447 19.7705 11.2221 20.3931 10.4236C20.7205 10.0005 20.9798 9.66132 21.1714 9.4058C22.5526 7.56952 23.1514 6.39611 22.9677 5.88511L22.8964 5.7657C22.8484 5.69381 22.7247 5.62804 22.5253 5.56806C22.3255 5.50821 22.0701 5.49831 21.7587 5.5382L18.3099 5.56202C18.2541 5.54222 18.1743 5.54407 18.0704 5.56806C17.9665 5.59205 17.9146 5.60409 17.9146 5.60409L17.8546 5.63408L17.8069 5.67011C17.767 5.69393 17.7231 5.73584 17.6752 5.79573C17.6275 5.85542 17.5876 5.92546 17.5557 6.00528C17.1802 6.97128 16.7533 7.86941 16.2742 8.69964C15.9788 9.1947 15.7075 9.62374 15.4598 9.98701C15.2123 10.3502 15.0047 10.6177 14.8372 10.7892C14.6695 10.9609 14.518 11.0984 14.3821 11.2023C14.2463 11.3063 14.1426 11.3502 14.0709 11.3341C13.9989 11.318 13.9312 11.3021 13.8671 11.2862C13.7554 11.2143 13.6655 11.1165 13.5978 10.9928C13.5298 10.869 13.484 10.7133 13.46 10.5257C13.4362 10.3379 13.4221 10.1765 13.4181 10.0407C13.4143 9.90509 13.4161 9.71329 13.4242 9.46582C13.4325 9.21823 13.4362 9.05071 13.4362 8.96288C13.4362 8.65946 13.4421 8.33016 13.454 7.9749C13.4661 7.61964 13.4758 7.33816 13.484 7.13079C13.4921 6.92321 13.4959 6.7036 13.4959 6.47207C13.4959 6.24054 13.4818 6.05897 13.454 5.92718C13.4265 5.79556 13.3842 5.6678 13.3286 5.54394C13.2726 5.42021 13.1906 5.3245 13.0831 5.25655C12.9753 5.18868 12.8414 5.13483 12.6819 5.09481C12.2588 4.99906 11.7199 4.94726 11.0651 4.9392C9.58029 4.92327 8.62621 5.01915 8.20308 5.22673C8.03543 5.31443 7.88372 5.43426 7.74808 5.58585C7.60434 5.76155 7.58429 5.85743 7.68806 5.8732C8.16714 5.94497 8.50629 6.11664 8.7059 6.38805L8.77783 6.53188C8.83378 6.63565 8.88965 6.81936 8.94556 7.08276C9.00139 7.34617 9.03742 7.63755 9.05327 7.95674C9.09312 8.53963 9.09312 9.03859 9.05327 9.45366C9.0133 9.8689 8.97555 10.1922 8.93952 10.4237C8.90349 10.6552 8.84964 10.8428 8.77783 10.9865C8.7059 11.1302 8.65804 11.218 8.63405 11.2499C8.6101 11.2818 8.59014 11.3019 8.57428 11.3097C8.47051 11.3495 8.36259 11.3698 8.2509 11.3698C8.13903 11.3698 8.00339 11.3138 7.84375 11.202C7.68416 11.0902 7.51852 10.9366 7.34685 10.7409C7.17517 10.5453 6.98156 10.2718 6.76593 9.92061C6.55047 9.56938 6.32691 9.15426 6.09538 8.67527L5.90383 8.3279C5.78408 8.10442 5.6205 7.77902 5.41292 7.352C5.20522 6.9248 5.02163 6.51158 4.86204 6.1124C4.79824 5.94475 4.7024 5.81712 4.57468 5.72929L4.51475 5.69326C4.4749 5.66139 4.41094 5.62754 4.32319 5.59147C4.23532 5.55544 4.14363 5.5296 4.04775 5.5137L0.766558 5.53753C0.431262 5.53753 0.203761 5.61349 0.0839707 5.7652L0.0360294 5.83696C0.0120797 5.87693 0 5.94077 0 6.02864C0 6.11647 0.0239497 6.22427 0.071891 6.3519C0.550885 7.47766 1.07178 8.56337 1.63458 9.60918C2.19737 10.655 2.68643 11.4974 3.10146 12.1357C3.51658 12.7745 3.9397 13.3773 4.37084 13.944C4.80197 14.5109 5.08736 14.8741 5.22699 15.0337C5.36678 15.1936 5.47659 15.3132 5.55641 15.393L5.85584 15.6803C6.04744 15.872 6.3288 16.1015 6.70004 16.3689C7.07136 16.6364 7.48245 16.8998 7.93351 17.1595C8.38465 17.4188 8.90949 17.6303 9.50832 17.7939C10.1071 17.9577 10.6898 18.0234 11.2567 17.9917H12.6339C12.9132 17.9676 13.1248 17.8798 13.2686 17.7282L13.3162 17.6682C13.3483 17.6205 13.3783 17.5465 13.406 17.4469C13.434 17.3471 13.4479 17.2372 13.4479 17.1176C13.4397 16.7744 13.4658 16.465 13.5256 16.1896C13.5853 15.9143 13.6533 15.7067 13.7294 15.5669C13.8054 15.4273 13.8912 15.3094 13.9867 15.2139C14.0825 15.1181 14.1507 15.0601 14.1907 15.0401C14.2304 15.0201 14.2622 15.0064 14.2861 14.9982C14.4777 14.9344 14.7032 14.9962 14.9629 15.184C15.2224 15.3716 15.4658 15.6033 15.6935 15.8786C15.921 16.1542 16.1944 16.4633 16.5137 16.8065C16.8332 17.1499 17.1125 17.4051 17.3519 17.573L17.5914 17.7167C17.7512 17.8126 17.9588 17.9004 18.2143 17.9802C18.4694 18.06 18.6929 18.08 18.8848 18.0401L21.9503 17.9923C22.2535 17.9923 22.4894 17.9421 22.6568 17.8425C22.8245 17.7427 22.9241 17.6327 22.9562 17.5132C22.9883 17.3935 22.99 17.2576 22.9623 17.1058C22.9339 16.9544 22.9059 16.8484 22.8781 16.7886Z" fill="black"/>
</g>
<defs>
<clipPath id="clip0_938_3290">
<rect width="23" height="23" fill="white"/>
</clipPath>
</defs>
</svg>
